<ttFont>
    <TTGlyph name=".notdef" xMin="0" yMin="0" xMax="500" yMax="700">
      <contour>
        <pt x="500" y="0" on="1"/>
        <pt x="0" y="0" on="1"/>
        <pt x="0" y="700" on="1"/>
        <pt x="500" y="700" on="1"/>
      </contour>
      <contour>
        <pt x="450" y="50" on="1"/>
        <pt x="450" y="650" on="1"/>
        <pt x="50" y="650" on="1"/>
        <pt x="50" y="50" on="1"/>
      </contour>
      <contour>
        <pt x="425" y="133" on="1"/>
        <pt x="386" y="101" on="1"/>
        <pt x="250" y="305" on="1"/>
        <pt x="113" y="100" on="1"/>
        <pt x="73" y="129" on="1"/>
        <pt x="220" y="350" on="1"/>
        <pt x="73" y="571" on="1"/>
        <pt x="113" y="600" on="1"/>
        <pt x="250" y="395" on="1"/>
        <pt x="386" y="599" on="1"/>
        <pt x="425" y="567" on="1"/>
        <pt x="280" y="350" on="1"/>
      </contour>
    </TTGlyph>
    <TTGlyph name="A" xMin="21" yMin="0" xMax="517" yMax="700">
      <contour>
        <pt x="517" y="0" on="1"/>
        <pt x="386" y="0" on="1"/>
        <pt x="345" y="183" on="1"/>
        <pt x="184" y="183" on="1"/>
        <pt x="145" y="0" on="1"/>
        <pt x="21" y="0" on="1"/>
        <pt x="185" y="700" on="1"/>
        <pt x="340" y="700" on="1"/>
      </contour>
      <contour>
        <pt x="319" y="300" on="1"/>
        <pt x="262" y="516" on="1"/>
        <pt x="210" y="300" on="1"/>
      </contour>
    </TTGlyph>
    <TTGlyph name="AE" xMin="78" yMin="0" xMax="779" yMax="700">
      <contour>
        <pt x="777" y="0" on="1"/>
        <pt x="444" y="0" on="1"/>
        <pt x="445" y="195" on="1"/>
        <pt x="308" y="195" on="1"/>
        <pt x="208" y="0" on="1"/>
        <pt x="78" y="0" on="1"/>
        <pt x="444" y="700" on="1"/>
        <pt x="779" y="700" on="1"/>
        <pt x="779" y="590" on="1"/>
        <pt x="555" y="590" on="1"/>
        <pt x="555" y="413" on="1"/>
        <pt x="707" y="413" on="1"/>
        <pt x="673" y="308" on="1"/>
        <pt x="555" y="308" on="1"/>
        <pt x="555" y="101" on="1"/>
        <pt x="777" y="101" on="1"/>
      </contour>
      <contour>
        <pt x="445" y="300" on="1"/>
        <pt x="445" y="462" on="1"/>
        <pt x="363" y="300" on="1"/>
      </contour>
    </TTGlyph>
    <TTGlyph name="Aacute" xMin="21" yMin="0" xMax="517" yMax="873">
      <contour>
        <pt x="517" y="0" on="1"/>
        <pt x="386" y="0" on="1"/>
        <pt x="345" y="183" on="1"/>
        <pt x="184" y="183" on="1"/>
        <pt x="145" y="0" on="1"/>
        <pt x="21" y="0" on="1"/>
        <pt x="185" y="700" on="1"/>
        <pt x="340" y="700" on="1"/>
      </contour>
      <contour>
        <pt x="319" y="300" on="1"/>
        <pt x="262" y="516" on="1"/>
        <pt x="210" y="300" on="1"/>
      </contour>
      <contour>
        <pt x="302" y="731" on="1"/>
        <pt x="229" y="731" on="1"/>
        <pt x="275" y="839" on="1"/>
        <pt x="285" y="862" on="0"/>
        <pt x="308" y="870" on="1"/>
        <pt x="319" y="873" on="0"/>
        <pt x="327" y="873" on="1"/>
        <pt x="336" y="873" on="0"/>
        <pt x="342" y="869" on="1"/>
        <pt x="362" y="859" on="0"/>
        <pt x="366" y="840" on="1"/>
        <pt x="367" y="836" on="0"/>
        <pt x="367" y="833" on="1"/>
        <pt x="367" y="815" on="0"/>
        <pt x="351" y="794" on="1"/>
      </contour>
    </TTGlyph>
    <TTGlyph name="Abreve" xMin="21" yMin="0" xMax="517" yMax="848">
      <contour>
        <pt x="517" y="0" on="1"/>
        <pt x="386" y="0" on="1"/>
        <pt x="345" y="183" on="1"/>
        <pt x="184" y="183" on="1"/>
        <pt x="145" y="0" on="1"/>
        <pt x="21" y="0" on="1"/>
        <pt x="185" y="700" on="1"/>
        <pt x="340" y="700" on="1"/>
      </contour>
      <contour>
        <pt x="319" y="300" on="1"/>
        <pt x="262" y="516" on="1"/>
        <pt x="210" y="300" on="1"/>
      </contour>
      <contour>
        <pt x="378" y="848" on="1"/>
        <pt x="378" y="843" on="1"/>
        <pt x="378" y="796" on="0"/>
        <pt x="312" y="730" on="0"/>
        <pt x="218" y="730" on="0"/>
        <pt x="152" y="796" on="0"/>
        <pt x="152" y="843" on="1"/>
        <pt x="152" y="848" on="1"/>
        <pt x="235" y="848" on="1"/>
        <pt x="235" y="843" on="1"/>
        <pt x="235" y="808" on="0"/>
        <pt x="265" y="808" on="1"/>
        <pt x="279" y="808" on="0"/>
        <pt x="296" y="827" on="0"/>
        <pt x="296" y="843" on="1"/>
        <pt x="296" y="848" on="1"/>
      </contour>
    </TTGlyph>
    <TTGlyph name="Acircumflex" xMin="21" yMin="0" xMax="517" yMax="911">
      <contour>
        <pt x="517" y="0" on="1"/>
        <pt x="386" y="0" on="1"/>
        <pt x="345" y="183" on="1"/>
        <pt x="184" y="183" on="1"/>
        <pt x="145" y="0" on="1"/>
        <pt x="21" y="0" on="1"/>
        <pt x="185" y="700" on="1"/>
        <pt x="340" y="700" on="1"/>
      </contour>
      <contour>
        <pt x="319" y="300" on="1"/>
        <pt x="262" y="516" on="1"/>
        <pt x="210" y="300" on="1"/>
      </contour>
      <contour>
        <pt x="410" y="770" on="1"/>
        <pt x="343" y="731" on="1"/>
        <pt x="267" y="814" on="1"/>
        <pt x="186" y="731" on="1"/>
        <pt x="120" y="770" on="1"/>
        <pt x="268" y="911" on="1"/>
      </contour>
    </TTGlyph>
    <TTGlyph name="Adieresis" xMin="21" yMin="0" xMax="517" yMax="821">
      <contour>
        <pt x="517" y="0" on="1"/>
        <pt x="386" y="0" on="1"/>
        <pt x="345" y="183" on="1"/>
        <pt x="184" y="183" on="1"/>
        <pt x="145" y="0" on="1"/>
        <pt x="21" y="0" on="1"/>
        <pt x="185" y="700" on="1"/>
        <pt x="340" y="700" on="1"/>
      </contour>
      <contour>
        <pt x="319" y="300" on="1"/>
        <pt x="262" y="516" on="1"/>
        <pt x="210" y="300" on="1"/>
      </contour>
      <contour>
        <pt x="240" y="775" on="1"/>
        <pt x="240" y="757" on="0"/>
        <pt x="214" y="731" on="0"/>
        <pt x="195" y="731" on="1"/>
        <pt x="177" y="731" on="0"/>
        <pt x="151" y="757" on="0"/>
        <pt x="151" y="775" on="1"/>
        <pt x="151" y="794" on="0"/>
        <pt x="177" y="820" on="0"/>
        <pt x="195" y="820" on="1"/>
        <pt x="214" y="820" on="0"/>
        <pt x="240" y="794" on="0"/>
      </contour>
      <contour>
        <pt x="347" y="731" on="0"/>
        <pt x="309" y="731" on="0"/>
        <pt x="283" y="757" on="0"/>
        <pt x="283" y="795" on="0"/>
        <pt x="309" y="821" on="0"/>
        <pt x="347" y="821" on="0"/>
        <pt x="373" y="795" on="0"/>
        <pt x="373" y="757" on="0"/>
      </contour>
    </TTGlyph>
    <TTGlyph name="Agrave" xMin="21" yMin="0" xMax="517" yMax="875">
      <contour>
        <pt x="517" y="0" on="1"/>
        <pt x="386" y="0" on="1"/>
        <pt x="345" y="183" on="1"/>
        <pt x="184" y="183" on="1"/>
        <pt x="145" y="0" on="1"/>
        <pt x="21" y="0" on="1"/>
        <pt x="185" y="700" on="1"/>
        <pt x="340" y="700" on="1"/>
      </contour>
      <contour>
        <pt x="319" y="300" on="1"/>
        <pt x="262" y="516" on="1"/>
        <pt x="210" y="300" on="1"/>
      </contour>
      <contour>
        <pt x="286" y="733" on="1"/>
        <pt x="213" y="733" on="1"/>
        <pt x="164" y="796" on="1"/>
        <pt x="148" y="817" on="0"/>
        <pt x="148" y="835" on="1"/>
        <pt x="148" y="838" on="0"/>
        <pt x="149" y="842" on="1"/>
        <pt x="153" y="861" on="0"/>
        <pt x="173" y="871" on="1"/>
        <pt x="179" y="875" on="0"/>
        <pt x="188" y="875" on="1"/>
        <pt x="196" y="875" on="0"/>
        <pt x="207" y="872" on="1"/>
        <pt x="230" y="864" on="0"/>
        <pt x="240" y="841" on="1"/>
      </contour>
    </TTGlyph>
    <TTGlyph name="Alpha" xMin="21" yMin="0" xMax="517" yMax="700">
      <contour>
        <pt x="517" y="0" on="1"/>
        <pt x="386" y="0" on="1"/>
        <pt x="345" y="183" on="1"/>
        <pt x="184" y="183" on="1"/>
        <pt x="145" y="0" on="1"/>
        <pt x="21" y="0" on="1"/>
        <pt x="185" y="700" on="1"/>
        <pt x="340" y="700" on="1"/>
      </contour>
      <contour>
        <pt x="319" y="300" on="1"/>
        <pt x="262" y="516" on="1"/>
        <pt x="210" y="300" on="1"/>
      </contour>
    </TTGlyph>
    <TTGlyph name="Alphatonos" xMin="78" yMin="0" xMax="588" yMax="709">
      <contour>
        <pt x="588" y="0" on="1"/>
        <pt x="457" y="0" on="1"/>
        <pt x="416" y="183" on="1"/>
        <pt x="255" y="183" on="1"/>
        <pt x="216" y="0" on="1"/>
        <pt x="92" y="0" on="1"/>
        <pt x="256" y="700" on="1"/>
        <pt x="411" y="700" on="1"/>
      </contour>
      <contour>
        <pt x="390" y="300" on="1"/>
        <pt x="333" y="516" on="1"/>
        <pt x="281" y="300" on="1"/>
      </contour>
      <contour>
        <pt x="151" y="567" on="1"/>
        <pt x="78" y="567" on="1"/>
        <pt x="124" y="675" on="1"/>
        <pt x="134" y="698" on="0"/>
        <pt x="157" y="706" on="1"/>
        <pt x="168" y="709" on="0"/>
        <pt x="176" y="709" on="1"/>
        <pt x="185" y="709" on="0"/>
        <pt x="191" y="705" on="1"/>
        <pt x="211" y="695" on="0"/>
        <pt x="215" y="676" on="1"/>
        <pt x="216" y="672" on="0"/>
        <pt x="216" y="669" on="1"/>
        <pt x="216" y="651" on="0"/>
        <pt x="200" y="630" on="1"/>
      </contour>
    </TTGlyph>
    <TTGlyph name="Amacron" xMin="21" yMin="0" xMax="517" yMax="821">
      <contour>
        <pt x="517" y="0" on="1"/>
        <pt x="386" y="0" on="1"/>
        <pt x="345" y="183" on="1"/>
        <pt x="184" y="183" on="1"/>
        <pt x="145" y="0" on="1"/>
        <pt x="21" y="0" on="1"/>
        <pt x="185" y="700" on="1"/>
        <pt x="340" y="700" on="1"/>
      </contour>
      <contour>
        <pt x="319" y="300" on="1"/>
        <pt x="262" y="516" on="1"/>
        <pt x="210" y="300" on="1"/>
      </contour>
      <contour>
        <pt x="368" y="730" on="1"/>
        <pt x="151" y="730" on="1"/>
        <pt x="151" y="821" on="1"/>
        <pt x="368" y="821" on="1"/>
      </contour>
    </TTGlyph>
    <TTGlyph name="Aogonek" xMin="78" yMin="-213" xMax="608" yMax="700">
      <contour>
        <pt x="559" y="-110" on="1"/>
        <pt x="608" y="-163" on="1"/>
        <pt x="590" y="-191" on="0"/>
        <pt x="539" y="-213" on="0"/>
        <pt x="498" y="-213" on="1"/>
        <pt x="482" y="-213" on="0"/>
        <pt x="443" y="-197" on="0"/>
        <pt x="426" y="-174" on="1"/>
        <pt x="411" y="-152" on="0"/>
        <pt x="411" y="-124" on="1"/>
        <pt x="411" y="-120" on="0"/>
        <pt x="411" y="-117" on="1"/>
        <pt x="414" y="-55" on="0"/>
        <pt x="504" y="0" on="1"/>
        <pt x="443" y="0" on="1"/>
        <pt x="402" y="183" on="1"/>
        <pt x="241" y="183" on="1"/>
        <pt x="202" y="0" on="1"/>
        <pt x="78" y="0" on="1"/>
        <pt x="242" y="700" on="1"/>
        <pt x="397" y="700" on="1"/>
        <pt x="574" y="0" on="1"/>
        <pt x="573" y="0" on="1"/>
        <pt x="483" y="-74" on="0"/>
        <pt x="483" y="-116" on="1"/>
        <pt x="483" y="-119" on="0"/>
        <pt x="483" y="-121" on="1"/>
        <pt x="487" y="-145" on="0"/>
        <pt x="516" y="-145" on="1"/>
        <pt x="525" y="-145" on="0"/>
        <pt x="550" y="-128" on="0"/>
      </contour>
      <contour>
        <pt x="376" y="300" on="1"/>
        <pt x="319" y="516" on="1"/>
        <pt x="267" y="300" on="1"/>
      </contour>
    </TTGlyph>
    <TTGlyph name="Aring" xMin="21" yMin="0" xMax="517" yMax="877">
      <contour>
        <pt x="517" y="0" on="1"/>
        <pt x="386" y="0" on="1"/>
        <pt x="345" y="183" on="1"/>
        <pt x="184" y="183" on="1"/>
        <pt x="145" y="0" on="1"/>
        <pt x="21" y="0" on="1"/>
        <pt x="184" y="697" on="1"/>
        <pt x="156" y="728" on="0"/>
        <pt x="156" y="770" on="1"/>
        <pt x="156" y="814" on="0"/>
        <pt x="219" y="877" on="0"/>
        <pt x="307" y="877" on="0"/>
        <pt x="370" y="814" on="0"/>
        <pt x="370" y="770" on="1"/>
        <pt x="370" y="728" on="0"/>
        <pt x="341" y="697" on="1"/>
      </contour>
      <contour>
        <pt x="319" y="300" on="1"/>
        <pt x="262" y="516" on="1"/>
        <pt x="210" y="300" on="1"/>
      </contour>
      <contour>
        <pt x="250" y="740" on="0"/>
        <pt x="276" y="740" on="0"/>
        <pt x="292" y="757" on="0"/>
        <pt x="292" y="783" on="0"/>
        <pt x="276" y="799" on="0"/>
        <pt x="250" y="799" on="0"/>
        <pt x="233" y="783" on="0"/>
        <pt x="233" y="757" on="0"/>
      </contour>
    </TTGlyph>
    <TTGlyph name="Atilde" xMin="21" yMin="0" xMax="517" yMax="852">
      <contour>
        <pt x="517" y="0" on="1"/>
        <pt x="386" y="0" on="1"/>
        <pt x="345" y="183" on="1"/>
        <pt x="184" y="183" on="1"/>
        <pt x="145" y="0" on="1"/>
        <pt x="21" y="0" on="1"/>
        <pt x="185" y="700" on="1"/>
        <pt x="340" y="700" on="1"/>
      </contour>
      <contour>
        <pt x="319" y="300" on="1"/>
        <pt x="262" y="516" on="1"/>
        <pt x="210" y="300" on="1"/>
      </contour>
      <contour>
        <pt x="405" y="846" on="1"/>
        <pt x="447" y="781" on="1"/>
        <pt x="413" y="741" on="0"/>
        <pt x="379" y="732" on="1"/>
        <pt x="364" y="728" on="0"/>
        <pt x="351" y="728" on="1"/>
        <pt x="333" y="728" on="0"/>
        <pt x="316" y="735" on="1"/>
        <pt x="287" y="747" on="0"/>
        <pt x="258" y="760" on="1"/>
        <pt x="236" y="770" on="0"/>
        <pt x="211" y="770" on="1"/>
        <pt x="204" y="770" on="0"/>
        <pt x="198" y="770" on="1"/>
        <pt x="165" y="766" on="0"/>
        <pt x="135" y="734" on="1"/>
        <pt x="96" y="799" on="1"/>
        <pt x="131" y="838" on="0"/>
        <pt x="166" y="848" on="1"/>
        <pt x="182" y="852" on="0"/>
        <pt x="196" y="852" on="1"/>
        <pt x="214" y="852" on="0"/>
        <pt x="230" y="846" on="1"/>
        <pt x="259" y="834" on="0"/>
        <pt x="288" y="822" on="1"/>
        <pt x="310" y="811" on="0"/>
        <pt x="335" y="811" on="1"/>
        <pt x="341" y="811" on="0"/>
        <pt x="346" y="812" on="1"/>
        <pt x="377" y="815" on="0"/>
      </contour>
    </TTGlyph>
    <TTGlyph name="B" xMin="78" yMin="0" xMax="511" yMax="700">
      <contour>
        <pt x="297" y="0" on="1"/>
        <pt x="78" y="0" on="1"/>
        <pt x="78" y="700" on="1"/>
        <pt x="282" y="700" on="1"/>
        <pt x="365" y="700" on="0"/>
        <pt x="475" y="608" on="0"/>
        <pt x="475" y="523" on="1"/>
        <pt x="475" y="429" on="0"/>
        <pt x="409" y="384" on="1"/>
        <pt x="408" y="383" on="0"/>
        <pt x="408" y="382" on="1"/>
        <pt x="408" y="381" on="1"/>
        <pt x="452" y="361" on="0"/>
        <pt x="511" y="273" on="0"/>
        <pt x="511" y="205" on="1"/>
        <pt x="511" y="167" on="0"/>
        <pt x="489" y="98" on="0"/>
        <pt x="441" y="37" on="0"/>
        <pt x="355" y="0" on="0"/>
      </contour>
      <contour>
        <pt x="188" y="413" on="1"/>
        <pt x="236" y="413" on="1"/>
        <pt x="293" y="413" on="0"/>
        <pt x="347" y="455" on="0"/>
        <pt x="347" y="506" on="1"/>
        <pt x="347" y="553" on="0"/>
        <pt x="297" y="590" on="0"/>
        <pt x="246" y="590" on="1"/>
        <pt x="188" y="590" on="1"/>
      </contour>
      <contour>
        <pt x="188" y="101" on="1"/>
        <pt x="249" y="101" on="1"/>
        <pt x="318" y="101" on="0"/>
        <pt x="385" y="142" on="0"/>
        <pt x="385" y="207" on="1"/>
        <pt x="385" y="307" on="0"/>
        <pt x="258" y="307" on="1"/>
        <pt x="188" y="307" on="1"/>
      </contour>
    </TTGlyph>
    <TTGlyph name="Beta" xMin="78" yMin="0" xMax="511" yMax="700">
      <contour>
        <pt x="297" y="0" on="1"/>
        <pt x="78" y="0" on="1"/>
        <pt x="78" y="700" on="1"/>
        <pt x="282" y="700" on="1"/>
        <pt x="365" y="700" on="0"/>
        <pt x="475" y="608" on="0"/>
        <pt x="475" y="523" on="1"/>
        <pt x="475" y="429" on="0"/>
        <pt x="409" y="384" on="1"/>
        <pt x="408" y="383" on="0"/>
        <pt x="408" y="382" on="1"/>
        <pt x="408" y="381" on="1"/>
        <pt x="452" y="361" on="0"/>
        <pt x="511" y="273" on="0"/>
        <pt x="511" y="205" on="1"/>
        <pt x="511" y="167" on="0"/>
        <pt x="489" y="98" on="0"/>
        <pt x="441" y="37" on="0"/>
        <pt x="355" y="0" on="0"/>
      </contour>
      <contour>
        <pt x="188" y="413" on="1"/>
        <pt x="236" y="413" on="1"/>
        <pt x="293" y="413" on="0"/>
        <pt x="347" y="455" on="0"/>
        <pt x="347" y="506" on="1"/>
        <pt x="347" y="553" on="0"/>
        <pt x="297" y="590" on="0"/>
        <pt x="246" y="590" on="1"/>
        <pt x="188" y="590" on="1"/>
      </contour>
      <contour>
        <pt x="188" y="101" on="1"/>
        <pt x="249" y="101" on="1"/>
        <pt x="318" y="101" on="0"/>
        <pt x="385" y="142" on="0"/>
        <pt x="385" y="207" on="1"/>
        <pt x="385" y="307" on="0"/>
        <pt x="258" y="307" on="1"/>
        <pt x="188" y="307" on="1"/>
      </contour>
    </TTGlyph>
    <TTGlyph name="C" xMin="66" yMin="-10" xMax="427" yMax="710">
      <contour>
        <pt x="410" y="127" on="1"/>
        <pt x="427" y="23" on="1"/>
        <pt x="378" y="4" on="0"/>
        <pt x="329" y="-4" on="1"/>
        <pt x="297" y="-10" on="0"/>
        <pt x="265" y="-10" on="1"/>
        <pt x="249" y="-10" on="0"/>
        <pt x="232" y="-8" on="1"/>
        <pt x="184" y="-4" on="0"/>
        <pt x="111" y="35" on="0"/>
        <pt x="66" y="120" on="0"/>
        <pt x="66" y="183" on="1"/>
        <pt x="66" y="504" on="1"/>
        <pt x="66" y="580" on="0"/>
        <pt x="109" y="658" on="0"/>
        <pt x="153" y="685" on="1"/>
        <pt x="198" y="710" on="0"/>
        <pt x="260" y="710" on="1"/>
        <pt x="266" y="710" on="0"/>
        <pt x="273" y="710" on="1"/>
        <pt x="343" y="707" on="0"/>
        <pt x="402" y="677" on="1"/>
        <pt x="371" y="577" on="1"/>
        <pt x="325" y="594" on="0"/>
        <pt x="270" y="594" on="1"/>
        <pt x="228" y="594" on="0"/>
        <pt x="176" y="548" on="0"/>
        <pt x="176" y="513" on="1"/>
        <pt x="176" y="185" on="1"/>
        <pt x="176" y="167" on="0"/>
        <pt x="184" y="138" on="0"/>
        <pt x="202" y="120" on="0"/>
        <pt x="220" y="106" on="0"/>
        <pt x="252" y="102" on="0"/>
        <pt x="274" y="99" on="0"/>
        <pt x="313" y="105" on="0"/>
        <pt x="335" y="108" on="0"/>
        <pt x="376" y="118" on="0"/>
        <pt x="392" y="122" on="0"/>
      </contour>
    </TTGlyph>
    <TTGlyph name="Cacute" xMin="66" yMin="-10" xMax="427" yMax="876">
      <contour>
        <pt x="410" y="127" on="1"/>
        <pt x="427" y="23" on="1"/>
        <pt x="378" y="4" on="0"/>
        <pt x="329" y="-4" on="1"/>
        <pt x="297" y="-10" on="0"/>
        <pt x="265" y="-10" on="1"/>
        <pt x="249" y="-10" on="0"/>
        <pt x="232" y="-8" on="1"/>
        <pt x="184" y="-4" on="0"/>
        <pt x="111" y="35" on="0"/>
        <pt x="66" y="120" on="0"/>
        <pt x="66" y="183" on="1"/>
        <pt x="66" y="504" on="1"/>
        <pt x="66" y="580" on="0"/>
        <pt x="109" y="658" on="0"/>
        <pt x="153" y="685" on="1"/>
        <pt x="198" y="710" on="0"/>
        <pt x="260" y="710" on="1"/>
        <pt x="266" y="710" on="0"/>
        <pt x="273" y="710" on="1"/>
        <pt x="343" y="707" on="0"/>
        <pt x="402" y="677" on="1"/>
        <pt x="371" y="577" on="1"/>
        <pt x="325" y="594" on="0"/>
        <pt x="270" y="594" on="1"/>
        <pt x="228" y="594" on="0"/>
        <pt x="176" y="548" on="0"/>
        <pt x="176" y="513" on="1"/>
        <pt x="176" y="185" on="1"/>
        <pt x="176" y="167" on="0"/>
        <pt x="184" y="138" on="0"/>
        <pt x="202" y="120" on="0"/>
        <pt x="220" y="106" on="0"/>
        <pt x="252" y="102" on="0"/>
        <pt x="274" y="99" on="0"/>
        <pt x="313" y="105" on="0"/>
        <pt x="335" y="108" on="0"/>
        <pt x="376" y="118" on="0"/>
        <pt x="392" y="122" on="0"/>
      </contour>
      <contour>
        <pt x="297" y="734" on="1"/>
        <pt x="224" y="734" on="1"/>
        <pt x="270" y="842" on="1"/>
        <pt x="280" y="865" on="0"/>
        <pt x="303" y="872" on="1"/>
        <pt x="314" y="876" on="0"/>
        <pt x="322" y="876" on="1"/>
        <pt x="331" y="876" on="0"/>
        <pt x="337" y="872" on="1"/>
        <pt x="357" y="862" on="0"/>
        <pt x="361" y="842" on="1"/>
        <pt x="362" y="839" on="0"/>
        <pt x="362" y="836" on="1"/>
        <pt x="362" y="818" on="0"/>
        <pt x="346" y="797" on="1"/>
      </contour>
    </TTGlyph>
    <TTGlyph name="Ccaron" xMin="66" yMin="-10" xMax="427" yMax="914">
      <contour>
        <pt x="410" y="127" on="1"/>
        <pt x="427" y="23" on="1"/>
        <pt x="378" y="4" on="0"/>
        <pt x="329" y="-4" on="1"/>
        <pt x="297" y="-10" on="0"/>
        <pt x="265" y="-10" on="1"/>
        <pt x="249" y="-10" on="0"/>
        <pt x="232" y="-8" on="1"/>
        <pt x="184" y="-4" on="0"/>
        <pt x="111" y="35" on="0"/>
        <pt x="66" y="120" on="0"/>
        <pt x="66" y="183" on="1"/>
        <pt x="66" y="504" on="1"/>
        <pt x="66" y="580" on="0"/>
        <pt x="109" y="658" on="0"/>
        <pt x="153" y="685" on="1"/>
        <pt x="198" y="710" on="0"/>
        <pt x="260" y="710" on="1"/>
        <pt x="266" y="710" on="0"/>
        <pt x="273" y="710" on="1"/>
        <pt x="343" y="707" on="0"/>
        <pt x="402" y="677" on="1"/>
        <pt x="371" y="577" on="1"/>
        <pt x="325" y="594" on="0"/>
        <pt x="270" y="594" on="1"/>
        <pt x="228" y="594" on="0"/>
        <pt x="176" y="548" on="0"/>
        <pt x="176" y="513" on="1"/>
        <pt x="176" y="185" on="1"/>
        <pt x="176" y="167" on="0"/>
        <pt x="184" y="138" on="0"/>
        <pt x="202" y="120" on="0"/>
        <pt x="220" y="106" on="0"/>
        <pt x="252" y="102" on="0"/>
        <pt x="274" y="99" on="0"/>
        <pt x="313" y="105" on="0"/>
        <pt x="335" y="108" on="0"/>
        <pt x="376" y="118" on="0"/>
        <pt x="392" y="122" on="0"/>
      </contour>
      <contour>
        <pt x="398" y="875" on="1"/>
        <pt x="256" y="734" on="1"/>
        <pt x="108" y="875" on="1"/>
        <pt x="174" y="914" on="1"/>
        <pt x="255" y="831" on="1"/>
        <pt x="331" y="914" on="1"/>
      </contour>
    </TTGlyph>
    <TTGlyph name="Ccedilla" xMin="66" yMin="-232" xMax="427" yMax="710">
      <contour>
        <pt x="125" y="-211" on="1"/>
        <pt x="159" y="-138" on="1"/>
        <pt x="196" y="-163" on="0"/>
        <pt x="237" y="-163" on="1"/>
        <pt x="261" y="-163" on="0"/>
        <pt x="297" y="-144" on="0"/>
        <pt x="297" y="-102" on="0"/>
        <pt x="277" y="-96" on="1"/>
        <pt x="272" y="-94" on="0"/>
        <pt x="265" y="-94" on="1"/>
        <pt x="247" y="-94" on="0"/>
        <pt x="222" y="-106" on="1"/>
        <pt x="178" y="-128" on="1"/>
        <pt x="143" y="-78" on="1"/>
        <pt x="201" y="-4" on="1"/>
        <pt x="66" y="25" on="0"/>
        <pt x="66" y="183" on="1"/>
        <pt x="66" y="504" on="1"/>
        <pt x="66" y="580" on="0"/>
        <pt x="109" y="658" on="0"/>
        <pt x="153" y="685" on="1"/>
        <pt x="198" y="710" on="0"/>
        <pt x="260" y="710" on="1"/>
        <pt x="266" y="710" on="0"/>
        <pt x="273" y="710" on="1"/>
        <pt x="343" y="707" on="0"/>
        <pt x="402" y="677" on="1"/>
        <pt x="371" y="577" on="1"/>
        <pt x="325" y="594" on="0"/>
        <pt x="270" y="594" on="1"/>
        <pt x="228" y="594" on="0"/>
        <pt x="176" y="548" on="0"/>
        <pt x="176" y="513" on="1"/>
        <pt x="176" y="185" on="1"/>
        <pt x="176" y="167" on="0"/>
        <pt x="184" y="138" on="0"/>
        <pt x="202" y="120" on="0"/>
        <pt x="220" y="106" on="0"/>
        <pt x="252" y="102" on="0"/>
        <pt x="274" y="99" on="0"/>
        <pt x="313" y="105" on="0"/>
        <pt x="335" y="108" on="0"/>
        <pt x="376" y="118" on="0"/>
        <pt x="392" y="122" on="0"/>
        <pt x="410" y="127" on="1"/>
        <pt x="427" y="23" on="1"/>
        <pt x="345" y="-9" on="0"/>
        <pt x="266" y="-10" on="1"/>
        <pt x="247" y="-38" on="1"/>
        <pt x="266" y="-31" on="0"/>
        <pt x="281" y="-31" on="1"/>
        <pt x="315" y="-31" on="0"/>
        <pt x="367" y="-80" on="0"/>
        <pt x="367" y="-123" on="1"/>
        <pt x="367" y="-178" on="0"/>
        <pt x="278" y="-232" on="0"/>
        <pt x="227" y="-232" on="1"/>
        <pt x="182" y="-232" on="0"/>
      </contour>
    </TTGlyph>
    <TTGlyph name="Ccircumflex" xMin="66" yMin="-10" xMax="427" yMax="911">
      <contour>
        <pt x="392" y="770" on="1"/>
        <pt x="325" y="731" on="1"/>
        <pt x="249" y="814" on="1"/>
        <pt x="168" y="731" on="1"/>
        <pt x="102" y="770" on="1"/>
        <pt x="250" y="911" on="1"/>
      </contour>
      <contour>
        <pt x="410" y="127" on="1"/>
        <pt x="427" y="23" on="1"/>
        <pt x="378" y="4" on="0"/>
        <pt x="329" y="-4" on="1"/>
        <pt x="297" y="-10" on="0"/>
        <pt x="265" y="-10" on="1"/>
        <pt x="249" y="-10" on="0"/>
        <pt x="232" y="-8" on="1"/>
        <pt x="184" y="-4" on="0"/>
        <pt x="111" y="35" on="0"/>
        <pt x="66" y="120" on="0"/>
        <pt x="66" y="183" on="1"/>
        <pt x="66" y="504" on="1"/>
        <pt x="66" y="580" on="0"/>
        <pt x="109" y="658" on="0"/>
        <pt x="153" y="685" on="1"/>
        <pt x="198" y="710" on="0"/>
        <pt x="260" y="710" on="1"/>
        <pt x="266" y="710" on="0"/>
        <pt x="273" y="710" on="1"/>
        <pt x="343" y="707" on="0"/>
        <pt x="402" y="677" on="1"/>
        <pt x="371" y="577" on="1"/>
        <pt x="325" y="594" on="0"/>
        <pt x="270" y="594" on="1"/>
        <pt x="228" y="594" on="0"/>
        <pt x="176" y="548" on="0"/>
        <pt x="176" y="513" on="1"/>
        <pt x="176" y="185" on="1"/>
        <pt x="176" y="167" on="0"/>
        <pt x="184" y="138" on="0"/>
        <pt x="202" y="120" on="0"/>
        <pt x="220" y="106" on="0"/>
        <pt x="252" y="102" on="0"/>
        <pt x="274" y="99" on="0"/>
        <pt x="313" y="105" on="0"/>
        <pt x="335" y="108" on="0"/>
        <pt x="376" y="118" on="0"/>
        <pt x="392" y="122" on="0"/>
      </contour>
    </TTGlyph>
    <TTGlyph name="Cdotaccent" xMin="66" yMin="-10" xMax="427" yMax="848">
      <contour>
        <pt x="410" y="127" on="1"/>
        <pt x="427" y="23" on="1"/>
        <pt x="378" y="4" on="0"/>
        <pt x="329" y="-4" on="1"/>
        <pt x="297" y="-10" on="0"/>
        <pt x="265" y="-10" on="1"/>
        <pt x="249" y="-10" on="0"/>
        <pt x="232" y="-8" on="1"/>
        <pt x="184" y="-4" on="0"/>
        <pt x="111" y="35" on="0"/>
        <pt x="66" y="120" on="0"/>
        <pt x="66" y="183" on="1"/>
        <pt x="66" y="504" on="1"/>
        <pt x="66" y="580" on="0"/>
        <pt x="109" y="658" on="0"/>
        <pt x="153" y="685" on="1"/>
        <pt x="198" y="710" on="0"/>
        <pt x="260" y="710" on="1"/>
        <pt x="266" y="710" on="0"/>
        <pt x="273" y="710" on="1"/>
        <pt x="343" y="707" on="0"/>
        <pt x="402" y="677" on="1"/>
        <pt x="371" y="577" on="1"/>
        <pt x="325" y="594" on="0"/>
        <pt x="270" y="594" on="1"/>
        <pt x="228" y="594" on="0"/>
        <pt x="176" y="548" on="0"/>
        <pt x="176" y="513" on="1"/>
        <pt x="176" y="185" on="1"/>
        <pt x="176" y="167" on="0"/>
        <pt x="184" y="138" on="0"/>
        <pt x="202" y="120" on="0"/>
        <pt x="220" y="106" on="0"/>
        <pt x="252" y="102" on="0"/>
        <pt x="274" y="99" on="0"/>
        <pt x="313" y="105" on="0"/>
        <pt x="335" y="108" on="0"/>
        <pt x="376" y="118" on="0"/>
        <pt x="392" y="122" on="0"/>
      </contour>
      <contour>
        <pt x="266" y="730" on="1"/>
        <pt x="242" y="730" on="0"/>
        <pt x="206" y="766" on="0"/>
        <pt x="206" y="790" on="1"/>
        <pt x="206" y="813" on="0"/>
        <pt x="242" y="848" on="0"/>
        <pt x="266" y="848" on="1"/>
        <pt x="289" y="848" on="0"/>
        <pt x="324" y="813" on="0"/>
        <pt x="324" y="790" on="1"/>
        <pt x="324" y="766" on="0"/>
        <pt x="289" y="730" on="0"/>
      </contour>
    </TTGlyph>
    <TTGlyph name="Chi" xMin="78" yMin="0" xMax="655" yMax="700">
      <contour>
        <pt x="655" y="0" on="1"/>
        <pt x="514" y="0" on="1"/>
        <pt x="362" y="244" on="1"/>
        <pt x="215" y="0" on="1"/>
        <pt x="78" y="0" on="1"/>
        <pt x="296" y="350" on="1"/>
        <pt x="90" y="700" on="1"/>
        <pt x="220" y="700" on="1"/>
        <pt x="367" y="468" on="1"/>
        <pt x="507" y="700" on="1"/>
        <pt x="638" y="700" on="1"/>
        <pt x="433" y="359" on="1"/>
      </contour>
    </TTGlyph>
    <TTGlyph name="D" xMin="78" yMin="0" xMax="498" yMax="701">
      <contour>
        <pt x="286" y="0" on="1"/>
        <pt x="78" y="0" on="1"/>
        <pt x="78" y="701" on="1"/>
        <pt x="266" y="701" on="1"/>
        <pt x="379" y="701" on="0"/>
        <pt x="498" y="577" on="0"/>
        <pt x="498" y="474" on="1"/>
        <pt x="498" y="200" on="1"/>
        <pt x="498" y="0" on="0"/>
      </contour>
      <contour>
        <pt x="388" y="190" on="1"/>
        <pt x="388" y="484" on="1"/>
        <pt x="388" y="539" on="0"/>
        <pt x="333" y="590" on="0"/>
        <pt x="276" y="590" on="1"/>
        <pt x="188" y="590" on="1"/>
        <pt x="188" y="101" on="1"/>
        <pt x="270" y="101" on="1"/>
        <pt x="295" y="101" on="0"/>
        <pt x="329" y="106" on="0"/>
        <pt x="368" y="122" on="0"/>
        <pt x="388" y="160" on="0"/>
      </contour>
    </TTGlyph>
    <TTGlyph name="Dcaron" xMin="78" yMin="0" xMax="498" yMax="914">
      <contour>
        <pt x="286" y="0" on="1"/>
        <pt x="78" y="0" on="1"/>
        <pt x="78" y="701" on="1"/>
        <pt x="266" y="701" on="1"/>
        <pt x="379" y="701" on="0"/>
        <pt x="498" y="577" on="0"/>
        <pt x="498" y="474" on="1"/>
        <pt x="498" y="200" on="1"/>
        <pt x="498" y="0" on="0"/>
      </contour>
      <contour>
        <pt x="388" y="190" on="1"/>
        <pt x="388" y="484" on="1"/>
        <pt x="388" y="539" on="0"/>
        <pt x="333" y="590" on="0"/>
        <pt x="276" y="590" on="1"/>
        <pt x="188" y="590" on="1"/>
        <pt x="188" y="101" on="1"/>
        <pt x="270" y="101" on="1"/>
        <pt x="295" y="101" on="0"/>
        <pt x="329" y="106" on="0"/>
        <pt x="368" y="122" on="0"/>
        <pt x="388" y="160" on="0"/>
      </contour>
      <contour>
        <pt x="416" y="875" on="1"/>
        <pt x="274" y="734" on="1"/>
        <pt x="126" y="875" on="1"/>
        <pt x="192" y="914" on="1"/>
        <pt x="273" y="831" on="1"/>
        <pt x="349" y="914" on="1"/>
      </contour>
    </TTGlyph>
    <TTGlyph name="Dcroat" xMin="78" yMin="0" xMax="498" yMax="821">
      <contour>
        <pt x="286" y="0" on="1"/>
        <pt x="78" y="0" on="1"/>
        <pt x="78" y="701" on="1"/>
        <pt x="266" y="701" on="1"/>
        <pt x="379" y="701" on="0"/>
        <pt x="498" y="577" on="0"/>
        <pt x="498" y="474" on="1"/>
        <pt x="498" y="200" on="1"/>
        <pt x="498" y="0" on="0"/>
      </contour>
      <contour>
        <pt x="388" y="190" on="1"/>
        <pt x="388" y="484" on="1"/>
        <pt x="388" y="539" on="0"/>
        <pt x="333" y="590" on="0"/>
        <pt x="276" y="590" on="1"/>
        <pt x="188" y="590" on="1"/>
        <pt x="188" y="101" on="1"/>
        <pt x="270" y="101" on="1"/>
        <pt x="295" y="101" on="0"/>
        <pt x="329" y="106" on="0"/>
        <pt x="368" y="122" on="0"/>
        <pt x="388" y="160" on="0"/>
      </contour>
      <contour>
        <pt x="392" y="730" on="1"/>
        <pt x="175" y="730" on="1"/>
        <pt x="175" y="821" on="1"/>
        <pt x="392" y="821" on="1"/>
      </contour>
    </TTGlyph>
    <TTGlyph name="Delta" xMin="78" yMin="0" xMax="583" yMax="700">
      <contour>
        <pt x="583" y="0" on="1"/>
        <pt x="78" y="0" on="1"/>
        <pt x="269" y="700" on="1"/>
        <pt x="379" y="700" on="1"/>
      </contour>
      <contour>
        <pt x="434" y="101" on="1"/>
        <pt x="329" y="482" on="1"/>
        <pt x="227" y="101" on="1"/>
      </contour>
    </TTGlyph>
    <TTGlyph name="E" xMin="78" yMin="0" xMax="412" yMax="700">
      <contour>
        <pt x="410" y="0" on="1"/>
        <pt x="78" y="0" on="1"/>
        <pt x="78" y="700" on="1"/>
        <pt x="412" y="700" on="1"/>
        <pt x="412" y="590" on="1"/>
        <pt x="188" y="590" on="1"/>
        <pt x="188" y="413" on="1"/>
        <pt x="325" y="413" on="1"/>
        <pt x="294" y="308" on="1"/>
        <pt x="188" y="308" on="1"/>
        <pt x="188" y="100" on="1"/>
        <pt x="410" y="100" on="1"/>
      </contour>
    </TTGlyph>
    <TTGlyph name="Eacute" xMin="78" yMin="0" xMax="412" yMax="872">
      <contour>
        <pt x="410" y="0" on="1"/>
        <pt x="78" y="0" on="1"/>
        <pt x="78" y="700" on="1"/>
        <pt x="412" y="700" on="1"/>
        <pt x="412" y="590" on="1"/>
        <pt x="188" y="590" on="1"/>
        <pt x="188" y="413" on="1"/>
        <pt x="325" y="413" on="1"/>
        <pt x="294" y="308" on="1"/>
        <pt x="188" y="308" on="1"/>
        <pt x="188" y="100" on="1"/>
        <pt x="410" y="100" on="1"/>
      </contour>
      <contour>
        <pt x="310" y="730" on="1"/>
        <pt x="237" y="730" on="1"/>
        <pt x="283" y="838" on="1"/>
        <pt x="293" y="861" on="0"/>
        <pt x="316" y="868" on="1"/>
        <pt x="327" y="872" on="0"/>
        <pt x="335" y="872" on="1"/>
        <pt x="344" y="872" on="0"/>
        <pt x="350" y="868" on="1"/>
        <pt x="370" y="858" on="0"/>
        <pt x="374" y="838" on="1"/>
        <pt x="375" y="835" on="0"/>
        <pt x="375" y="832" on="1"/>
        <pt x="375" y="814" on="0"/>
        <pt x="359" y="793" on="1"/>
      </contour>
    </TTGlyph>
    <TTGlyph name="Ecaron" xMin="78" yMin="0" xMax="412" yMax="914">
      <contour>
        <pt x="410" y="0" on="1"/>
        <pt x="78" y="0" on="1"/>
        <pt x="78" y="700" on="1"/>
        <pt x="412" y="700" on="1"/>
        <pt x="412" y="590" on="1"/>
        <pt x="188" y="590" on="1"/>
        <pt x="188" y="413" on="1"/>
        <pt x="325" y="413" on="1"/>
        <pt x="294" y="308" on="1"/>
        <pt x="188" y="308" on="1"/>
        <pt x="188" y="100" on="1"/>
        <pt x="410" y="100" on="1"/>
      </contour>
      <contour>
        <pt x="393" y="875" on="1"/>
        <pt x="251" y="734" on="1"/>
        <pt x="103" y="875" on="1"/>
        <pt x="169" y="914" on="1"/>
        <pt x="250" y="831" on="1"/>
        <pt x="326" y="914" on="1"/>
      </contour>
    </TTGlyph>
    <TTGlyph name="Ecircumflex" xMin="78" yMin="0" xMax="412" yMax="911">
      <contour>
        <pt x="410" y="0" on="1"/>
        <pt x="78" y="0" on="1"/>
        <pt x="78" y="700" on="1"/>
        <pt x="412" y="700" on="1"/>
        <pt x="412" y="590" on="1"/>
        <pt x="188" y="590" on="1"/>
        <pt x="188" y="413" on="1"/>
        <pt x="325" y="413" on="1"/>
        <pt x="294" y="308" on="1"/>
        <pt x="188" y="308" on="1"/>
        <pt x="188" y="100" on="1"/>
        <pt x="410" y="100" on="1"/>
      </contour>
      <contour>
        <pt x="392" y="770" on="1"/>
        <pt x="325" y="731" on="1"/>
        <pt x="249" y="814" on="1"/>
        <pt x="168" y="731" on="1"/>
        <pt x="102" y="770" on="1"/>
        <pt x="250" y="911" on="1"/>
      </contour>
    </TTGlyph>
    <TTGlyph name="Edieresis" xMin="78" yMin="0" xMax="412" yMax="821">
      <contour>
        <pt x="410" y="0" on="1"/>
        <pt x="78" y="0" on="1"/>
        <pt x="78" y="700" on="1"/>
        <pt x="412" y="700" on="1"/>
        <pt x="412" y="590" on="1"/>
        <pt x="188" y="590" on="1"/>
        <pt x="188" y="413" on="1"/>
        <pt x="325" y="413" on="1"/>
        <pt x="294" y="308" on="1"/>
        <pt x="188" y="308" on="1"/>
        <pt x="188" y="100" on="1"/>
        <pt x="410" y="100" on="1"/>
      </contour>
      <contour>
        <pt x="220" y="775" on="1"/>
        <pt x="220" y="757" on="0"/>
        <pt x="194" y="731" on="0"/>
        <pt x="175" y="731" on="1"/>
        <pt x="157" y="731" on="0"/>
        <pt x="131" y="757" on="0"/>
        <pt x="131" y="775" on="1"/>
        <pt x="131" y="794" on="0"/>
        <pt x="157" y="820" on="0"/>
        <pt x="175" y="820" on="1"/>
        <pt x="194" y="820" on="0"/>
        <pt x="220" y="794" on="0"/>
      </contour>
      <contour>
        <pt x="327" y="731" on="0"/>
        <pt x="289" y="731" on="0"/>
        <pt x="263" y="757" on="0"/>
        <pt x="263" y="795" on="0"/>
        <pt x="289" y="821" on="0"/>
        <pt x="327" y="821" on="0"/>
        <pt x="353" y="795" on="0"/>
        <pt x="353" y="757" on="0"/>
      </contour>
    </TTGlyph>
    <TTGlyph name="Edotaccent" xMin="78" yMin="0" xMax="412" yMax="848">
      <contour>
        <pt x="410" y="0" on="1"/>
        <pt x="78" y="0" on="1"/>
        <pt x="78" y="700" on="1"/>
        <pt x="412" y="700" on="1"/>
        <pt x="412" y="590" on="1"/>
        <pt x="188" y="590" on="1"/>
        <pt x="188" y="413" on="1"/>
        <pt x="325" y="413" on="1"/>
        <pt x="294" y="308" on="1"/>
        <pt x="188" y="308" on="1"/>
        <pt x="188" y="100" on="1"/>
        <pt x="410" y="100" on="1"/>
      </contour>
      <contour>
        <pt x="256" y="730" on="1"/>
        <pt x="232" y="730" on="0"/>
        <pt x="196" y="766" on="0"/>
        <pt x="196" y="790" on="1"/>
        <pt x="196" y="813" on="0"/>
        <pt x="232" y="848" on="0"/>
        <pt x="256" y="848" on="1"/>
        <pt x="279" y="848" on="0"/>
        <pt x="314" y="813" on="0"/>
        <pt x="314" y="790" on="1"/>
        <pt x="314" y="766" on="0"/>
        <pt x="279" y="730" on="0"/>
      </contour>
    </TTGlyph>
    <TTGlyph name="Egrave" xMin="78" yMin="0" xMax="412" yMax="874">
      <contour>
        <pt x="410" y="0" on="1"/>
        <pt x="78" y="0" on="1"/>
        <pt x="78" y="700" on="1"/>
        <pt x="412" y="700" on="1"/>
        <pt x="412" y="590" on="1"/>
        <pt x="188" y="590" on="1"/>
        <pt x="188" y="413" on="1"/>
        <pt x="325" y="413" on="1"/>
        <pt x="294" y="308" on="1"/>
        <pt x="188" y="308" on="1"/>
        <pt x="188" y="100" on="1"/>
        <pt x="410" y="100" on="1"/>
      </contour>
      <contour>
        <pt x="280" y="732" on="1"/>
        <pt x="207" y="732" on="1"/>
        <pt x="158" y="795" on="1"/>
        <pt x="142" y="816" on="0"/>
        <pt x="142" y="834" on="1"/>
        <pt x="142" y="837" on="0"/>
        <pt x="143" y="840" on="1"/>
        <pt x="147" y="860" on="0"/>
        <pt x="167" y="870" on="1"/>
        <pt x="173" y="874" on="0"/>
        <pt x="182" y="874" on="1"/>
        <pt x="190" y="874" on="0"/>
        <pt x="201" y="870" on="1"/>
        <pt x="224" y="863" on="0"/>
        <pt x="234" y="840" on="1"/>
      </contour>
    </TTGlyph>
    <TTGlyph name="Emacron" xMin="78" yMin="0" xMax="412" yMax="821">
      <contour>
        <pt x="410" y="0" on="1"/>
        <pt x="78" y="0" on="1"/>
        <pt x="78" y="700" on="1"/>
        <pt x="412" y="700" on="1"/>
        <pt x="412" y="590" on="1"/>
        <pt x="188" y="590" on="1"/>
        <pt x="188" y="413" on="1"/>
        <pt x="325" y="413" on="1"/>
        <pt x="294" y="308" on="1"/>
        <pt x="188" y="308" on="1"/>
        <pt x="188" y="100" on="1"/>
        <pt x="410" y="100" on="1"/>
      </contour>
      <contour>
        <pt x="352" y="730" on="1"/>
        <pt x="135" y="730" on="1"/>
        <pt x="135" y="821" on="1"/>
        <pt x="352" y="821" on="1"/>
      </contour>
    </TTGlyph>
    <TTGlyph name="Eng" xMin="78" yMin="-37" xMax="570" yMax="700">
      <contour>
        <pt x="459" y="230" on="1"/>
        <pt x="459" y="592" on="1"/>
        <pt x="402" y="594" on="1"/>
        <pt x="402" y="700" on="1"/>
        <pt x="570" y="700" on="1"/>
        <pt x="570" y="163" on="1"/>
        <pt x="570" y="62" on="0"/>
        <pt x="464" y="-36" on="0"/>
        <pt x="393" y="-37" on="1"/>
        <pt x="387" y="-21" on="0"/>
        <pt x="363" y="41" on="0"/>
        <pt x="357" y="57" on="1"/>
        <pt x="396" y="57" on="0"/>
        <pt x="419" y="69" on="1"/>
        <pt x="243" y="374" on="0"/>
        <pt x="188" y="473" on="1"/>
        <pt x="188" y="0" on="1"/>
        <pt x="78" y="0" on="1"/>
        <pt x="78" y="700" on="1"/>
        <pt x="188" y="700" on="1"/>
        <pt x="233" y="622" on="0"/>
        <pt x="414" y="309" on="0"/>
      </contour>
    </TTGlyph>
    <TTGlyph name="Eogonek" xMin="78" yMin="-213" xMax="444" yMax="700">
      <contour>
        <pt x="395" y="-110" on="1"/>
        <pt x="444" y="-163" on="1"/>
        <pt x="426" y="-191" on="0"/>
        <pt x="375" y="-213" on="0"/>
        <pt x="334" y="-213" on="1"/>
        <pt x="318" y="-213" on="0"/>
        <pt x="279" y="-197" on="0"/>
        <pt x="262" y="-174" on="1"/>
        <pt x="247" y="-152" on="0"/>
        <pt x="247" y="-124" on="1"/>
        <pt x="247" y="-120" on="0"/>
        <pt x="247" y="-117" on="1"/>
        <pt x="250" y="-55" on="0"/>
        <pt x="340" y="0" on="1"/>
        <pt x="78" y="0" on="1"/>
        <pt x="78" y="700" on="1"/>
        <pt x="412" y="700" on="1"/>
        <pt x="412" y="590" on="1"/>
        <pt x="188" y="590" on="1"/>
        <pt x="188" y="413" on="1"/>
        <pt x="325" y="413" on="1"/>
        <pt x="294" y="308" on="1"/>
        <pt x="188" y="308" on="1"/>
        <pt x="188" y="100" on="1"/>
        <pt x="410" y="100" on="1"/>
        <pt x="410" y="0" on="1"/>
        <pt x="409" y="0" on="1"/>
        <pt x="319" y="-74" on="0"/>
        <pt x="319" y="-116" on="1"/>
        <pt x="319" y="-119" on="0"/>
        <pt x="319" y="-121" on="1"/>
        <pt x="323" y="-145" on="0"/>
        <pt x="352" y="-145" on="1"/>
        <pt x="361" y="-145" on="0"/>
        <pt x="386" y="-128" on="0"/>
      </contour>
    </TTGlyph>
    <TTGlyph name="Epsilon" xMin="78" yMin="0" xMax="412" yMax="700">
      <contour>
        <pt x="410" y="0" on="1"/>
        <pt x="78" y="0" on="1"/>
        <pt x="78" y="700" on="1"/>
        <pt x="412" y="700" on="1"/>
        <pt x="412" y="590" on="1"/>
        <pt x="188" y="590" on="1"/>
        <pt x="188" y="413" on="1"/>
        <pt x="325" y="413" on="1"/>
        <pt x="294" y="308" on="1"/>
        <pt x="188" y="308" on="1"/>
        <pt x="188" y="100" on="1"/>
        <pt x="410" y="100" on="1"/>
      </contour>
    </TTGlyph>
    <TTGlyph name="Epsilontonos" xMin="78" yMin="0" xMax="579" yMax="710">
      <contour>
        <pt x="151" y="568" on="1"/>
        <pt x="78" y="568" on="1"/>
        <pt x="124" y="676" on="1"/>
        <pt x="134" y="699" on="0"/>
        <pt x="157" y="706" on="1"/>
        <pt x="168" y="710" on="0"/>
        <pt x="176" y="710" on="1"/>
        <pt x="185" y="710" on="0"/>
        <pt x="191" y="706" on="1"/>
        <pt x="211" y="696" on="0"/>
        <pt x="215" y="676" on="1"/>
        <pt x="216" y="673" on="0"/>
        <pt x="216" y="670" on="1"/>
        <pt x="216" y="652" on="0"/>
        <pt x="200" y="631" on="1"/>
      </contour>
      <contour>
        <pt x="577" y="0" on="1"/>
        <pt x="245" y="0" on="1"/>
        <pt x="245" y="700" on="1"/>
        <pt x="579" y="700" on="1"/>
        <pt x="579" y="590" on="1"/>
        <pt x="355" y="590" on="1"/>
        <pt x="355" y="413" on="1"/>
        <pt x="492" y="413" on="1"/>
        <pt x="461" y="308" on="1"/>
        <pt x="355" y="308" on="1"/>
        <pt x="355" y="100" on="1"/>
        <pt x="577" y="100" on="1"/>
      </contour>
    </TTGlyph>
    <TTGlyph name="Eta" xMin="80" yMin="0" xMax="510" yMax="700">
      <contour>
        <pt x="510" y="0" on="1"/>
        <pt x="401" y="0" on="1"/>
        <pt x="401" y="308" on="1"/>
        <pt x="190" y="308" on="1"/>
        <pt x="190" y="0" on="1"/>
        <pt x="80" y="0" on="1"/>
        <pt x="80" y="700" on="1"/>
        <pt x="190" y="700" on="1"/>
        <pt x="190" y="413" on="1"/>
        <pt x="401" y="413" on="1"/>
        <pt x="401" y="700" on="1"/>
        <pt x="510" y="700" on="1"/>
      </contour>
    </TTGlyph>
    <TTGlyph name="Etatonos" xMin="78" yMin="0" xMax="677" yMax="710">
      <contour>
        <pt x="151" y="568" on="1"/>
        <pt x="78" y="568" on="1"/>
        <pt x="124" y="676" on="1"/>
        <pt x="134" y="699" on="0"/>
        <pt x="157" y="706" on="1"/>
        <pt x="168" y="710" on="0"/>
        <pt x="176" y="710" on="1"/>
        <pt x="185" y="710" on="0"/>
        <pt x="191" y="706" on="1"/>
        <pt x="211" y="696" on="0"/>
        <pt x="215" y="676" on="1"/>
        <pt x="216" y="673" on="0"/>
        <pt x="216" y="670" on="1"/>
        <pt x="216" y="652" on="0"/>
        <pt x="200" y="631" on="1"/>
      </contour>
      <contour>
        <pt x="677" y="0" on="1"/>
        <pt x="568" y="0" on="1"/>
        <pt x="568" y="308" on="1"/>
        <pt x="357" y="308" on="1"/>
        <pt x="357" y="0" on="1"/>
        <pt x="247" y="0" on="1"/>
        <pt x="247" y="700" on="1"/>
        <pt x="357" y="700" on="1"/>
        <pt x="357" y="413" on="1"/>
        <pt x="568" y="413" on="1"/>
        <pt x="568" y="700" on="1"/>
        <pt x="677" y="700" on="1"/>
      </contour>
    </TTGlyph>
    <TTGlyph name="Eth" xMin="78" yMin="0" xMax="605" yMax="701">
      <contour>
        <pt x="335" y="0" on="1"/>
        <pt x="127" y="0" on="1"/>
        <pt x="127" y="395" on="1"/>
        <pt x="78" y="395" on="1"/>
        <pt x="78" y="500" on="1"/>
        <pt x="127" y="500" on="1"/>
        <pt x="127" y="701" on="1"/>
        <pt x="315" y="701" on="1"/>
        <pt x="420" y="701" on="0"/>
        <pt x="538" y="592" on="0"/>
        <pt x="546" y="500" on="1"/>
        <pt x="605" y="500" on="1"/>
        <pt x="605" y="395" on="1"/>
        <pt x="547" y="395" on="1"/>
        <pt x="547" y="200" on="1"/>
        <pt x="547" y="0" on="0"/>
      </contour>
      <contour>
        <pt x="437" y="190" on="1"/>
        <pt x="437" y="395" on="1"/>
        <pt x="237" y="395" on="1"/>
        <pt x="237" y="101" on="1"/>
        <pt x="319" y="101" on="1"/>
        <pt x="344" y="101" on="0"/>
        <pt x="378" y="106" on="0"/>
        <pt x="417" y="122" on="0"/>
        <pt x="437" y="160" on="0"/>
      </contour>
      <contour>
        <pt x="237" y="500" on="1"/>
        <pt x="436" y="500" on="1"/>
        <pt x="429" y="590" on="0"/>
        <pt x="325" y="590" on="1"/>
        <pt x="237" y="590" on="1"/>
      </contour>
    </TTGlyph>
    <TTGlyph name="Euro" xMin="78" yMin="-16" xMax="500" yMax="704">
      <contour>
        <pt x="483" y="121" on="1"/>
        <pt x="500" y="17" on="1"/>
        <pt x="451" y="-2" on="0"/>
        <pt x="402" y="-10" on="1"/>
        <pt x="370" y="-16" on="0"/>
        <pt x="338" y="-16" on="1"/>
        <pt x="322" y="-16" on="0"/>
        <pt x="305" y="-14" on="1"/>
        <pt x="257" y="-10" on="0"/>
        <pt x="184" y="29" on="0"/>
        <pt x="139" y="114" on="0"/>
        <pt x="139" y="177" on="1"/>
        <pt x="139" y="198" on="1"/>
        <pt x="78" y="198" on="1"/>
        <pt x="78" y="303" on="1"/>
        <pt x="139" y="303" on="1"/>
        <pt x="139" y="351" on="1"/>
        <pt x="78" y="351" on="1"/>
        <pt x="78" y="456" on="1"/>
        <pt x="139" y="456" on="1"/>
        <pt x="139" y="498" on="1"/>
        <pt x="139" y="574" on="0"/>
        <pt x="182" y="652" on="0"/>
        <pt x="226" y="679" on="1"/>
        <pt x="271" y="704" on="0"/>
        <pt x="333" y="704" on="1"/>
        <pt x="339" y="704" on="0"/>
        <pt x="346" y="704" on="1"/>
        <pt x="416" y="701" on="0"/>
        <pt x="475" y="671" on="1"/>
        <pt x="444" y="571" on="1"/>
        <pt x="398" y="588" on="0"/>
        <pt x="343" y="588" on="1"/>
        <pt x="301" y="588" on="0"/>
        <pt x="249" y="542" on="0"/>
        <pt x="249" y="507" on="1"/>
        <pt x="249" y="456" on="1"/>
        <pt x="398" y="456" on="1"/>
        <pt x="398" y="351" on="1"/>
        <pt x="249" y="351" on="1"/>
        <pt x="249" y="303" on="1"/>
        <pt x="398" y="303" on="1"/>
        <pt x="398" y="198" on="1"/>
        <pt x="249" y="198" on="1"/>
        <pt x="249" y="179" on="1"/>
        <pt x="249" y="161" on="0"/>
        <pt x="257" y="132" on="0"/>
        <pt x="275" y="114" on="0"/>
        <pt x="293" y="100" on="0"/>
        <pt x="325" y="96" on="0"/>
        <pt x="347" y="93" on="0"/>
        <pt x="386" y="99" on="0"/>
        <pt x="408" y="102" on="0"/>
        <pt x="449" y="112" on="0"/>
        <pt x="465" y="116" on="0"/>
      </contour>
    </TTGlyph>
    <TTGlyph name="F" xMin="78" yMin="0" xMax="412" yMax="700">
      <contour>
        <pt x="188" y="0" on="1"/>
        <pt x="78" y="0" on="1"/>
        <pt x="78" y="700" on="1"/>
        <pt x="412" y="700" on="1"/>
        <pt x="412" y="590" on="1"/>
        <pt x="188" y="590" on="1"/>
        <pt x="188" y="413" on="1"/>
        <pt x="328" y="413" on="1"/>
        <pt x="292" y="308" on="1"/>
        <pt x="188" y="308" on="1"/>
      </contour>
    </TTGlyph>
    <TTGlyph name="G" xMin="65" yMin="-10" xMax="476" yMax="709">
      <contour>
        <pt x="476" y="0" on="1"/>
        <pt x="372" y="0" on="1"/>
        <pt x="366" y="8" on="1"/>
        <pt x="314" y="-10" on="0"/>
        <pt x="276" y="-10" on="1"/>
        <pt x="188" y="-10" on="0"/>
        <pt x="65" y="90" on="0"/>
        <pt x="65" y="189" on="1"/>
        <pt x="65" y="503" on="1"/>
        <pt x="65" y="631" on="0"/>
        <pt x="152" y="684" on="1"/>
        <pt x="197" y="709" on="0"/>
        <pt x="259" y="709" on="1"/>
        <pt x="265" y="709" on="0"/>
        <pt x="272" y="709" on="1"/>
        <pt x="342" y="706" on="0"/>
        <pt x="401" y="676" on="1"/>
        <pt x="368" y="577" on="1"/>
        <pt x="320" y="595" on="0"/>
        <pt x="277" y="595" on="1"/>
        <pt x="229" y="595" on="0"/>
        <pt x="175" y="560" on="0"/>
        <pt x="175" y="512" on="1"/>
        <pt x="175" y="187" on="1"/>
        <pt x="175" y="139" on="0"/>
        <pt x="226" y="101" on="0"/>
        <pt x="275" y="101" on="1"/>
        <pt x="366" y="101" on="0"/>
        <pt x="366" y="186" on="1"/>
        <pt x="366" y="195" on="1"/>
        <pt x="309" y="195" on="1"/>
        <pt x="274" y="300" on="1"/>
        <pt x="476" y="300" on="1"/>
      </contour>
    </TTGlyph>
    <TTGlyph name="Gamma" xMin="78" yMin="0" xMax="412" yMax="700">
      <contour>
        <pt x="189" y="0" on="1"/>
        <pt x="78" y="0" on="1"/>
        <pt x="78" y="700" on="1"/>
        <pt x="412" y="700" on="1"/>
        <pt x="412" y="590" on="1"/>
        <pt x="189" y="590" on="1"/>
      </contour>
    </TTGlyph>
    <TTGlyph name="Gbreve" xMin="65" yMin="-10" xMax="476" yMax="846">
      <contour>
        <pt x="476" y="0" on="1"/>
        <pt x="372" y="0" on="1"/>
        <pt x="366" y="8" on="1"/>
        <pt x="314" y="-10" on="0"/>
        <pt x="276" y="-10" on="1"/>
        <pt x="188" y="-10" on="0"/>
        <pt x="65" y="90" on="0"/>
        <pt x="65" y="189" on="1"/>
        <pt x="65" y="503" on="1"/>
        <pt x="65" y="631" on="0"/>
        <pt x="152" y="684" on="1"/>
        <pt x="197" y="709" on="0"/>
        <pt x="259" y="709" on="1"/>
        <pt x="265" y="709" on="0"/>
        <pt x="272" y="709" on="1"/>
        <pt x="342" y="706" on="0"/>
        <pt x="401" y="676" on="1"/>
        <pt x="368" y="577" on="1"/>
        <pt x="320" y="595" on="0"/>
        <pt x="277" y="595" on="1"/>
        <pt x="229" y="595" on="0"/>
        <pt x="175" y="560" on="0"/>
        <pt x="175" y="512" on="1"/>
        <pt x="175" y="187" on="1"/>
        <pt x="175" y="139" on="0"/>
        <pt x="226" y="101" on="0"/>
        <pt x="275" y="101" on="1"/>
        <pt x="366" y="101" on="0"/>
        <pt x="366" y="186" on="1"/>
        <pt x="366" y="195" on="1"/>
        <pt x="309" y="195" on="1"/>
        <pt x="274" y="300" on="1"/>
        <pt x="476" y="300" on="1"/>
      </contour>
      <contour>
        <pt x="389" y="846" on="1"/>
        <pt x="389" y="841" on="1"/>
        <pt x="389" y="794" on="0"/>
        <pt x="322" y="728" on="0"/>
        <pt x="230" y="728" on="0"/>
        <pt x="163" y="794" on="0"/>
        <pt x="163" y="841" on="1"/>
        <pt x="163" y="846" on="1"/>
        <pt x="246" y="846" on="1"/>
        <pt x="246" y="841" on="1"/>
        <pt x="246" y="806" on="0"/>
        <pt x="276" y="806" on="1"/>
        <pt x="290" y="806" on="0"/>
        <pt x="307" y="825" on="0"/>
        <pt x="307" y="841" on="1"/>
        <pt x="307" y="846" on="1"/>
      </contour>
    </TTGlyph>
    <TTGlyph name="Gcircumflex" xMin="65" yMin="-10" xMax="476" yMax="911">
      <contour>
        <pt x="476" y="0" on="1"/>
        <pt x="372" y="0" on="1"/>
        <pt x="366" y="8" on="1"/>
        <pt x="314" y="-10" on="0"/>
        <pt x="276" y="-10" on="1"/>
        <pt x="188" y="-10" on="0"/>
        <pt x="65" y="90" on="0"/>
        <pt x="65" y="189" on="1"/>
        <pt x="65" y="503" on="1"/>
        <pt x="65" y="631" on="0"/>
        <pt x="152" y="684" on="1"/>
        <pt x="197" y="709" on="0"/>
        <pt x="259" y="709" on="1"/>
        <pt x="265" y="709" on="0"/>
        <pt x="272" y="709" on="1"/>
        <pt x="342" y="706" on="0"/>
        <pt x="401" y="676" on="1"/>
        <pt x="368" y="577" on="1"/>
        <pt x="320" y="595" on="0"/>
        <pt x="277" y="595" on="1"/>
        <pt x="229" y="595" on="0"/>
        <pt x="175" y="560" on="0"/>
        <pt x="175" y="512" on="1"/>
        <pt x="175" y="187" on="1"/>
        <pt x="175" y="139" on="0"/>
        <pt x="226" y="101" on="0"/>
        <pt x="275" y="101" on="1"/>
        <pt x="366" y="101" on="0"/>
        <pt x="366" y="186" on="1"/>
        <pt x="366" y="195" on="1"/>
        <pt x="309" y="195" on="1"/>
        <pt x="274" y="300" on="1"/>
        <pt x="476" y="300" on="1"/>
      </contour>
      <contour>
        <pt x="427" y="770" on="1"/>
        <pt x="360" y="731" on="1"/>
        <pt x="284" y="814" on="1"/>
        <pt x="203" y="731" on="1"/>
        <pt x="137" y="770" on="1"/>
        <pt x="285" y="911" on="1"/>
      </contour>
    </TTGlyph>
    <TTGlyph name="Gcommaaccent" xMin="65" yMin="-218" xMax="476" yMax="709">
      <contour>
        <pt x="476" y="0" on="1"/>
        <pt x="372" y="0" on="1"/>
        <pt x="366" y="8" on="1"/>
        <pt x="314" y="-10" on="0"/>
        <pt x="276" y="-10" on="1"/>
        <pt x="188" y="-10" on="0"/>
        <pt x="65" y="90" on="0"/>
        <pt x="65" y="189" on="1"/>
        <pt x="65" y="503" on="1"/>
        <pt x="65" y="631" on="0"/>
        <pt x="152" y="684" on="1"/>
        <pt x="197" y="709" on="0"/>
        <pt x="259" y="709" on="1"/>
        <pt x="265" y="709" on="0"/>
        <pt x="272" y="709" on="1"/>
        <pt x="342" y="706" on="0"/>
        <pt x="401" y="676" on="1"/>
        <pt x="368" y="577" on="1"/>
        <pt x="320" y="595" on="0"/>
        <pt x="277" y="595" on="1"/>
        <pt x="229" y="595" on="0"/>
        <pt x="175" y="560" on="0"/>
        <pt x="175" y="512" on="1"/>
        <pt x="175" y="187" on="1"/>
        <pt x="175" y="139" on="0"/>
        <pt x="226" y="101" on="0"/>
        <pt x="275" y="101" on="1"/>
        <pt x="366" y="101" on="0"/>
        <pt x="366" y="186" on="1"/>
        <pt x="366" y="195" on="1"/>
        <pt x="309" y="195" on="1"/>
        <pt x="274" y="300" on="1"/>
        <pt x="476" y="300" on="1"/>
      </contour>
      <contour>
        <pt x="260" y="-218" on="1"/>
        <pt x="191" y="-189" on="1"/>
        <pt x="212" y="-177" on="0"/>
        <pt x="248" y="-151" on="0"/>
        <pt x="256" y="-144" on="1"/>
        <pt x="263" y="-137" on="1"/>
        <pt x="251" y="-134" on="1"/>
        <pt x="221" y="-120" on="0"/>
        <pt x="221" y="-86" on="1"/>
        <pt x="221" y="-63" on="0"/>
        <pt x="237" y="-48" on="1"/>
        <pt x="252" y="-33" on="0"/>
        <pt x="274" y="-33" on="1"/>
        <pt x="276" y="-33" on="0"/>
        <pt x="277" y="-33" on="1"/>
        <pt x="303" y="-34" on="0"/>
        <pt x="327" y="-74" on="0"/>
        <pt x="327" y="-96" on="1"/>
        <pt x="327" y="-130" on="0"/>
        <pt x="296" y="-184" on="0"/>
      </contour>
    </TTGlyph>
    <TTGlyph name="Gdotaccent" xMin="85" yMin="-10" xMax="496" yMax="847">
      <contour>
        <pt x="293" y="729" on="1"/>
        <pt x="269" y="729" on="0"/>
        <pt x="233" y="765" on="0"/>
        <pt x="233" y="789" on="1"/>
        <pt x="233" y="812" on="0"/>
        <pt x="269" y="847" on="0"/>
        <pt x="293" y="847" on="1"/>
        <pt x="316" y="847" on="0"/>
        <pt x="351" y="812" on="0"/>
        <pt x="351" y="789" on="1"/>
        <pt x="351" y="765" on="0"/>
        <pt x="316" y="729" on="0"/>
      </contour>
      <contour>
        <pt x="496" y="0" on="1"/>
        <pt x="392" y="0" on="1"/>
        <pt x="386" y="8" on="1"/>
        <pt x="334" y="-10" on="0"/>
        <pt x="296" y="-10" on="1"/>
        <pt x="208" y="-10" on="0"/>
        <pt x="85" y="90" on="0"/>
        <pt x="85" y="189" on="1"/>
        <pt x="85" y="503" on="1"/>
        <pt x="85" y="631" on="0"/>
        <pt x="172" y="684" on="1"/>
        <pt x="217" y="709" on="0"/>
        <pt x="279" y="709" on="1"/>
        <pt x="285" y="709" on="0"/>
        <pt x="292" y="709" on="1"/>
        <pt x="362" y="706" on="0"/>
        <pt x="421" y="676" on="1"/>
        <pt x="388" y="577" on="1"/>
        <pt x="340" y="595" on="0"/>
        <pt x="297" y="595" on="1"/>
        <pt x="249" y="595" on="0"/>
        <pt x="195" y="560" on="0"/>
        <pt x="195" y="512" on="1"/>
        <pt x="195" y="187" on="1"/>
        <pt x="195" y="139" on="0"/>
        <pt x="246" y="101" on="0"/>
        <pt x="295" y="101" on="1"/>
        <pt x="386" y="101" on="0"/>
        <pt x="386" y="186" on="1"/>
        <pt x="386" y="195" on="1"/>
        <pt x="329" y="195" on="1"/>
        <pt x="294" y="300" on="1"/>
        <pt x="496" y="300" on="1"/>
      </contour>
    </TTGlyph>
    <TTGlyph name="H" xMin="78" yMin="0" xMax="508" yMax="700">
      <contour>
        <pt x="508" y="0" on="1"/>
        <pt x="399" y="0" on="1"/>
        <pt x="399" y="308" on="1"/>
        <pt x="188" y="308" on="1"/>
        <pt x="188" y="0" on="1"/>
        <pt x="78" y="0" on="1"/>
        <pt x="78" y="700" on="1"/>
        <pt x="188" y="700" on="1"/>
        <pt x="188" y="413" on="1"/>
        <pt x="399" y="413" on="1"/>
        <pt x="399" y="700" on="1"/>
        <pt x="508" y="700" on="1"/>
      </contour>
    </TTGlyph>
    <TTGlyph name="Hbar" xMin="78" yMin="0" xMax="605" yMax="700">
      <contour>
        <pt x="557" y="0" on="1"/>
        <pt x="448" y="0" on="1"/>
        <pt x="448" y="308" on="1"/>
        <pt x="237" y="308" on="1"/>
        <pt x="237" y="0" on="1"/>
        <pt x="127" y="0" on="1"/>
        <pt x="127" y="473" on="1"/>
        <pt x="78" y="473" on="1"/>
        <pt x="78" y="578" on="1"/>
        <pt x="127" y="578" on="1"/>
        <pt x="127" y="700" on="1"/>
        <pt x="237" y="700" on="1"/>
        <pt x="237" y="578" on="1"/>
        <pt x="448" y="578" on="1"/>
        <pt x="448" y="700" on="1"/>
        <pt x="557" y="700" on="1"/>
        <pt x="557" y="578" on="1"/>
        <pt x="605" y="578" on="1"/>
        <pt x="605" y="473" on="1"/>
        <pt x="557" y="473" on="1"/>
      </contour>
      <contour>
        <pt x="448" y="413" on="1"/>
        <pt x="448" y="473" on="1"/>
        <pt x="237" y="473" on="1"/>
        <pt x="237" y="413" on="1"/>
      </contour>
    </TTGlyph>
    <TTGlyph name="Hcircumflex" xMin="78" yMin="0" xMax="508" yMax="911">
      <contour>
        <pt x="508" y="0" on="1"/>
        <pt x="399" y="0" on="1"/>
        <pt x="399" y="308" on="1"/>
        <pt x="188" y="308" on="1"/>
        <pt x="188" y="0" on="1"/>
        <pt x="78" y="0" on="1"/>
        <pt x="78" y="700" on="1"/>
        <pt x="188" y="700" on="1"/>
        <pt x="188" y="413" on="1"/>
        <pt x="399" y="413" on="1"/>
        <pt x="399" y="700" on="1"/>
        <pt x="508" y="700" on="1"/>
      </contour>
      <contour>
        <pt x="440" y="770" on="1"/>
        <pt x="373" y="731" on="1"/>
        <pt x="297" y="814" on="1"/>
        <pt x="216" y="731" on="1"/>
        <pt x="150" y="770" on="1"/>
        <pt x="298" y="911" on="1"/>
      </contour>
    </TTGlyph>
    <TTGlyph name="I" xMin="61" yMin="0" xMax="233" yMax="700">
      <contour>
        <pt x="233" y="0" on="1"/>
        <pt x="123" y="0" on="1"/>
        <pt x="123" y="592" on="1"/>
        <pt x="61" y="594" on="1"/>
        <pt x="61" y="700" on="1"/>
        <pt x="233" y="700" on="1"/>
      </contour>
    </TTGlyph>
    <TTGlyph name="Iacute" xMin="78" yMin="0" xMax="303" yMax="872">
      <contour>
        <pt x="250" y="0" on="1"/>
        <pt x="140" y="0" on="1"/>
        <pt x="140" y="592" on="1"/>
        <pt x="78" y="594" on="1"/>
        <pt x="78" y="700" on="1"/>
        <pt x="250" y="700" on="1"/>
      </contour>
      <contour>
        <pt x="238" y="730" on="1"/>
        <pt x="165" y="730" on="1"/>
        <pt x="211" y="838" on="1"/>
        <pt x="221" y="861" on="0"/>
        <pt x="244" y="868" on="1"/>
        <pt x="255" y="872" on="0"/>
        <pt x="263" y="872" on="1"/>
        <pt x="272" y="872" on="0"/>
        <pt x="278" y="868" on="1"/>
        <pt x="298" y="858" on="0"/>
        <pt x="302" y="838" on="1"/>
        <pt x="303" y="835" on="0"/>
        <pt x="303" y="832" on="1"/>
        <pt x="303" y="814" on="0"/>
        <pt x="287" y="793" on="1"/>
      </contour>
    </TTGlyph>
    <TTGlyph name="Icircumflex" xMin="78" yMin="0" xMax="368" yMax="911">
      <contour>
        <pt x="280" y="0" on="1"/>
        <pt x="170" y="0" on="1"/>
        <pt x="170" y="592" on="1"/>
        <pt x="108" y="594" on="1"/>
        <pt x="108" y="700" on="1"/>
        <pt x="280" y="700" on="1"/>
      </contour>
      <contour>
        <pt x="368" y="770" on="1"/>
        <pt x="301" y="731" on="1"/>
        <pt x="225" y="814" on="1"/>
        <pt x="144" y="731" on="1"/>
        <pt x="78" y="770" on="1"/>
        <pt x="226" y="911" on="1"/>
      </contour>
    </TTGlyph>
    <TTGlyph name="Idieresis" xMin="78" yMin="0" xMax="300" yMax="819">
      <contour>
        <pt x="262" y="0" on="1"/>
        <pt x="152" y="0" on="1"/>
        <pt x="152" y="592" on="1"/>
        <pt x="90" y="594" on="1"/>
        <pt x="90" y="700" on="1"/>
        <pt x="262" y="700" on="1"/>
      </contour>
      <contour>
        <pt x="167" y="773" on="1"/>
        <pt x="167" y="755" on="0"/>
        <pt x="141" y="729" on="0"/>
        <pt x="122" y="729" on="1"/>
        <pt x="104" y="729" on="0"/>
        <pt x="78" y="755" on="0"/>
        <pt x="78" y="773" on="1"/>
        <pt x="78" y="792" on="0"/>
        <pt x="104" y="818" on="0"/>
        <pt x="122" y="818" on="1"/>
        <pt x="141" y="818" on="0"/>
        <pt x="167" y="792" on="0"/>
      </contour>
      <contour>
        <pt x="274" y="729" on="0"/>
        <pt x="236" y="729" on="0"/>
        <pt x="210" y="755" on="0"/>
        <pt x="210" y="793" on="0"/>
        <pt x="236" y="819" on="0"/>
        <pt x="274" y="819" on="0"/>
        <pt x="300" y="793" on="0"/>
        <pt x="300" y="755" on="0"/>
      </contour>
    </TTGlyph>
    <TTGlyph name="Idotaccent" xMin="78" yMin="0" xMax="258" yMax="848">
      <contour>
        <pt x="250" y="0" on="1"/>
        <pt x="140" y="0" on="1"/>
        <pt x="140" y="592" on="1"/>
        <pt x="78" y="594" on="1"/>
        <pt x="78" y="700" on="1"/>
        <pt x="250" y="700" on="1"/>
      </contour>
      <contour>
        <pt x="200" y="730" on="1"/>
        <pt x="176" y="730" on="0"/>
        <pt x="140" y="766" on="0"/>
        <pt x="140" y="790" on="1"/>
        <pt x="140" y="813" on="0"/>
        <pt x="176" y="848" on="0"/>
        <pt x="200" y="848" on="1"/>
        <pt x="223" y="848" on="0"/>
        <pt x="258" y="813" on="0"/>
        <pt x="258" y="790" on="1"/>
        <pt x="258" y="766" on="0"/>
        <pt x="223" y="730" on="0"/>
      </contour>
    </TTGlyph>
    <TTGlyph name="Igrave" xMin="78" yMin="0" xMax="250" yMax="874">
      <contour>
        <pt x="250" y="0" on="1"/>
        <pt x="140" y="0" on="1"/>
        <pt x="140" y="592" on="1"/>
        <pt x="78" y="594" on="1"/>
        <pt x="78" y="700" on="1"/>
        <pt x="250" y="700" on="1"/>
      </contour>
      <contour>
        <pt x="248" y="732" on="1"/>
        <pt x="175" y="732" on="1"/>
        <pt x="126" y="795" on="1"/>
        <pt x="110" y="816" on="0"/>
        <pt x="110" y="834" on="1"/>
        <pt x="110" y="837" on="0"/>
        <pt x="111" y="840" on="1"/>
        <pt x="115" y="860" on="0"/>
        <pt x="135" y="870" on="1"/>
        <pt x="141" y="874" on="0"/>
        <pt x="150" y="874" on="1"/>
        <pt x="158" y="874" on="0"/>
        <pt x="169" y="870" on="1"/>
        <pt x="192" y="863" on="0"/>
        <pt x="202" y="840" on="1"/>
      </contour>
    </TTGlyph>
    <TTGlyph name="Imacron" xMin="78" yMin="0" xMax="294" yMax="821">
      <contour>
        <pt x="252" y="0" on="1"/>
        <pt x="142" y="0" on="1"/>
        <pt x="142" y="592" on="1"/>
        <pt x="80" y="594" on="1"/>
        <pt x="80" y="700" on="1"/>
        <pt x="252" y="700" on="1"/>
      </contour>
      <contour>
        <pt x="294" y="730" on="1"/>
        <pt x="78" y="730" on="1"/>
        <pt x="78" y="821" on="1"/>
        <pt x="294" y="821" on="1"/>
      </contour>
    </TTGlyph>
    <TTGlyph name="Iogonek" xMin="78" yMin="-213" xMax="285" yMax="700">
      <contour>
        <pt x="236" y="-110" on="1"/>
        <pt x="285" y="-163" on="1"/>
        <pt x="267" y="-191" on="0"/>
        <pt x="216" y="-213" on="0"/>
        <pt x="175" y="-213" on="1"/>
        <pt x="159" y="-213" on="0"/>
        <pt x="120" y="-197" on="0"/>
        <pt x="103" y="-174" on="1"/>
        <pt x="88" y="-152" on="0"/>
        <pt x="88" y="-124" on="1"/>
        <pt x="88" y="-120" on="0"/>
        <pt x="88" y="-117" on="1"/>
        <pt x="91" y="-55" on="0"/>
        <pt x="181" y="0" on="1"/>
        <pt x="140" y="0" on="1"/>
        <pt x="140" y="592" on="1"/>
        <pt x="78" y="594" on="1"/>
        <pt x="78" y="700" on="1"/>
        <pt x="250" y="700" on="1"/>
        <pt x="250" y="0" on="1"/>
        <pt x="160" y="-74" on="0"/>
        <pt x="160" y="-116" on="1"/>
        <pt x="160" y="-119" on="0"/>
        <pt x="160" y="-121" on="1"/>
        <pt x="164" y="-145" on="0"/>
        <pt x="193" y="-145" on="1"/>
        <pt x="202" y="-145" on="0"/>
        <pt x="227" y="-128" on="0"/>
      </contour>
    </TTGlyph>
    <TTGlyph name="Iota" xMin="80" yMin="0" xMax="252" yMax="700">
      <contour>
        <pt x="252" y="0" on="1"/>
        <pt x="142" y="0" on="1"/>
        <pt x="142" y="592" on="1"/>
        <pt x="80" y="594" on="1"/>
        <pt x="80" y="700" on="1"/>
        <pt x="252" y="700" on="1"/>
      </contour>
    </TTGlyph>
    <TTGlyph name="Iotadieresis" xMin="80" yMin="0" xMax="309" yMax="821">
      <contour>
        <pt x="176" y="775" on="1"/>
        <pt x="176" y="757" on="0"/>
        <pt x="150" y="731" on="0"/>
        <pt x="131" y="731" on="1"/>
        <pt x="113" y="731" on="0"/>
        <pt x="87" y="757" on="0"/>
        <pt x="87" y="775" on="1"/>
        <pt x="87" y="794" on="0"/>
        <pt x="113" y="820" on="0"/>
        <pt x="131" y="820" on="1"/>
        <pt x="150" y="820" on="0"/>
        <pt x="176" y="794" on="0"/>
      </contour>
      <contour>
        <pt x="283" y="731" on="0"/>
        <pt x="245" y="731" on="0"/>
        <pt x="219" y="757" on="0"/>
        <pt x="219" y="795" on="0"/>
        <pt x="245" y="821" on="0"/>
        <pt x="283" y="821" on="0"/>
        <pt x="309" y="795" on="0"/>
        <pt x="309" y="757" on="0"/>
      </contour>
      <contour>
        <pt x="252" y="0" on="1"/>
        <pt x="142" y="0" on="1"/>
        <pt x="142" y="592" on="1"/>
        <pt x="80" y="594" on="1"/>
        <pt x="80" y="700" on="1"/>
        <pt x="252" y="700" on="1"/>
      </contour>
    </TTGlyph>
    <TTGlyph name="Iotatonos" xMin="78" yMin="0" xMax="408" yMax="710">
      <contour>
        <pt x="408" y="0" on="1"/>
        <pt x="298" y="0" on="1"/>
        <pt x="298" y="592" on="1"/>
        <pt x="236" y="594" on="1"/>
        <pt x="236" y="700" on="1"/>
        <pt x="408" y="700" on="1"/>
      </contour>
      <contour>
        <pt x="151" y="568" on="1"/>
        <pt x="78" y="568" on="1"/>
        <pt x="124" y="676" on="1"/>
        <pt x="134" y="699" on="0"/>
        <pt x="157" y="706" on="1"/>
        <pt x="168" y="710" on="0"/>
        <pt x="176" y="710" on="1"/>
        <pt x="185" y="710" on="0"/>
        <pt x="191" y="706" on="1"/>
        <pt x="211" y="696" on="0"/>
        <pt x="215" y="676" on="1"/>
        <pt x="216" y="673" on="0"/>
        <pt x="216" y="670" on="1"/>
        <pt x="216" y="652" on="0"/>
        <pt x="200" y="631" on="1"/>
      </contour>
    </TTGlyph>
    <TTGlyph name="Itilde" xMin="78" yMin="0" xMax="429" yMax="827">
      <contour>
        <pt x="318" y="0" on="1"/>
        <pt x="208" y="0" on="1"/>
        <pt x="208" y="592" on="1"/>
        <pt x="146" y="594" on="1"/>
        <pt x="146" y="700" on="1"/>
        <pt x="318" y="700" on="1"/>
      </contour>
      <contour>
        <pt x="387" y="821" on="1"/>
        <pt x="429" y="756" on="1"/>
        <pt x="395" y="716" on="0"/>
        <pt x="361" y="707" on="1"/>
        <pt x="346" y="703" on="0"/>
        <pt x="333" y="703" on="1"/>
        <pt x="315" y="703" on="0"/>
        <pt x="298" y="710" on="1"/>
        <pt x="269" y="722" on="0"/>
        <pt x="240" y="735" on="1"/>
        <pt x="218" y="745" on="0"/>
        <pt x="193" y="745" on="1"/>
        <pt x="186" y="745" on="0"/>
        <pt x="180" y="744" on="1"/>
        <pt x="147" y="741" on="0"/>
        <pt x="117" y="709" on="1"/>
        <pt x="78" y="774" on="1"/>
        <pt x="113" y="813" on="0"/>
        <pt x="148" y="822" on="1"/>
        <pt x="164" y="827" on="0"/>
        <pt x="178" y="827" on="1"/>
        <pt x="196" y="827" on="0"/>
        <pt x="212" y="820" on="1"/>
        <pt x="241" y="809" on="0"/>
        <pt x="270" y="796" on="1"/>
        <pt x="292" y="786" on="0"/>
        <pt x="317" y="786" on="1"/>
        <pt x="323" y="786" on="0"/>
        <pt x="328" y="787" on="1"/>
        <pt x="359" y="790" on="0"/>
      </contour>
    </TTGlyph>
    <TTGlyph name="J" xMin="-15" yMin="-37" xMax="198" yMax="700">
      <contour>
        <pt x="21" y="-37" on="1"/>
        <pt x="-15" y="57" on="1"/>
        <pt x="90" y="57" on="0"/>
        <pt x="90" y="156" on="1"/>
        <pt x="90" y="592" on="1"/>
        <pt x="30" y="594" on="1"/>
        <pt x="30" y="700" on="1"/>
        <pt x="198" y="700" on="1"/>
        <pt x="198" y="139" on="1"/>
        <pt x="198" y="44" on="0"/>
        <pt x="122" y="-36" on="0"/>
      </contour>
    </TTGlyph>
    <TTGlyph name="Jcircumflex" xMin="-15" yMin="-37" xMax="242" yMax="846">
      <contour>
        <pt x="21" y="-37" on="1"/>
        <pt x="-15" y="57" on="1"/>
        <pt x="90" y="57" on="0"/>
        <pt x="90" y="156" on="1"/>
        <pt x="90" y="592" on="1"/>
        <pt x="30" y="594" on="1"/>
        <pt x="30" y="700" on="1"/>
        <pt x="198" y="700" on="1"/>
        <pt x="198" y="139" on="1"/>
        <pt x="198" y="44" on="0"/>
        <pt x="122" y="-36" on="0"/>
      </contour>
      <contour>
        <pt x="242" y="846" on="1"/>
        <pt x="242" y="841" on="1"/>
        <pt x="242" y="794" on="0"/>
        <pt x="176" y="728" on="0"/>
        <pt x="82" y="728" on="0"/>
        <pt x="16" y="794" on="0"/>
        <pt x="16" y="841" on="1"/>
        <pt x="16" y="846" on="1"/>
        <pt x="99" y="846" on="1"/>
        <pt x="99" y="841" on="1"/>
        <pt x="99" y="806" on="0"/>
        <pt x="129" y="806" on="1"/>
        <pt x="143" y="806" on="0"/>
        <pt x="160" y="825" on="0"/>
        <pt x="160" y="841" on="1"/>
        <pt x="160" y="846" on="1"/>
      </contour>
    </TTGlyph>
    <TTGlyph name="K" xMin="79" yMin="0" xMax="530" yMax="701">
      <contour>
        <pt x="530" y="0" on="1"/>
        <pt x="393" y="0" on="1"/>
        <pt x="204" y="278" on="1"/>
        <pt x="197" y="268" on="1"/>
        <pt x="197" y="0" on="1"/>
        <pt x="79" y="0" on="1"/>
        <pt x="79" y="701" on="1"/>
        <pt x="197" y="701" on="1"/>
        <pt x="197" y="460" on="1"/>
        <pt x="359" y="701" on="1"/>
        <pt x="491" y="701" on="1"/>
        <pt x="269" y="376" on="1"/>
      </contour>
    </TTGlyph>
    <TTGlyph name="Kappa" xMin="78" yMin="0" xMax="529" yMax="701">
      <contour>
        <pt x="529" y="0" on="1"/>
        <pt x="392" y="0" on="1"/>
        <pt x="203" y="278" on="1"/>
        <pt x="196" y="268" on="1"/>
        <pt x="196" y="0" on="1"/>
        <pt x="78" y="0" on="1"/>
        <pt x="78" y="701" on="1"/>
        <pt x="196" y="701" on="1"/>
        <pt x="196" y="460" on="1"/>
        <pt x="358" y="701" on="1"/>
        <pt x="490" y="701" on="1"/>
        <pt x="268" y="376" on="1"/>
      </contour>
    </TTGlyph>
    <TTGlyph name="Kcommaaccent" xMin="79" yMin="-218" xMax="530" yMax="701">
      <contour>
        <pt x="530" y="0" on="1"/>
        <pt x="393" y="0" on="1"/>
        <pt x="204" y="278" on="1"/>
        <pt x="197" y="268" on="1"/>
        <pt x="197" y="0" on="1"/>
        <pt x="79" y="0" on="1"/>
        <pt x="79" y="701" on="1"/>
        <pt x="197" y="701" on="1"/>
        <pt x="197" y="460" on="1"/>
        <pt x="359" y="701" on="1"/>
        <pt x="491" y="701" on="1"/>
        <pt x="269" y="376" on="1"/>
      </contour>
      <contour>
        <pt x="256" y="-218" on="1"/>
        <pt x="187" y="-189" on="1"/>
        <pt x="208" y="-177" on="0"/>
        <pt x="244" y="-151" on="0"/>
        <pt x="252" y="-144" on="1"/>
        <pt x="259" y="-137" on="1"/>
        <pt x="247" y="-134" on="1"/>
        <pt x="217" y="-120" on="0"/>
        <pt x="217" y="-86" on="1"/>
        <pt x="217" y="-63" on="0"/>
        <pt x="233" y="-48" on="1"/>
        <pt x="248" y="-33" on="0"/>
        <pt x="270" y="-33" on="1"/>
        <pt x="272" y="-33" on="0"/>
        <pt x="273" y="-33" on="1"/>
        <pt x="299" y="-34" on="0"/>
        <pt x="323" y="-74" on="0"/>
        <pt x="323" y="-96" on="1"/>
        <pt x="323" y="-130" on="0"/>
        <pt x="292" y="-184" on="0"/>
      </contour>
    </TTGlyph>
    <TTGlyph name="L" xMin="78" yMin="0" xMax="439" yMax="700">
      <contour>
        <pt x="439" y="0" on="1"/>
        <pt x="78" y="0" on="1"/>
        <pt x="78" y="700" on="1"/>
        <pt x="188" y="700" on="1"/>
        <pt x="188" y="101" on="1"/>
        <pt x="439" y="101" on="1"/>
      </contour>
    </TTGlyph>
    <TTGlyph name="Lacute" xMin="78" yMin="0" xMax="439" yMax="873">
      <contour>
        <pt x="439" y="0" on="1"/>
        <pt x="78" y="0" on="1"/>
        <pt x="78" y="700" on="1"/>
        <pt x="188" y="700" on="1"/>
        <pt x="188" y="101" on="1"/>
        <pt x="439" y="101" on="1"/>
      </contour>
      <contour>
        <pt x="176" y="731" on="1"/>
        <pt x="103" y="731" on="1"/>
        <pt x="149" y="839" on="1"/>
        <pt x="159" y="862" on="0"/>
        <pt x="182" y="870" on="1"/>
        <pt x="193" y="873" on="0"/>
        <pt x="201" y="873" on="1"/>
        <pt x="210" y="873" on="0"/>
        <pt x="216" y="869" on="1"/>
        <pt x="236" y="859" on="0"/>
        <pt x="240" y="840" on="1"/>
        <pt x="241" y="836" on="0"/>
        <pt x="241" y="833" on="1"/>
        <pt x="241" y="815" on="0"/>
        <pt x="225" y="794" on="1"/>
      </contour>
    </TTGlyph>
    <TTGlyph name="Lambda" xMin="21" yMin="0" xMax="526" yMax="700">
      <contour>
        <pt x="526" y="0" on="1"/>
        <pt x="400" y="0" on="1"/>
        <pt x="271" y="454" on="1"/>
        <pt x="145" y="0" on="1"/>
        <pt x="21" y="0" on="1"/>
        <pt x="221" y="700" on="1"/>
        <pt x="323" y="700" on="1"/>
      </contour>
    </TTGlyph>
    <TTGlyph name="Lcaron" xMin="78" yMin="0" xMax="531" yMax="914">
      <contour>
        <pt x="531" y="0" on="1"/>
        <pt x="170" y="0" on="1"/>
        <pt x="170" y="700" on="1"/>
        <pt x="280" y="700" on="1"/>
        <pt x="280" y="101" on="1"/>
        <pt x="531" y="101" on="1"/>
      </contour>
      <contour>
        <pt x="368" y="875" on="1"/>
        <pt x="226" y="734" on="1"/>
        <pt x="78" y="875" on="1"/>
        <pt x="144" y="914" on="1"/>
        <pt x="225" y="831" on="1"/>
        <pt x="301" y="914" on="1"/>
      </contour>
    </TTGlyph>
    <TTGlyph name="Lcommaaccent" xMin="78" yMin="-219" xMax="439" yMax="700">
      <contour>
        <pt x="439" y="0" on="1"/>
        <pt x="78" y="0" on="1"/>
        <pt x="78" y="700" on="1"/>
        <pt x="188" y="700" on="1"/>
        <pt x="188" y="101" on="1"/>
        <pt x="439" y="101" on="1"/>
      </contour>
      <contour>
        <pt x="250" y="-219" on="1"/>
        <pt x="181" y="-190" on="1"/>
        <pt x="202" y="-178" on="0"/>
        <pt x="238" y="-152" on="0"/>
        <pt x="246" y="-145" on="1"/>
        <pt x="253" y="-138" on="1"/>
        <pt x="241" y="-135" on="1"/>
        <pt x="211" y="-121" on="0"/>
        <pt x="211" y="-87" on="1"/>
        <pt x="211" y="-64" on="0"/>
        <pt x="227" y="-48" on="1"/>
        <pt x="242" y="-34" on="0"/>
        <pt x="264" y="-34" on="1"/>
        <pt x="266" y="-34" on="0"/>
        <pt x="267" y="-34" on="1"/>
        <pt x="293" y="-35" on="0"/>
        <pt x="317" y="-75" on="0"/>
        <pt x="317" y="-97" on="1"/>
        <pt x="317" y="-131" on="0"/>
        <pt x="286" y="-185" on="0"/>
      </contour>
    </TTGlyph>
    <TTGlyph name="Lslash" xMin="78" yMin="0" xMax="547" yMax="700">
      <contour>
        <pt x="547" y="0" on="1"/>
        <pt x="186" y="0" on="1"/>
        <pt x="186" y="309" on="1"/>
        <pt x="114" y="277" on="1"/>
        <pt x="78" y="358" on="1"/>
        <pt x="186" y="407" on="1"/>
        <pt x="186" y="700" on="1"/>
        <pt x="296" y="700" on="1"/>
        <pt x="296" y="457" on="1"/>
        <pt x="369" y="490" on="1"/>
        <pt x="406" y="409" on="1"/>
        <pt x="296" y="359" on="1"/>
        <pt x="296" y="101" on="1"/>
        <pt x="547" y="101" on="1"/>
      </contour>
    </TTGlyph>
    <TTGlyph name="M" xMin="78" yMin="0" xMax="614" yMax="700">
      <contour>
        <pt x="614" y="0" on="1"/>
        <pt x="504" y="0" on="1"/>
        <pt x="504" y="370" on="1"/>
        <pt x="387" y="0" on="1"/>
        <pt x="303" y="0" on="1"/>
        <pt x="188" y="369" on="1"/>
        <pt x="188" y="0" on="1"/>
        <pt x="78" y="0" on="1"/>
        <pt x="78" y="700" on="1"/>
        <pt x="188" y="700" on="1"/>
        <pt x="345" y="237" on="1"/>
        <pt x="504" y="700" on="1"/>
        <pt x="614" y="700" on="1"/>
      </contour>
    </TTGlyph>
    <TTGlyph name="Mu" xMin="80" yMin="0" xMax="616" yMax="700">
      <contour>
        <pt x="616" y="0" on="1"/>
        <pt x="506" y="0" on="1"/>
        <pt x="506" y="370" on="1"/>
        <pt x="389" y="0" on="1"/>
        <pt x="305" y="0" on="1"/>
        <pt x="190" y="369" on="1"/>
        <pt x="190" y="0" on="1"/>
        <pt x="80" y="0" on="1"/>
        <pt x="80" y="700" on="1"/>
        <pt x="190" y="700" on="1"/>
        <pt x="347" y="237" on="1"/>
        <pt x="506" y="700" on="1"/>
        <pt x="616" y="700" on="1"/>
      </contour>
    </TTGlyph>
    <TTGlyph name="N" xMin="78" yMin="0" xMax="570" yMax="700">
      <contour>
        <pt x="570" y="0" on="1"/>
        <pt x="459" y="0" on="1"/>
        <pt x="188" y="473" on="1"/>
        <pt x="188" y="0" on="1"/>
        <pt x="78" y="0" on="1"/>
        <pt x="78" y="700" on="1"/>
        <pt x="188" y="700" on="1"/>
        <pt x="459" y="230" on="1"/>
        <pt x="459" y="700" on="1"/>
        <pt x="570" y="700" on="1"/>
      </contour>
    </TTGlyph>
    <TTGlyph name="Nacute" xMin="78" yMin="0" xMax="570" yMax="872">
      <contour>
        <pt x="570" y="0" on="1"/>
        <pt x="459" y="0" on="1"/>
        <pt x="188" y="473" on="1"/>
        <pt x="188" y="0" on="1"/>
        <pt x="78" y="0" on="1"/>
        <pt x="78" y="700" on="1"/>
        <pt x="188" y="700" on="1"/>
        <pt x="459" y="230" on="1"/>
        <pt x="459" y="700" on="1"/>
        <pt x="570" y="700" on="1"/>
      </contour>
      <contour>
        <pt x="351" y="730" on="1"/>
        <pt x="278" y="730" on="1"/>
        <pt x="324" y="838" on="1"/>
        <pt x="334" y="861" on="0"/>
        <pt x="357" y="868" on="1"/>
        <pt x="368" y="872" on="0"/>
        <pt x="376" y="872" on="1"/>
        <pt x="385" y="872" on="0"/>
        <pt x="391" y="868" on="1"/>
        <pt x="411" y="858" on="0"/>
        <pt x="415" y="838" on="1"/>
        <pt x="416" y="835" on="0"/>
        <pt x="416" y="832" on="1"/>
        <pt x="416" y="814" on="0"/>
        <pt x="400" y="793" on="1"/>
      </contour>
    </TTGlyph>
    <TTGlyph name="Ncaron" xMin="78" yMin="0" xMax="570" yMax="914">
      <contour>
        <pt x="570" y="0" on="1"/>
        <pt x="459" y="0" on="1"/>
        <pt x="188" y="473" on="1"/>
        <pt x="188" y="0" on="1"/>
        <pt x="78" y="0" on="1"/>
        <pt x="78" y="700" on="1"/>
        <pt x="188" y="700" on="1"/>
        <pt x="459" y="230" on="1"/>
        <pt x="459" y="700" on="1"/>
        <pt x="570" y="700" on="1"/>
      </contour>
      <contour>
        <pt x="474" y="875" on="1"/>
        <pt x="332" y="734" on="1"/>
        <pt x="184" y="875" on="1"/>
        <pt x="250" y="914" on="1"/>
        <pt x="331" y="831" on="1"/>
        <pt x="407" y="914" on="1"/>
      </contour>
    </TTGlyph>
    <TTGlyph name="Ncommaaccent" xMin="78" yMin="-214" xMax="570" yMax="700">
      <contour>
        <pt x="570" y="0" on="1"/>
        <pt x="459" y="0" on="1"/>
        <pt x="188" y="473" on="1"/>
        <pt x="188" y="0" on="1"/>
        <pt x="78" y="0" on="1"/>
        <pt x="78" y="700" on="1"/>
        <pt x="188" y="700" on="1"/>
        <pt x="459" y="230" on="1"/>
        <pt x="459" y="700" on="1"/>
        <pt x="570" y="700" on="1"/>
      </contour>
      <contour>
        <pt x="314" y="-214" on="1"/>
        <pt x="245" y="-185" on="1"/>
        <pt x="266" y="-173" on="0"/>
        <pt x="302" y="-147" on="0"/>
        <pt x="310" y="-140" on="1"/>
        <pt x="317" y="-133" on="1"/>
        <pt x="305" y="-130" on="1"/>
        <pt x="275" y="-116" on="0"/>
        <pt x="275" y="-82" on="1"/>
        <pt x="275" y="-59" on="0"/>
        <pt x="291" y="-44" on="1"/>
        <pt x="306" y="-29" on="0"/>
        <pt x="328" y="-29" on="1"/>
        <pt x="330" y="-29" on="0"/>
        <pt x="331" y="-29" on="1"/>
        <pt x="357" y="-30" on="0"/>
        <pt x="381" y="-70" on="0"/>
        <pt x="381" y="-92" on="1"/>
        <pt x="381" y="-126" on="0"/>
        <pt x="350" y="-180" on="0"/>
      </contour>
    </TTGlyph>
    <TTGlyph name="Ntilde" xMin="78" yMin="0" xMax="570" yMax="851">
      <contour>
        <pt x="570" y="0" on="1"/>
        <pt x="459" y="0" on="1"/>
        <pt x="188" y="473" on="1"/>
        <pt x="188" y="0" on="1"/>
        <pt x="78" y="0" on="1"/>
        <pt x="78" y="700" on="1"/>
        <pt x="188" y="700" on="1"/>
        <pt x="459" y="230" on="1"/>
        <pt x="459" y="700" on="1"/>
        <pt x="570" y="700" on="1"/>
      </contour>
      <contour>
        <pt x="467" y="845" on="1"/>
        <pt x="509" y="780" on="1"/>
        <pt x="475" y="740" on="0"/>
        <pt x="441" y="731" on="1"/>
        <pt x="426" y="727" on="0"/>
        <pt x="413" y="727" on="1"/>
        <pt x="395" y="727" on="0"/>
        <pt x="378" y="734" on="1"/>
        <pt x="349" y="746" on="0"/>
        <pt x="320" y="759" on="1"/>
        <pt x="298" y="769" on="0"/>
        <pt x="273" y="769" on="1"/>
        <pt x="266" y="769" on="0"/>
        <pt x="260" y="768" on="1"/>
        <pt x="227" y="765" on="0"/>
        <pt x="197" y="733" on="1"/>
        <pt x="158" y="798" on="1"/>
        <pt x="193" y="837" on="0"/>
        <pt x="228" y="846" on="1"/>
        <pt x="244" y="851" on="0"/>
        <pt x="258" y="851" on="1"/>
        <pt x="276" y="851" on="0"/>
        <pt x="292" y="844" on="1"/>
        <pt x="321" y="833" on="0"/>
        <pt x="350" y="820" on="1"/>
        <pt x="372" y="810" on="0"/>
        <pt x="397" y="810" on="1"/>
        <pt x="403" y="810" on="0"/>
        <pt x="408" y="811" on="1"/>
        <pt x="439" y="814" on="0"/>
      </contour>
    </TTGlyph>
    <TTGlyph name="Nu" xMin="80" yMin="0" xMax="572" yMax="700">
      <contour>
        <pt x="572" y="0" on="1"/>
        <pt x="461" y="0" on="1"/>
        <pt x="190" y="473" on="1"/>
        <pt x="190" y="0" on="1"/>
        <pt x="80" y="0" on="1"/>
        <pt x="80" y="700" on="1"/>
        <pt x="190" y="700" on="1"/>
        <pt x="461" y="230" on="1"/>
        <pt x="461" y="700" on="1"/>
        <pt x="572" y="700" on="1"/>
      </contour>
    </TTGlyph>
    <TTGlyph name="O" xMin="63" yMin="-11" xMax="483" yMax="716">
      <contour>
        <pt x="483" y="506" on="1"/>
        <pt x="483" y="185" on="1"/>
        <pt x="483" y="84" on="0"/>
        <pt x="360" y="-11" on="0"/>
        <pt x="188" y="-11" on="0"/>
        <pt x="63" y="84" on="0"/>
        <pt x="63" y="185" on="1"/>
        <pt x="63" y="507" on="1"/>
        <pt x="63" y="610" on="0"/>
        <pt x="176" y="716" on="0"/>
        <pt x="374" y="716" on="0"/>
        <pt x="483" y="604" on="0"/>
      </contour>
      <contour>
        <pt x="373" y="206" on="1"/>
        <pt x="373" y="470" on="1"/>
        <pt x="373" y="534" on="0"/>
        <pt x="334" y="597" on="0"/>
        <pt x="212" y="597" on="0"/>
        <pt x="173" y="536" on="0"/>
        <pt x="173" y="471" on="1"/>
        <pt x="173" y="204" on="1"/>
        <pt x="173" y="156" on="0"/>
        <pt x="222" y="101" on="0"/>
        <pt x="273" y="101" on="1"/>
        <pt x="320" y="101" on="0"/>
        <pt x="373" y="159" on="0"/>
      </contour>
    </TTGlyph>
    <TTGlyph name="OE" xMin="78" yMin="-11" xMax="722" yMax="716">
      <contour>
        <pt x="720" y="0" on="1"/>
        <pt x="388" y="0" on="1"/>
        <pt x="388" y="7" on="1"/>
        <pt x="342" y="-11" on="0"/>
        <pt x="289" y="-11" on="1"/>
        <pt x="203" y="-11" on="0"/>
        <pt x="78" y="84" on="0"/>
        <pt x="78" y="185" on="1"/>
        <pt x="78" y="507" on="1"/>
        <pt x="78" y="610" on="0"/>
        <pt x="191" y="716" on="0"/>
        <pt x="290" y="716" on="1"/>
        <pt x="346" y="716" on="0"/>
        <pt x="388" y="698" on="1"/>
        <pt x="388" y="700" on="1"/>
        <pt x="722" y="700" on="1"/>
        <pt x="722" y="590" on="1"/>
        <pt x="498" y="590" on="1"/>
        <pt x="498" y="515" on="1"/>
        <pt x="498" y="506" on="1"/>
        <pt x="498" y="413" on="1"/>
        <pt x="635" y="413" on="1"/>
        <pt x="604" y="308" on="1"/>
        <pt x="498" y="308" on="1"/>
        <pt x="498" y="185" on="1"/>
        <pt x="498" y="174" on="1"/>
        <pt x="498" y="100" on="1"/>
        <pt x="720" y="100" on="1"/>
      </contour>
      <contour>
        <pt x="388" y="201" on="1"/>
        <pt x="388" y="470" on="1"/>
        <pt x="388" y="534" on="0"/>
        <pt x="349" y="597" on="0"/>
        <pt x="227" y="597" on="0"/>
        <pt x="188" y="536" on="0"/>
        <pt x="188" y="471" on="1"/>
        <pt x="188" y="204" on="1"/>
        <pt x="188" y="156" on="0"/>
        <pt x="237" y="101" on="0"/>
        <pt x="288" y="101" on="1"/>
        <pt x="334" y="101" on="0"/>
        <pt x="386" y="156" on="0"/>
      </contour>
    </TTGlyph>
    <TTGlyph name="Oacute" xMin="63" yMin="-11" xMax="483" yMax="872">
      <contour>
        <pt x="483" y="506" on="1"/>
        <pt x="483" y="185" on="1"/>
        <pt x="483" y="84" on="0"/>
        <pt x="360" y="-11" on="0"/>
        <pt x="188" y="-11" on="0"/>
        <pt x="63" y="84" on="0"/>
        <pt x="63" y="185" on="1"/>
        <pt x="63" y="507" on="1"/>
        <pt x="63" y="610" on="0"/>
        <pt x="176" y="716" on="0"/>
        <pt x="374" y="716" on="0"/>
        <pt x="483" y="604" on="0"/>
      </contour>
      <contour>
        <pt x="373" y="206" on="1"/>
        <pt x="373" y="470" on="1"/>
        <pt x="373" y="534" on="0"/>
        <pt x="334" y="597" on="0"/>
        <pt x="212" y="597" on="0"/>
        <pt x="173" y="536" on="0"/>
        <pt x="173" y="471" on="1"/>
        <pt x="173" y="204" on="1"/>
        <pt x="173" y="156" on="0"/>
        <pt x="222" y="101" on="0"/>
        <pt x="273" y="101" on="1"/>
        <pt x="320" y="101" on="0"/>
        <pt x="373" y="159" on="0"/>
      </contour>
      <contour>
        <pt x="330" y="730" on="1"/>
        <pt x="257" y="730" on="1"/>
        <pt x="303" y="838" on="1"/>
        <pt x="313" y="861" on="0"/>
        <pt x="336" y="868" on="1"/>
        <pt x="347" y="872" on="0"/>
        <pt x="355" y="872" on="1"/>
        <pt x="364" y="872" on="0"/>
        <pt x="370" y="868" on="1"/>
        <pt x="390" y="858" on="0"/>
        <pt x="394" y="838" on="1"/>
        <pt x="395" y="835" on="0"/>
        <pt x="395" y="832" on="1"/>
        <pt x="395" y="814" on="0"/>
        <pt x="379" y="793" on="1"/>
      </contour>
    </TTGlyph>
    <TTGlyph name="Ocircumflex" xMin="63" yMin="-11" xMax="483" yMax="911">
      <contour>
        <pt x="483" y="506" on="1"/>
        <pt x="483" y="185" on="1"/>
        <pt x="483" y="84" on="0"/>
        <pt x="360" y="-11" on="0"/>
        <pt x="188" y="-11" on="0"/>
        <pt x="63" y="84" on="0"/>
        <pt x="63" y="185" on="1"/>
        <pt x="63" y="507" on="1"/>
        <pt x="63" y="610" on="0"/>
        <pt x="176" y="716" on="0"/>
        <pt x="374" y="716" on="0"/>
        <pt x="483" y="604" on="0"/>
      </contour>
      <contour>
        <pt x="373" y="206" on="1"/>
        <pt x="373" y="470" on="1"/>
        <pt x="373" y="534" on="0"/>
        <pt x="334" y="597" on="0"/>
        <pt x="212" y="597" on="0"/>
        <pt x="173" y="536" on="0"/>
        <pt x="173" y="471" on="1"/>
        <pt x="173" y="204" on="1"/>
        <pt x="173" y="156" on="0"/>
        <pt x="222" y="101" on="0"/>
        <pt x="273" y="101" on="1"/>
        <pt x="320" y="101" on="0"/>
        <pt x="373" y="159" on="0"/>
      </contour>
      <contour>
        <pt x="420" y="770" on="1"/>
        <pt x="353" y="731" on="1"/>
        <pt x="277" y="814" on="1"/>
        <pt x="196" y="731" on="1"/>
        <pt x="130" y="770" on="1"/>
        <pt x="278" y="911" on="1"/>
      </contour>
    </TTGlyph>
    <TTGlyph name="Odieresis" xMin="63" yMin="-11" xMax="483" yMax="821">
      <contour>
        <pt x="483" y="506" on="1"/>
        <pt x="483" y="185" on="1"/>
        <pt x="483" y="84" on="0"/>
        <pt x="360" y="-11" on="0"/>
        <pt x="188" y="-11" on="0"/>
        <pt x="63" y="84" on="0"/>
        <pt x="63" y="185" on="1"/>
        <pt x="63" y="507" on="1"/>
        <pt x="63" y="610" on="0"/>
        <pt x="176" y="716" on="0"/>
        <pt x="374" y="716" on="0"/>
        <pt x="483" y="604" on="0"/>
      </contour>
      <contour>
        <pt x="373" y="206" on="1"/>
        <pt x="373" y="470" on="1"/>
        <pt x="373" y="534" on="0"/>
        <pt x="334" y="597" on="0"/>
        <pt x="212" y="597" on="0"/>
        <pt x="173" y="536" on="0"/>
        <pt x="173" y="471" on="1"/>
        <pt x="173" y="204" on="1"/>
        <pt x="173" y="156" on="0"/>
        <pt x="222" y="101" on="0"/>
        <pt x="273" y="101" on="1"/>
        <pt x="320" y="101" on="0"/>
        <pt x="373" y="159" on="0"/>
      </contour>
      <contour>
        <pt x="249" y="775" on="1"/>
        <pt x="249" y="757" on="0"/>
        <pt x="223" y="731" on="0"/>
        <pt x="204" y="731" on="1"/>
        <pt x="186" y="731" on="0"/>
        <pt x="160" y="757" on="0"/>
        <pt x="160" y="775" on="1"/>
        <pt x="160" y="794" on="0"/>
        <pt x="186" y="820" on="0"/>
        <pt x="204" y="820" on="1"/>
        <pt x="223" y="820" on="0"/>
        <pt x="249" y="794" on="0"/>
      </contour>
      <contour>
        <pt x="356" y="731" on="0"/>
        <pt x="318" y="731" on="0"/>
        <pt x="292" y="757" on="0"/>
        <pt x="292" y="795" on="0"/>
        <pt x="318" y="821" on="0"/>
        <pt x="356" y="821" on="0"/>
        <pt x="382" y="795" on="0"/>
        <pt x="382" y="757" on="0"/>
      </contour>
    </TTGlyph>
    <TTGlyph name="Ograve" xMin="63" yMin="-11" xMax="483" yMax="874">
      <contour>
        <pt x="483" y="506" on="1"/>
        <pt x="483" y="185" on="1"/>
        <pt x="483" y="84" on="0"/>
        <pt x="360" y="-11" on="0"/>
        <pt x="188" y="-11" on="0"/>
        <pt x="63" y="84" on="0"/>
        <pt x="63" y="185" on="1"/>
        <pt x="63" y="507" on="1"/>
        <pt x="63" y="610" on="0"/>
        <pt x="176" y="716" on="0"/>
        <pt x="374" y="716" on="0"/>
        <pt x="483" y="604" on="0"/>
      </contour>
      <contour>
        <pt x="373" y="206" on="1"/>
        <pt x="373" y="470" on="1"/>
        <pt x="373" y="534" on="0"/>
        <pt x="334" y="597" on="0"/>
        <pt x="212" y="597" on="0"/>
        <pt x="173" y="536" on="0"/>
        <pt x="173" y="471" on="1"/>
        <pt x="173" y="204" on="1"/>
        <pt x="173" y="156" on="0"/>
        <pt x="222" y="101" on="0"/>
        <pt x="273" y="101" on="1"/>
        <pt x="320" y="101" on="0"/>
        <pt x="373" y="159" on="0"/>
      </contour>
      <contour>
        <pt x="302" y="732" on="1"/>
        <pt x="229" y="732" on="1"/>
        <pt x="180" y="795" on="1"/>
        <pt x="164" y="816" on="0"/>
        <pt x="164" y="834" on="1"/>
        <pt x="164" y="837" on="0"/>
        <pt x="165" y="840" on="1"/>
        <pt x="169" y="860" on="0"/>
        <pt x="189" y="870" on="1"/>
        <pt x="195" y="874" on="0"/>
        <pt x="204" y="874" on="1"/>
        <pt x="212" y="874" on="0"/>
        <pt x="223" y="870" on="1"/>
        <pt x="246" y="863" on="0"/>
        <pt x="256" y="840" on="1"/>
      </contour>
    </TTGlyph>
    <TTGlyph name="Ohungarumlaut" xMin="63" yMin="-11" xMax="483" yMax="876">
      <contour>
        <pt x="483" y="506" on="1"/>
        <pt x="483" y="185" on="1"/>
        <pt x="483" y="84" on="0"/>
        <pt x="360" y="-11" on="0"/>
        <pt x="188" y="-11" on="0"/>
        <pt x="63" y="84" on="0"/>
        <pt x="63" y="185" on="1"/>
        <pt x="63" y="507" on="1"/>
        <pt x="63" y="610" on="0"/>
        <pt x="176" y="716" on="0"/>
        <pt x="374" y="716" on="0"/>
        <pt x="483" y="604" on="0"/>
      </contour>
      <contour>
        <pt x="373" y="206" on="1"/>
        <pt x="373" y="470" on="1"/>
        <pt x="373" y="534" on="0"/>
        <pt x="334" y="597" on="0"/>
        <pt x="212" y="597" on="0"/>
        <pt x="173" y="536" on="0"/>
        <pt x="173" y="471" on="1"/>
        <pt x="173" y="204" on="1"/>
        <pt x="173" y="156" on="0"/>
        <pt x="222" y="101" on="0"/>
        <pt x="273" y="101" on="1"/>
        <pt x="320" y="101" on="0"/>
        <pt x="373" y="159" on="0"/>
      </contour>
      <contour>
        <pt x="359" y="734" on="1"/>
        <pt x="286" y="734" on="1"/>
        <pt x="332" y="842" on="1"/>
        <pt x="342" y="865" on="0"/>
        <pt x="365" y="872" on="1"/>
        <pt x="376" y="876" on="0"/>
        <pt x="384" y="876" on="1"/>
        <pt x="393" y="876" on="0"/>
        <pt x="399" y="872" on="1"/>
        <pt x="419" y="862" on="0"/>
        <pt x="423" y="842" on="1"/>
        <pt x="424" y="839" on="0"/>
        <pt x="424" y="836" on="1"/>
        <pt x="424" y="818" on="0"/>
        <pt x="408" y="797" on="1"/>
      </contour>
      <contour>
        <pt x="218" y="734" on="1"/>
        <pt x="145" y="734" on="1"/>
        <pt x="191" y="842" on="1"/>
        <pt x="201" y="865" on="0"/>
        <pt x="224" y="872" on="1"/>
        <pt x="235" y="876" on="0"/>
        <pt x="243" y="876" on="1"/>
        <pt x="252" y="876" on="0"/>
        <pt x="258" y="872" on="1"/>
        <pt x="278" y="862" on="0"/>
        <pt x="282" y="842" on="1"/>
        <pt x="283" y="839" on="0"/>
        <pt x="283" y="836" on="1"/>
        <pt x="283" y="818" on="0"/>
        <pt x="267" y="797" on="1"/>
      </contour>
    </TTGlyph>
    <TTGlyph name="Omacron" xMin="63" yMin="-11" xMax="483" yMax="821">
      <contour>
        <pt x="483" y="506" on="1"/>
        <pt x="483" y="185" on="1"/>
        <pt x="483" y="84" on="0"/>
        <pt x="360" y="-11" on="0"/>
        <pt x="188" y="-11" on="0"/>
        <pt x="63" y="84" on="0"/>
        <pt x="63" y="185" on="1"/>
        <pt x="63" y="507" on="1"/>
        <pt x="63" y="610" on="0"/>
        <pt x="176" y="716" on="0"/>
        <pt x="374" y="716" on="0"/>
        <pt x="483" y="604" on="0"/>
      </contour>
      <contour>
        <pt x="373" y="206" on="1"/>
        <pt x="373" y="470" on="1"/>
        <pt x="373" y="534" on="0"/>
        <pt x="334" y="597" on="0"/>
        <pt x="212" y="597" on="0"/>
        <pt x="173" y="536" on="0"/>
        <pt x="173" y="471" on="1"/>
        <pt x="173" y="204" on="1"/>
        <pt x="173" y="156" on="0"/>
        <pt x="222" y="101" on="0"/>
        <pt x="273" y="101" on="1"/>
        <pt x="320" y="101" on="0"/>
        <pt x="373" y="159" on="0"/>
      </contour>
      <contour>
        <pt x="377" y="730" on="1"/>
        <pt x="160" y="730" on="1"/>
        <pt x="160" y="821" on="1"/>
        <pt x="377" y="821" on="1"/>
      </contour>
    </TTGlyph>
    <TTGlyph name="Omega" xMin="78" yMin="0" xMax="592" yMax="707">
      <contour>
        <pt x="592" y="0" on="1"/>
        <pt x="364" y="0" on="1"/>
        <pt x="364" y="101" on="1"/>
        <pt x="365" y="101" on="0"/>
        <pt x="384" y="100" on="0"/>
        <pt x="396" y="100" on="0"/>
        <pt x="418" y="104" on="0"/>
        <pt x="433" y="111" on="0"/>
        <pt x="451" y="125" on="0"/>
        <pt x="461" y="145" on="0"/>
        <pt x="469" y="176" on="0"/>
        <pt x="469" y="196" on="1"/>
        <pt x="469" y="469" on="1"/>
        <pt x="469" y="526" on="0"/>
        <pt x="421" y="590" on="0"/>
        <pt x="376" y="590" on="1"/>
        <pt x="299" y="590" on="1"/>
        <pt x="247" y="590" on="0"/>
        <pt x="200" y="536" on="0"/>
        <pt x="200" y="469" on="1"/>
        <pt x="200" y="195" on="1"/>
        <pt x="200" y="172" on="0"/>
        <pt x="209" y="138" on="0"/>
        <pt x="226" y="118" on="0"/>
        <pt x="243" y="105" on="0"/>
        <pt x="269" y="101" on="0"/>
        <pt x="282" y="100" on="0"/>
        <pt x="305" y="101" on="0"/>
        <pt x="306" y="101" on="1"/>
        <pt x="306" y="0" on="1"/>
        <pt x="78" y="0" on="1"/>
        <pt x="95" y="101" on="1"/>
        <pt x="113" y="101" on="1"/>
        <pt x="91" y="136" on="0"/>
        <pt x="91" y="196" on="1"/>
        <pt x="91" y="503" on="1"/>
        <pt x="91" y="595" on="0"/>
        <pt x="185" y="707" on="0"/>
        <pt x="279" y="707" on="1"/>
        <pt x="391" y="707" on="1"/>
        <pt x="485" y="707" on="0"/>
        <pt x="579" y="595" on="0"/>
        <pt x="579" y="503" on="1"/>
        <pt x="579" y="196" on="1"/>
        <pt x="579" y="168" on="0"/>
        <pt x="571" y="131" on="0"/>
        <pt x="558" y="105" on="0"/>
        <pt x="557" y="101" on="1"/>
        <pt x="575" y="101" on="1"/>
      </contour>
    </TTGlyph>
    <TTGlyph name="Omegatonos" xMin="78" yMin="0" xMax="686" yMax="710">
      <contour>
        <pt x="686" y="0" on="1"/>
        <pt x="458" y="0" on="1"/>
        <pt x="458" y="101" on="1"/>
        <pt x="459" y="101" on="0"/>
        <pt x="478" y="100" on="0"/>
        <pt x="490" y="100" on="0"/>
        <pt x="512" y="104" on="0"/>
        <pt x="527" y="111" on="0"/>
        <pt x="545" y="125" on="0"/>
        <pt x="555" y="145" on="0"/>
        <pt x="563" y="176" on="0"/>
        <pt x="563" y="196" on="1"/>
        <pt x="563" y="469" on="1"/>
        <pt x="563" y="526" on="0"/>
        <pt x="515" y="590" on="0"/>
        <pt x="470" y="590" on="1"/>
        <pt x="393" y="590" on="1"/>
        <pt x="341" y="590" on="0"/>
        <pt x="294" y="536" on="0"/>
        <pt x="294" y="469" on="1"/>
        <pt x="294" y="195" on="1"/>
        <pt x="294" y="172" on="0"/>
        <pt x="303" y="138" on="0"/>
        <pt x="320" y="118" on="0"/>
        <pt x="337" y="105" on="0"/>
        <pt x="363" y="101" on="0"/>
        <pt x="376" y="100" on="0"/>
        <pt x="399" y="101" on="0"/>
        <pt x="400" y="101" on="1"/>
        <pt x="400" y="0" on="1"/>
        <pt x="172" y="0" on="1"/>
        <pt x="189" y="101" on="1"/>
        <pt x="207" y="101" on="1"/>
        <pt x="185" y="136" on="0"/>
        <pt x="185" y="196" on="1"/>
        <pt x="185" y="503" on="1"/>
        <pt x="185" y="595" on="0"/>
        <pt x="279" y="707" on="0"/>
        <pt x="373" y="707" on="1"/>
        <pt x="485" y="707" on="1"/>
        <pt x="579" y="707" on="0"/>
        <pt x="673" y="595" on="0"/>
        <pt x="673" y="503" on="1"/>
        <pt x="673" y="196" on="1"/>
        <pt x="673" y="168" on="0"/>
        <pt x="665" y="131" on="0"/>
        <pt x="652" y="105" on="0"/>
        <pt x="651" y="101" on="1"/>
        <pt x="669" y="101" on="1"/>
      </contour>
      <contour>
        <pt x="151" y="568" on="1"/>
        <pt x="78" y="568" on="1"/>
        <pt x="124" y="676" on="1"/>
        <pt x="134" y="699" on="0"/>
        <pt x="157" y="706" on="1"/>
        <pt x="168" y="710" on="0"/>
        <pt x="176" y="710" on="1"/>
        <pt x="185" y="710" on="0"/>
        <pt x="191" y="706" on="1"/>
        <pt x="211" y="696" on="0"/>
        <pt x="215" y="676" on="1"/>
        <pt x="216" y="673" on="0"/>
        <pt x="216" y="670" on="1"/>
        <pt x="216" y="652" on="0"/>
        <pt x="200" y="631" on="1"/>
      </contour>
    </TTGlyph>
    <TTGlyph name="Omicron" xMin="62" yMin="-11" xMax="482" yMax="716">
      <contour>
        <pt x="482" y="506" on="1"/>
        <pt x="482" y="185" on="1"/>
        <pt x="482" y="84" on="0"/>
        <pt x="359" y="-11" on="0"/>
        <pt x="187" y="-11" on="0"/>
        <pt x="62" y="84" on="0"/>
        <pt x="62" y="185" on="1"/>
        <pt x="62" y="507" on="1"/>
        <pt x="62" y="610" on="0"/>
        <pt x="175" y="716" on="0"/>
        <pt x="373" y="716" on="0"/>
        <pt x="482" y="604" on="0"/>
      </contour>
      <contour>
        <pt x="372" y="206" on="1"/>
        <pt x="372" y="470" on="1"/>
        <pt x="372" y="534" on="0"/>
        <pt x="333" y="597" on="0"/>
        <pt x="211" y="597" on="0"/>
        <pt x="172" y="536" on="0"/>
        <pt x="172" y="471" on="1"/>
        <pt x="172" y="204" on="1"/>
        <pt x="172" y="156" on="0"/>
        <pt x="221" y="101" on="0"/>
        <pt x="272" y="101" on="1"/>
        <pt x="319" y="101" on="0"/>
        <pt x="372" y="159" on="0"/>
      </contour>
    </TTGlyph>
    <TTGlyph name="Omicrontonos" xMin="78" yMin="-11" xMax="615" yMax="716">
      <contour>
        <pt x="615" y="506" on="1"/>
        <pt x="615" y="185" on="1"/>
        <pt x="615" y="84" on="0"/>
        <pt x="492" y="-11" on="0"/>
        <pt x="320" y="-11" on="0"/>
        <pt x="195" y="84" on="0"/>
        <pt x="195" y="185" on="1"/>
        <pt x="195" y="507" on="1"/>
        <pt x="195" y="610" on="0"/>
        <pt x="308" y="716" on="0"/>
        <pt x="506" y="716" on="0"/>
        <pt x="615" y="604" on="0"/>
      </contour>
      <contour>
        <pt x="505" y="206" on="1"/>
        <pt x="505" y="470" on="1"/>
        <pt x="505" y="534" on="0"/>
        <pt x="466" y="597" on="0"/>
        <pt x="344" y="597" on="0"/>
        <pt x="305" y="536" on="0"/>
        <pt x="305" y="471" on="1"/>
        <pt x="305" y="204" on="1"/>
        <pt x="305" y="156" on="0"/>
        <pt x="354" y="101" on="0"/>
        <pt x="405" y="101" on="1"/>
        <pt x="452" y="101" on="0"/>
        <pt x="505" y="159" on="0"/>
      </contour>
      <contour>
        <pt x="151" y="568" on="1"/>
        <pt x="78" y="568" on="1"/>
        <pt x="124" y="676" on="1"/>
        <pt x="134" y="699" on="0"/>
        <pt x="157" y="706" on="1"/>
        <pt x="168" y="710" on="0"/>
        <pt x="176" y="710" on="1"/>
        <pt x="185" y="710" on="0"/>
        <pt x="191" y="706" on="1"/>
        <pt x="211" y="696" on="0"/>
        <pt x="215" y="676" on="1"/>
        <pt x="216" y="673" on="0"/>
        <pt x="216" y="670" on="1"/>
        <pt x="216" y="652" on="0"/>
        <pt x="200" y="631" on="1"/>
      </contour>
    </TTGlyph>
    <TTGlyph name="Oslash" xMin="78" yMin="-114" xMax="522" yMax="817">
      <contour>
        <pt x="195" y="-114" on="1"/>
        <pt x="78" y="-114" on="1"/>
        <pt x="135" y="49" on="1"/>
        <pt x="86" y="100" on="0"/>
        <pt x="86" y="185" on="1"/>
        <pt x="86" y="507" on="1"/>
        <pt x="86" y="610" on="0"/>
        <pt x="199" y="716" on="0"/>
        <pt x="298" y="716" on="1"/>
        <pt x="332" y="716" on="0"/>
        <pt x="364" y="708" on="1"/>
        <pt x="402" y="817" on="1"/>
        <pt x="522" y="817" on="1"/>
        <pt x="462" y="648" on="1"/>
        <pt x="506" y="593" on="0"/>
        <pt x="506" y="506" on="1"/>
        <pt x="506" y="185" on="1"/>
        <pt x="506" y="84" on="0"/>
        <pt x="383" y="-11" on="0"/>
        <pt x="297" y="-11" on="1"/>
        <pt x="262" y="-11" on="0"/>
        <pt x="233" y="-4" on="1"/>
      </contour>
      <contour>
        <pt x="196" y="225" on="1"/>
        <pt x="324" y="594" on="1"/>
        <pt x="312" y="597" on="0"/>
        <pt x="296" y="597" on="1"/>
        <pt x="235" y="597" on="0"/>
        <pt x="196" y="536" on="0"/>
        <pt x="196" y="471" on="1"/>
      </contour>
      <contour>
        <pt x="396" y="206" on="1"/>
        <pt x="396" y="458" on="1"/>
        <pt x="271" y="103" on="1"/>
        <pt x="278" y="101" on="0"/>
        <pt x="296" y="101" on="1"/>
        <pt x="343" y="101" on="0"/>
        <pt x="396" y="159" on="0"/>
      </contour>
    </TTGlyph>
    <TTGlyph name="Otilde" xMin="63" yMin="-11" xMax="483" yMax="853">
      <contour>
        <pt x="483" y="506" on="1"/>
        <pt x="483" y="185" on="1"/>
        <pt x="483" y="84" on="0"/>
        <pt x="360" y="-11" on="0"/>
        <pt x="188" y="-11" on="0"/>
        <pt x="63" y="84" on="0"/>
        <pt x="63" y="185" on="1"/>
        <pt x="63" y="507" on="1"/>
        <pt x="63" y="610" on="0"/>
        <pt x="176" y="716" on="0"/>
        <pt x="374" y="716" on="0"/>
        <pt x="483" y="604" on="0"/>
      </contour>
      <contour>
        <pt x="373" y="206" on="1"/>
        <pt x="373" y="470" on="1"/>
        <pt x="373" y="534" on="0"/>
        <pt x="334" y="597" on="0"/>
        <pt x="212" y="597" on="0"/>
        <pt x="173" y="536" on="0"/>
        <pt x="173" y="471" on="1"/>
        <pt x="173" y="204" on="1"/>
        <pt x="173" y="156" on="0"/>
        <pt x="222" y="101" on="0"/>
        <pt x="273" y="101" on="1"/>
        <pt x="320" y="101" on="0"/>
        <pt x="373" y="159" on="0"/>
      </contour>
      <contour>
        <pt x="420" y="847" on="1"/>
        <pt x="462" y="782" on="1"/>
        <pt x="428" y="742" on="0"/>
        <pt x="394" y="733" on="1"/>
        <pt x="379" y="729" on="0"/>
        <pt x="366" y="729" on="1"/>
        <pt x="348" y="729" on="0"/>
        <pt x="331" y="736" on="1"/>
        <pt x="302" y="748" on="0"/>
        <pt x="274" y="761" on="1"/>
        <pt x="251" y="771" on="0"/>
        <pt x="226" y="771" on="1"/>
        <pt x="219" y="771" on="0"/>
        <pt x="212" y="770" on="1"/>
        <pt x="180" y="767" on="0"/>
        <pt x="150" y="735" on="1"/>
        <pt x="111" y="800" on="1"/>
        <pt x="146" y="839" on="0"/>
        <pt x="181" y="848" on="1"/>
        <pt x="197" y="853" on="0"/>
        <pt x="211" y="853" on="1"/>
        <pt x="229" y="853" on="0"/>
        <pt x="245" y="846" on="1"/>
        <pt x="274" y="835" on="0"/>
        <pt x="302" y="822" on="1"/>
        <pt x="325" y="812" on="0"/>
        <pt x="350" y="812" on="1"/>
        <pt x="356" y="812" on="0"/>
        <pt x="362" y="813" on="1"/>
        <pt x="392" y="816" on="0"/>
      </contour>
    </TTGlyph>
    <TTGlyph name="P" xMin="78" yMin="0" xMax="512" yMax="700">
      <contour>
        <pt x="188" y="300" on="1"/>
        <pt x="282" y="300" on="1"/>
        <pt x="316" y="300" on="0"/>
        <pt x="365" y="322" on="0"/>
        <pt x="388" y="349" on="0"/>
        <pt x="401" y="399" on="0"/>
        <pt x="402" y="428" on="0"/>
        <pt x="402" y="454" on="1"/>
        <pt x="402" y="459" on="0"/>
        <pt x="402" y="461" on="1"/>
        <pt x="402" y="538" on="0"/>
        <pt x="342" y="590" on="0"/>
        <pt x="278" y="590" on="1"/>
        <pt x="188" y="590" on="1"/>
      </contour>
      <contour>
        <pt x="188" y="0" on="1"/>
        <pt x="78" y="0" on="1"/>
        <pt x="78" y="700" on="1"/>
        <pt x="306" y="700" on="1"/>
        <pt x="411" y="700" on="0"/>
        <pt x="512" y="565" on="0"/>
        <pt x="512" y="463" on="1"/>
        <pt x="512" y="195" on="0"/>
        <pt x="315" y="195" on="1"/>
        <pt x="188" y="195" on="1"/>
      </contour>
    </TTGlyph>
    <TTGlyph name="Phi" xMin="78" yMin="-35" xMax="605" yMax="711">
      <contour>
        <pt x="394" y="-35" on="1"/>
        <pt x="284" y="-22" on="1"/>
        <pt x="284" y="15" on="1"/>
        <pt x="266" y="15" on="1"/>
        <pt x="210" y="15" on="0"/>
        <pt x="134" y="47" on="0"/>
        <pt x="94" y="107" on="0"/>
        <pt x="78" y="178" on="0"/>
        <pt x="78" y="225" on="1"/>
        <pt x="78" y="517" on="1"/>
        <pt x="78" y="669" on="0"/>
        <pt x="194" y="706" on="1"/>
        <pt x="252" y="622" on="1"/>
        <pt x="231" y="614" on="0"/>
        <pt x="218" y="607" on="0"/>
        <pt x="195" y="585" on="0"/>
        <pt x="188" y="548" on="0"/>
        <pt x="188" y="517" on="1"/>
        <pt x="188" y="251" on="1"/>
        <pt x="188" y="217" on="0"/>
        <pt x="190" y="181" on="0"/>
        <pt x="198" y="137" on="0"/>
        <pt x="214" y="116" on="0"/>
        <pt x="244" y="101" on="0"/>
        <pt x="266" y="101" on="1"/>
        <pt x="284" y="101" on="1"/>
        <pt x="284" y="605" on="1"/>
        <pt x="287" y="653" on="0"/>
        <pt x="368" y="711" on="0"/>
        <pt x="418" y="711" on="1"/>
        <pt x="505" y="711" on="0"/>
        <pt x="605" y="602" on="0"/>
        <pt x="605" y="511" on="1"/>
        <pt x="605" y="225" on="1"/>
        <pt x="605" y="127" on="0"/>
        <pt x="522" y="15" on="0"/>
        <pt x="417" y="15" on="1"/>
        <pt x="394" y="15" on="1"/>
      </contour>
      <contour>
        <pt x="394" y="101" on="1"/>
        <pt x="417" y="101" on="1"/>
        <pt x="439" y="101" on="0"/>
        <pt x="469" y="116" on="0"/>
        <pt x="484" y="136" on="0"/>
        <pt x="492" y="183" on="0"/>
        <pt x="493" y="216" on="0"/>
        <pt x="493" y="251" on="1"/>
        <pt x="493" y="454" on="1"/>
        <pt x="493" y="538" on="0"/>
        <pt x="475" y="601" on="0"/>
        <pt x="439" y="601" on="1"/>
        <pt x="432" y="601" on="0"/>
        <pt x="420" y="599" on="0"/>
        <pt x="411" y="597" on="0"/>
        <pt x="404" y="590" on="0"/>
        <pt x="400" y="587" on="0"/>
        <pt x="397" y="577" on="0"/>
        <pt x="395" y="574" on="0"/>
        <pt x="394" y="562" on="0"/>
        <pt x="394" y="559" on="0"/>
        <pt x="394" y="546" on="0"/>
        <pt x="394" y="545" on="1"/>
      </contour>
    </TTGlyph>
    <TTGlyph name="Pi" xMin="80" yMin="0" xMax="510" yMax="700">
      <contour>
        <pt x="510" y="0" on="1"/>
        <pt x="400" y="0" on="1"/>
        <pt x="400" y="590" on="1"/>
        <pt x="190" y="590" on="1"/>
        <pt x="190" y="0" on="1"/>
        <pt x="80" y="0" on="1"/>
        <pt x="80" y="700" on="1"/>
        <pt x="510" y="700" on="1"/>
      </contour>
    </TTGlyph>
    <TTGlyph name="Psi" xMin="54" yMin="0" xMax="581" yMax="709">
      <contour>
        <pt x="370" y="0" on="1"/>
        <pt x="262" y="0" on="1"/>
        <pt x="261" y="212" on="1"/>
        <pt x="242" y="212" on="1"/>
        <pt x="147" y="212" on="0"/>
        <pt x="54" y="315" on="0"/>
        <pt x="54" y="406" on="1"/>
        <pt x="54" y="700" on="1"/>
        <pt x="163" y="700" on="1"/>
        <pt x="163" y="441" on="1"/>
        <pt x="163" y="363" on="0"/>
        <pt x="189" y="308" on="0"/>
        <pt x="242" y="308" on="1"/>
        <pt x="261" y="308" on="1"/>
        <pt x="261" y="700" on="1"/>
        <pt x="370" y="700" on="1"/>
        <pt x="370" y="308" on="1"/>
        <pt x="393" y="308" on="1"/>
        <pt x="446" y="308" on="0"/>
        <pt x="472" y="365" on="0"/>
        <pt x="472" y="443" on="1"/>
        <pt x="472" y="564" on="1"/>
        <pt x="472" y="589" on="0"/>
        <pt x="469" y="621" on="0"/>
        <pt x="456" y="643" on="0"/>
        <pt x="452" y="650" on="0"/>
        <pt x="427" y="665" on="0"/>
        <pt x="425" y="667" on="1"/>
        <pt x="525" y="709" on="1"/>
        <pt x="552" y="692" on="0"/>
        <pt x="578" y="633" on="0"/>
        <pt x="581" y="591" on="0"/>
        <pt x="581" y="549" on="1"/>
        <pt x="581" y="406" on="1"/>
        <pt x="581" y="315" on="0"/>
        <pt x="488" y="212" on="0"/>
        <pt x="393" y="212" on="1"/>
        <pt x="370" y="212" on="1"/>
      </contour>
    </TTGlyph>
    <TTGlyph name="Q" xMin="63" yMin="-116" xMax="483" yMax="716">
      <contour>
        <pt x="431" y="-22" on="1"/>
        <pt x="417" y="-116" on="1"/>
        <pt x="412" y="-116" on="0"/>
        <pt x="407" y="-116" on="1"/>
        <pt x="276" y="-116" on="0"/>
        <pt x="236" y="-8" on="1"/>
        <pt x="206" y="-5" on="0"/>
        <pt x="151" y="17" on="0"/>
        <pt x="96" y="58" on="0"/>
        <pt x="63" y="134" on="0"/>
        <pt x="63" y="185" on="1"/>
        <pt x="63" y="507" on="1"/>
        <pt x="63" y="610" on="0"/>
        <pt x="176" y="716" on="0"/>
        <pt x="374" y="716" on="0"/>
        <pt x="483" y="604" on="0"/>
        <pt x="483" y="506" on="1"/>
        <pt x="483" y="185" on="1"/>
        <pt x="483" y="101" on="0"/>
        <pt x="400" y="11" on="0"/>
        <pt x="348" y="1" on="1"/>
        <pt x="361" y="-14" on="0"/>
        <pt x="394" y="-22" on="0"/>
      </contour>
      <contour>
        <pt x="373" y="187" on="1"/>
        <pt x="373" y="505" on="1"/>
        <pt x="373" y="520" on="0"/>
        <pt x="366" y="547" on="0"/>
        <pt x="347" y="580" on="0"/>
        <pt x="304" y="599" on="0"/>
        <pt x="273" y="599" on="1"/>
        <pt x="213" y="599" on="0"/>
        <pt x="173" y="548" on="0"/>
        <pt x="173" y="505" on="1"/>
        <pt x="173" y="186" on="1"/>
        <pt x="173" y="101" on="0"/>
        <pt x="218" y="101" on="1"/>
        <pt x="217" y="107" on="0"/>
        <pt x="217" y="156" on="1"/>
        <pt x="217" y="174" on="1"/>
        <pt x="327" y="174" on="1"/>
        <pt x="327" y="157" on="1"/>
        <pt x="327" y="102" on="1"/>
        <pt x="373" y="102" on="0"/>
      </contour>
    </TTGlyph>
    <TTGlyph name="R" xMin="78" yMin="0" xMax="513" yMax="700">
      <contour>
        <pt x="513" y="0" on="1"/>
        <pt x="401" y="0" on="1"/>
        <pt x="334" y="195" on="1"/>
        <pt x="188" y="195" on="1"/>
        <pt x="188" y="0" on="1"/>
        <pt x="78" y="0" on="1"/>
        <pt x="78" y="700" on="1"/>
        <pt x="315" y="700" on="1"/>
        <pt x="412" y="700" on="0"/>
        <pt x="512" y="563" on="0"/>
        <pt x="512" y="462" on="1"/>
        <pt x="512" y="413" on="0"/>
        <pt x="507" y="355" on="0"/>
        <pt x="471" y="263" on="0"/>
        <pt x="435" y="232" on="1"/>
      </contour>
      <contour>
        <pt x="188" y="300" on="1"/>
        <pt x="289" y="300" on="1"/>
        <pt x="320" y="300" on="0"/>
        <pt x="363" y="324" on="0"/>
        <pt x="383" y="353" on="0"/>
        <pt x="395" y="406" on="0"/>
        <pt x="396" y="436" on="0"/>
        <pt x="396" y="462" on="1"/>
        <pt x="396" y="539" on="0"/>
        <pt x="334" y="589" on="0"/>
        <pt x="269" y="589" on="1"/>
        <pt x="188" y="589" on="1"/>
      </contour>
    </TTGlyph>
    <TTGlyph name="Racute" xMin="78" yMin="0" xMax="513" yMax="872">
      <contour>
        <pt x="513" y="0" on="1"/>
        <pt x="401" y="0" on="1"/>
        <pt x="334" y="195" on="1"/>
        <pt x="188" y="195" on="1"/>
        <pt x="188" y="0" on="1"/>
        <pt x="78" y="0" on="1"/>
        <pt x="78" y="700" on="1"/>
        <pt x="315" y="700" on="1"/>
        <pt x="412" y="700" on="0"/>
        <pt x="512" y="563" on="0"/>
        <pt x="512" y="462" on="1"/>
        <pt x="512" y="413" on="0"/>
        <pt x="507" y="355" on="0"/>
        <pt x="471" y="263" on="0"/>
        <pt x="435" y="232" on="1"/>
      </contour>
      <contour>
        <pt x="188" y="300" on="1"/>
        <pt x="289" y="300" on="1"/>
        <pt x="320" y="300" on="0"/>
        <pt x="363" y="324" on="0"/>
        <pt x="383" y="353" on="0"/>
        <pt x="395" y="406" on="0"/>
        <pt x="396" y="436" on="0"/>
        <pt x="396" y="462" on="1"/>
        <pt x="396" y="539" on="0"/>
        <pt x="334" y="589" on="0"/>
        <pt x="269" y="589" on="1"/>
        <pt x="188" y="589" on="1"/>
      </contour>
      <contour>
        <pt x="300" y="730" on="1"/>
        <pt x="227" y="730" on="1"/>
        <pt x="273" y="838" on="1"/>
        <pt x="283" y="861" on="0"/>
        <pt x="306" y="868" on="1"/>
        <pt x="317" y="872" on="0"/>
        <pt x="325" y="872" on="1"/>
        <pt x="334" y="872" on="0"/>
        <pt x="340" y="868" on="1"/>
        <pt x="360" y="858" on="0"/>
        <pt x="364" y="838" on="1"/>
        <pt x="365" y="835" on="0"/>
        <pt x="365" y="832" on="1"/>
        <pt x="365" y="814" on="0"/>
        <pt x="349" y="793" on="1"/>
      </contour>
    </TTGlyph>
    <TTGlyph name="Rcaron" xMin="78" yMin="0" xMax="513" yMax="914">
      <contour>
        <pt x="513" y="0" on="1"/>
        <pt x="401" y="0" on="1"/>
        <pt x="334" y="195" on="1"/>
        <pt x="188" y="195" on="1"/>
        <pt x="188" y="0" on="1"/>
        <pt x="78" y="0" on="1"/>
        <pt x="78" y="700" on="1"/>
        <pt x="315" y="700" on="1"/>
        <pt x="412" y="700" on="0"/>
        <pt x="512" y="563" on="0"/>
        <pt x="512" y="462" on="1"/>
        <pt x="512" y="413" on="0"/>
        <pt x="507" y="355" on="0"/>
        <pt x="471" y="263" on="0"/>
        <pt x="435" y="232" on="1"/>
      </contour>
      <contour>
        <pt x="188" y="300" on="1"/>
        <pt x="289" y="300" on="1"/>
        <pt x="320" y="300" on="0"/>
        <pt x="363" y="324" on="0"/>
        <pt x="383" y="353" on="0"/>
        <pt x="395" y="406" on="0"/>
        <pt x="396" y="436" on="0"/>
        <pt x="396" y="462" on="1"/>
        <pt x="396" y="539" on="0"/>
        <pt x="334" y="589" on="0"/>
        <pt x="269" y="589" on="1"/>
        <pt x="188" y="589" on="1"/>
      </contour>
      <contour>
        <pt x="426" y="875" on="1"/>
        <pt x="284" y="734" on="1"/>
        <pt x="136" y="875" on="1"/>
        <pt x="202" y="914" on="1"/>
        <pt x="283" y="831" on="1"/>
        <pt x="359" y="914" on="1"/>
      </contour>
    </TTGlyph>
    <TTGlyph name="Rcommaaccent" xMin="78" yMin="-221" xMax="513" yMax="700">
      <contour>
        <pt x="513" y="0" on="1"/>
        <pt x="401" y="0" on="1"/>
        <pt x="334" y="195" on="1"/>
        <pt x="188" y="195" on="1"/>
        <pt x="188" y="0" on="1"/>
        <pt x="78" y="0" on="1"/>
        <pt x="78" y="700" on="1"/>
        <pt x="315" y="700" on="1"/>
        <pt x="412" y="700" on="0"/>
        <pt x="512" y="563" on="0"/>
        <pt x="512" y="462" on="1"/>
        <pt x="512" y="413" on="0"/>
        <pt x="507" y="355" on="0"/>
        <pt x="471" y="263" on="0"/>
        <pt x="435" y="232" on="1"/>
      </contour>
      <contour>
        <pt x="188" y="300" on="1"/>
        <pt x="289" y="300" on="1"/>
        <pt x="320" y="300" on="0"/>
        <pt x="363" y="324" on="0"/>
        <pt x="383" y="353" on="0"/>
        <pt x="395" y="406" on="0"/>
        <pt x="396" y="436" on="0"/>
        <pt x="396" y="462" on="1"/>
        <pt x="396" y="539" on="0"/>
        <pt x="334" y="589" on="0"/>
        <pt x="269" y="589" on="1"/>
        <pt x="188" y="589" on="1"/>
      </contour>
      <contour>
        <pt x="270" y="-221" on="1"/>
        <pt x="201" y="-192" on="1"/>
        <pt x="222" y="-180" on="0"/>
        <pt x="258" y="-154" on="0"/>
        <pt x="266" y="-147" on="1"/>
        <pt x="273" y="-140" on="1"/>
        <pt x="261" y="-137" on="1"/>
        <pt x="231" y="-123" on="0"/>
        <pt x="231" y="-89" on="1"/>
        <pt x="231" y="-66" on="0"/>
        <pt x="247" y="-50" on="1"/>
        <pt x="262" y="-36" on="0"/>
        <pt x="284" y="-36" on="1"/>
        <pt x="286" y="-36" on="0"/>
        <pt x="287" y="-36" on="1"/>
        <pt x="313" y="-37" on="0"/>
        <pt x="337" y="-77" on="0"/>
        <pt x="337" y="-99" on="1"/>
        <pt x="337" y="-133" on="0"/>
        <pt x="306" y="-187" on="0"/>
      </contour>
    </TTGlyph>
    <TTGlyph name="Rho" xMin="78" yMin="0" xMax="512" yMax="700">
      <contour>
        <pt x="188" y="300" on="1"/>
        <pt x="282" y="300" on="1"/>
        <pt x="316" y="300" on="0"/>
        <pt x="365" y="322" on="0"/>
        <pt x="388" y="349" on="0"/>
        <pt x="401" y="399" on="0"/>
        <pt x="402" y="428" on="0"/>
        <pt x="402" y="454" on="1"/>
        <pt x="402" y="459" on="0"/>
        <pt x="402" y="461" on="1"/>
        <pt x="402" y="538" on="0"/>
        <pt x="342" y="590" on="0"/>
        <pt x="278" y="590" on="1"/>
        <pt x="188" y="590" on="1"/>
      </contour>
      <contour>
        <pt x="188" y="0" on="1"/>
        <pt x="78" y="0" on="1"/>
        <pt x="78" y="700" on="1"/>
        <pt x="306" y="700" on="1"/>
        <pt x="411" y="700" on="0"/>
        <pt x="512" y="565" on="0"/>
        <pt x="512" y="463" on="1"/>
        <pt x="512" y="195" on="0"/>
        <pt x="315" y="195" on="1"/>
        <pt x="188" y="195" on="1"/>
      </contour>
    </TTGlyph>
    <TTGlyph name="S" xMin="37" yMin="-11" xMax="512" yMax="710">
      <contour>
        <pt x="37" y="178" on="1"/>
        <pt x="155" y="195" on="1"/>
        <pt x="160" y="151" on="0"/>
        <pt x="222" y="97" on="0"/>
        <pt x="272" y="97" on="1"/>
        <pt x="333" y="97" on="0"/>
        <pt x="391" y="152" on="0"/>
        <pt x="391" y="184" on="1"/>
        <pt x="391" y="224" on="0"/>
        <pt x="354" y="282" on="0"/>
        <pt x="294" y="319" on="0"/>
        <pt x="223" y="349" on="0"/>
        <pt x="151" y="382" on="0"/>
        <pt x="91" y="423" on="0"/>
        <pt x="54" y="491" on="0"/>
        <pt x="54" y="537" on="1"/>
        <pt x="54" y="607" on="0"/>
        <pt x="171" y="710" on="0"/>
        <pt x="280" y="710" on="1"/>
        <pt x="363" y="710" on="0"/>
        <pt x="426" y="680" on="1"/>
        <pt x="420" y="662" on="1"/>
        <pt x="414" y="644" on="0"/>
        <pt x="396" y="590" on="0"/>
        <pt x="391" y="576" on="1"/>
        <pt x="323" y="598" on="0"/>
        <pt x="281" y="598" on="1"/>
        <pt x="224" y="598" on="0"/>
        <pt x="197" y="578" on="1"/>
        <pt x="173" y="560" on="0"/>
        <pt x="173" y="533" on="1"/>
        <pt x="173" y="530" on="0"/>
        <pt x="173" y="527" on="1"/>
        <pt x="176" y="501" on="0"/>
        <pt x="248" y="457" on="0"/>
        <pt x="347" y="415" on="0"/>
        <pt x="444" y="360" on="0"/>
        <pt x="512" y="261" on="0"/>
        <pt x="512" y="194" on="1"/>
        <pt x="512" y="105" on="0"/>
        <pt x="394" y="-11" on="0"/>
        <pt x="273" y="-11" on="1"/>
        <pt x="164" y="-11" on="0"/>
        <pt x="39" y="104" on="0"/>
      </contour>
    </TTGlyph>
    <TTGlyph name="Sacute" xMin="37" yMin="-11" xMax="512" yMax="876">
      <contour>
        <pt x="37" y="178" on="1"/>
        <pt x="155" y="195" on="1"/>
        <pt x="160" y="151" on="0"/>
        <pt x="222" y="97" on="0"/>
        <pt x="272" y="97" on="1"/>
        <pt x="333" y="97" on="0"/>
        <pt x="391" y="152" on="0"/>
        <pt x="391" y="184" on="1"/>
        <pt x="391" y="224" on="0"/>
        <pt x="354" y="282" on="0"/>
        <pt x="294" y="319" on="0"/>
        <pt x="223" y="349" on="0"/>
        <pt x="151" y="382" on="0"/>
        <pt x="91" y="423" on="0"/>
        <pt x="54" y="491" on="0"/>
        <pt x="54" y="537" on="1"/>
        <pt x="54" y="607" on="0"/>
        <pt x="171" y="710" on="0"/>
        <pt x="280" y="710" on="1"/>
        <pt x="363" y="710" on="0"/>
        <pt x="426" y="680" on="1"/>
        <pt x="420" y="662" on="1"/>
        <pt x="414" y="644" on="0"/>
        <pt x="396" y="590" on="0"/>
        <pt x="391" y="576" on="1"/>
        <pt x="323" y="598" on="0"/>
        <pt x="281" y="598" on="1"/>
        <pt x="224" y="598" on="0"/>
        <pt x="197" y="578" on="1"/>
        <pt x="173" y="560" on="0"/>
        <pt x="173" y="533" on="1"/>
        <pt x="173" y="530" on="0"/>
        <pt x="173" y="527" on="1"/>
        <pt x="176" y="501" on="0"/>
        <pt x="248" y="457" on="0"/>
        <pt x="347" y="415" on="0"/>
        <pt x="444" y="360" on="0"/>
        <pt x="512" y="261" on="0"/>
        <pt x="512" y="194" on="1"/>
        <pt x="512" y="105" on="0"/>
        <pt x="394" y="-11" on="0"/>
        <pt x="273" y="-11" on="1"/>
        <pt x="164" y="-11" on="0"/>
        <pt x="39" y="104" on="0"/>
      </contour>
      <contour>
        <pt x="312" y="734" on="1"/>
        <pt x="239" y="734" on="1"/>
        <pt x="285" y="842" on="1"/>
        <pt x="295" y="865" on="0"/>
        <pt x="318" y="872" on="1"/>
        <pt x="329" y="876" on="0"/>
        <pt x="337" y="876" on="1"/>
        <pt x="346" y="876" on="0"/>
        <pt x="352" y="872" on="1"/>
        <pt x="372" y="862" on="0"/>
        <pt x="376" y="842" on="1"/>
        <pt x="377" y="839" on="0"/>
        <pt x="377" y="836" on="1"/>
        <pt x="377" y="818" on="0"/>
        <pt x="361" y="797" on="1"/>
      </contour>
    </TTGlyph>
    <TTGlyph name="Scaron" xMin="37" yMin="-11" xMax="512" yMax="962">
      <contour>
        <pt x="37" y="178" on="1"/>
        <pt x="155" y="195" on="1"/>
        <pt x="160" y="151" on="0"/>
        <pt x="222" y="97" on="0"/>
        <pt x="272" y="97" on="1"/>
        <pt x="333" y="97" on="0"/>
        <pt x="391" y="152" on="0"/>
        <pt x="391" y="184" on="1"/>
        <pt x="391" y="224" on="0"/>
        <pt x="354" y="282" on="0"/>
        <pt x="294" y="319" on="0"/>
        <pt x="223" y="349" on="0"/>
        <pt x="151" y="382" on="0"/>
        <pt x="91" y="423" on="0"/>
        <pt x="54" y="491" on="0"/>
        <pt x="54" y="537" on="1"/>
        <pt x="54" y="607" on="0"/>
        <pt x="171" y="710" on="0"/>
        <pt x="280" y="710" on="1"/>
        <pt x="363" y="710" on="0"/>
        <pt x="426" y="680" on="1"/>
        <pt x="420" y="662" on="1"/>
        <pt x="414" y="644" on="0"/>
        <pt x="396" y="590" on="0"/>
        <pt x="391" y="576" on="1"/>
        <pt x="323" y="598" on="0"/>
        <pt x="281" y="598" on="1"/>
        <pt x="224" y="598" on="0"/>
        <pt x="197" y="578" on="1"/>
        <pt x="173" y="560" on="0"/>
        <pt x="173" y="533" on="1"/>
        <pt x="173" y="530" on="0"/>
        <pt x="173" y="527" on="1"/>
        <pt x="176" y="501" on="0"/>
        <pt x="248" y="457" on="0"/>
        <pt x="347" y="415" on="0"/>
        <pt x="444" y="360" on="0"/>
        <pt x="512" y="261" on="0"/>
        <pt x="512" y="194" on="1"/>
        <pt x="512" y="105" on="0"/>
        <pt x="394" y="-11" on="0"/>
        <pt x="273" y="-11" on="1"/>
        <pt x="164" y="-11" on="0"/>
        <pt x="39" y="104" on="0"/>
      </contour>
      <contour>
        <pt x="443" y="923" on="1"/>
        <pt x="301" y="782" on="1"/>
        <pt x="153" y="923" on="1"/>
        <pt x="219" y="962" on="1"/>
        <pt x="300" y="879" on="1"/>
        <pt x="376" y="962" on="1"/>
      </contour>
    </TTGlyph>
    <TTGlyph name="Scircumflex" xMin="37" yMin="-11" xMax="512" yMax="911">
      <contour>
        <pt x="37" y="178" on="1"/>
        <pt x="155" y="195" on="1"/>
        <pt x="160" y="151" on="0"/>
        <pt x="222" y="97" on="0"/>
        <pt x="272" y="97" on="1"/>
        <pt x="333" y="97" on="0"/>
        <pt x="391" y="152" on="0"/>
        <pt x="391" y="184" on="1"/>
        <pt x="391" y="224" on="0"/>
        <pt x="354" y="282" on="0"/>
        <pt x="294" y="319" on="0"/>
        <pt x="223" y="349" on="0"/>
        <pt x="151" y="382" on="0"/>
        <pt x="91" y="423" on="0"/>
        <pt x="54" y="491" on="0"/>
        <pt x="54" y="537" on="1"/>
        <pt x="54" y="607" on="0"/>
        <pt x="171" y="710" on="0"/>
        <pt x="280" y="710" on="1"/>
        <pt x="363" y="710" on="0"/>
        <pt x="426" y="680" on="1"/>
        <pt x="420" y="662" on="1"/>
        <pt x="414" y="644" on="0"/>
        <pt x="396" y="590" on="0"/>
        <pt x="391" y="576" on="1"/>
        <pt x="323" y="598" on="0"/>
        <pt x="281" y="598" on="1"/>
        <pt x="224" y="598" on="0"/>
        <pt x="197" y="578" on="1"/>
        <pt x="173" y="560" on="0"/>
        <pt x="173" y="533" on="1"/>
        <pt x="173" y="530" on="0"/>
        <pt x="173" y="527" on="1"/>
        <pt x="176" y="501" on="0"/>
        <pt x="248" y="457" on="0"/>
        <pt x="347" y="415" on="0"/>
        <pt x="444" y="360" on="0"/>
        <pt x="512" y="261" on="0"/>
        <pt x="512" y="194" on="1"/>
        <pt x="512" y="105" on="0"/>
        <pt x="394" y="-11" on="0"/>
        <pt x="273" y="-11" on="1"/>
        <pt x="164" y="-11" on="0"/>
        <pt x="39" y="104" on="0"/>
      </contour>
      <contour>
        <pt x="415" y="770" on="1"/>
        <pt x="348" y="731" on="1"/>
        <pt x="272" y="814" on="1"/>
        <pt x="191" y="731" on="1"/>
        <pt x="125" y="770" on="1"/>
        <pt x="273" y="911" on="1"/>
      </contour>
    </TTGlyph>
    <TTGlyph name="Scommaaccent" xMin="37" yMin="-218" xMax="512" yMax="710">
      <contour>
        <pt x="37" y="178" on="1"/>
        <pt x="155" y="195" on="1"/>
        <pt x="160" y="151" on="0"/>
        <pt x="222" y="97" on="0"/>
        <pt x="272" y="97" on="1"/>
        <pt x="333" y="97" on="0"/>
        <pt x="391" y="152" on="0"/>
        <pt x="391" y="184" on="1"/>
        <pt x="391" y="224" on="0"/>
        <pt x="354" y="282" on="0"/>
        <pt x="294" y="319" on="0"/>
        <pt x="223" y="349" on="0"/>
        <pt x="151" y="382" on="0"/>
        <pt x="91" y="423" on="0"/>
        <pt x="54" y="491" on="0"/>
        <pt x="54" y="537" on="1"/>
        <pt x="54" y="607" on="0"/>
        <pt x="171" y="710" on="0"/>
        <pt x="280" y="710" on="1"/>
        <pt x="363" y="710" on="0"/>
        <pt x="426" y="680" on="1"/>
        <pt x="420" y="662" on="1"/>
        <pt x="414" y="644" on="0"/>
        <pt x="396" y="590" on="0"/>
        <pt x="391" y="576" on="1"/>
        <pt x="323" y="598" on="0"/>
        <pt x="281" y="598" on="1"/>
        <pt x="224" y="598" on="0"/>
        <pt x="197" y="578" on="1"/>
        <pt x="173" y="560" on="0"/>
        <pt x="173" y="533" on="1"/>
        <pt x="173" y="530" on="0"/>
        <pt x="173" y="527" on="1"/>
        <pt x="176" y="501" on="0"/>
        <pt x="248" y="457" on="0"/>
        <pt x="347" y="415" on="0"/>
        <pt x="444" y="360" on="0"/>
        <pt x="512" y="261" on="0"/>
        <pt x="512" y="194" on="1"/>
        <pt x="512" y="105" on="0"/>
        <pt x="394" y="-11" on="0"/>
        <pt x="273" y="-11" on="1"/>
        <pt x="164" y="-11" on="0"/>
        <pt x="39" y="104" on="0"/>
      </contour>
      <contour>
        <pt x="262" y="-218" on="1"/>
        <pt x="193" y="-189" on="1"/>
        <pt x="214" y="-177" on="0"/>
        <pt x="250" y="-151" on="0"/>
        <pt x="258" y="-144" on="1"/>
        <pt x="265" y="-137" on="1"/>
        <pt x="253" y="-134" on="1"/>
        <pt x="223" y="-120" on="0"/>
        <pt x="223" y="-86" on="1"/>
        <pt x="223" y="-63" on="0"/>
        <pt x="239" y="-48" on="1"/>
        <pt x="254" y="-33" on="0"/>
        <pt x="276" y="-33" on="1"/>
        <pt x="278" y="-33" on="0"/>
        <pt x="279" y="-33" on="1"/>
        <pt x="305" y="-34" on="0"/>
        <pt x="329" y="-74" on="0"/>
        <pt x="329" y="-96" on="1"/>
        <pt x="329" y="-130" on="0"/>
        <pt x="298" y="-184" on="0"/>
      </contour>
    </TTGlyph>
    <TTGlyph name="Sigma" xMin="78" yMin="0" xMax="546" yMax="702">
      <contour>
        <pt x="401" y="0" on="1"/>
        <pt x="78" y="0" on="1"/>
        <pt x="304" y="384" on="1"/>
        <pt x="94" y="702" on="1"/>
        <pt x="522" y="702" on="1"/>
        <pt x="488" y="590" on="1"/>
        <pt x="297" y="590" on="1"/>
        <pt x="434" y="387" on="1"/>
        <pt x="265" y="101" on="1"/>
        <pt x="370" y="101" on="1"/>
        <pt x="408" y="101" on="0"/>
        <pt x="440" y="122" on="0"/>
        <pt x="452" y="157" on="1"/>
        <pt x="546" y="106" on="1"/>
        <pt x="530" y="50" on="0"/>
        <pt x="460" y="0" on="0"/>
      </contour>
    </TTGlyph>
    <TTGlyph name="T" xMin="0" yMin="0" xMax="402" yMax="700">
      <contour>
        <pt x="254" y="0" on="1"/>
        <pt x="144" y="0" on="1"/>
        <pt x="144" y="589" on="1"/>
        <pt x="0" y="589" on="1"/>
        <pt x="0" y="700" on="1"/>
        <pt x="402" y="700" on="1"/>
        <pt x="402" y="589" on="1"/>
        <pt x="254" y="589" on="1"/>
      </contour>
    </TTGlyph>
    <TTGlyph name="Tau" xMin="78" yMin="0" xMax="480" yMax="700">
      <contour>
        <pt x="332" y="0" on="1"/>
        <pt x="222" y="0" on="1"/>
        <pt x="222" y="589" on="1"/>
        <pt x="78" y="589" on="1"/>
        <pt x="78" y="700" on="1"/>
        <pt x="480" y="700" on="1"/>
        <pt x="480" y="589" on="1"/>
        <pt x="332" y="589" on="1"/>
      </contour>
    </TTGlyph>
    <TTGlyph name="Tbar" xMin="0" yMin="0" xMax="402" yMax="821">
      <contour>
        <pt x="254" y="0" on="1"/>
        <pt x="144" y="0" on="1"/>
        <pt x="144" y="589" on="1"/>
        <pt x="0" y="589" on="1"/>
        <pt x="0" y="700" on="1"/>
        <pt x="402" y="700" on="1"/>
        <pt x="402" y="589" on="1"/>
        <pt x="254" y="589" on="1"/>
      </contour>
      <contour>
        <pt x="307" y="730" on="1"/>
        <pt x="90" y="730" on="1"/>
        <pt x="90" y="821" on="1"/>
        <pt x="307" y="821" on="1"/>
      </contour>
    </TTGlyph>
    <TTGlyph name="Tcaron" xMin="0" yMin="0" xMax="402" yMax="914">
      <contour>
        <pt x="254" y="0" on="1"/>
        <pt x="144" y="0" on="1"/>
        <pt x="144" y="589" on="1"/>
        <pt x="0" y="589" on="1"/>
        <pt x="0" y="700" on="1"/>
        <pt x="402" y="700" on="1"/>
        <pt x="402" y="589" on="1"/>
        <pt x="254" y="589" on="1"/>
      </contour>
      <contour>
        <pt x="345" y="875" on="1"/>
        <pt x="203" y="734" on="1"/>
        <pt x="55" y="875" on="1"/>
        <pt x="121" y="914" on="1"/>
        <pt x="202" y="831" on="1"/>
        <pt x="278" y="914" on="1"/>
      </contour>
    </TTGlyph>
    <TTGlyph name="Tcommaaccent" xMin="0" yMin="-218" xMax="402" yMax="700">
      <contour>
        <pt x="254" y="0" on="1"/>
        <pt x="144" y="0" on="1"/>
        <pt x="144" y="589" on="1"/>
        <pt x="0" y="589" on="1"/>
        <pt x="0" y="700" on="1"/>
        <pt x="402" y="700" on="1"/>
        <pt x="402" y="589" on="1"/>
        <pt x="254" y="589" on="1"/>
      </contour>
      <contour>
        <pt x="183" y="-218" on="1"/>
        <pt x="114" y="-189" on="1"/>
        <pt x="135" y="-177" on="0"/>
        <pt x="171" y="-151" on="0"/>
        <pt x="178" y="-144" on="1"/>
        <pt x="186" y="-137" on="1"/>
        <pt x="174" y="-134" on="1"/>
        <pt x="144" y="-120" on="0"/>
        <pt x="144" y="-86" on="1"/>
        <pt x="144" y="-63" on="0"/>
        <pt x="160" y="-48" on="1"/>
        <pt x="175" y="-33" on="0"/>
        <pt x="197" y="-33" on="1"/>
        <pt x="199" y="-33" on="0"/>
        <pt x="200" y="-33" on="1"/>
        <pt x="226" y="-34" on="0"/>
        <pt x="250" y="-74" on="0"/>
        <pt x="250" y="-96" on="1"/>
        <pt x="250" y="-130" on="0"/>
        <pt x="219" y="-184" on="0"/>
      </contour>
    </TTGlyph>
    <TTGlyph name="Theta" xMin="78" yMin="-11" xMax="498" yMax="716">
      <contour>
        <pt x="498" y="506" on="1"/>
        <pt x="498" y="185" on="1"/>
        <pt x="498" y="84" on="0"/>
        <pt x="375" y="-11" on="0"/>
        <pt x="203" y="-11" on="0"/>
        <pt x="78" y="84" on="0"/>
        <pt x="78" y="185" on="1"/>
        <pt x="78" y="507" on="1"/>
        <pt x="78" y="610" on="0"/>
        <pt x="191" y="716" on="0"/>
        <pt x="389" y="716" on="0"/>
        <pt x="498" y="604" on="0"/>
      </contour>
      <contour>
        <pt x="388" y="206" on="1"/>
        <pt x="388" y="308" on="1"/>
        <pt x="188" y="308" on="1"/>
        <pt x="188" y="204" on="1"/>
        <pt x="188" y="156" on="0"/>
        <pt x="237" y="101" on="0"/>
        <pt x="288" y="101" on="1"/>
        <pt x="335" y="101" on="0"/>
        <pt x="388" y="159" on="0"/>
      </contour>
      <contour>
        <pt x="388" y="413" on="1"/>
        <pt x="388" y="470" on="1"/>
        <pt x="388" y="534" on="0"/>
        <pt x="349" y="597" on="0"/>
        <pt x="227" y="597" on="0"/>
        <pt x="188" y="536" on="0"/>
        <pt x="188" y="471" on="1"/>
        <pt x="188" y="413" on="1"/>
      </contour>
    </TTGlyph>
    <TTGlyph name="Thorn" xMin="78" yMin="0" xMax="455" yMax="700">
      <contour>
        <pt x="186" y="0" on="1"/>
        <pt x="78" y="0" on="1"/>
        <pt x="78" y="700" on="1"/>
        <pt x="186" y="700" on="1"/>
        <pt x="186" y="492" on="1"/>
        <pt x="224" y="509" on="0"/>
        <pt x="265" y="509" on="1"/>
        <pt x="358" y="509" on="0"/>
        <pt x="455" y="401" on="0"/>
        <pt x="455" y="315" on="1"/>
        <pt x="455" y="221" on="0"/>
        <pt x="352" y="116" on="0"/>
        <pt x="269" y="116" on="1"/>
        <pt x="219" y="116" on="0"/>
        <pt x="186" y="139" on="1"/>
      </contour>
      <contour>
        <pt x="269" y="220" on="1"/>
        <pt x="299" y="220" on="0"/>
        <pt x="346" y="265" on="0"/>
        <pt x="346" y="316" on="1"/>
        <pt x="346" y="349" on="0"/>
        <pt x="309" y="404" on="0"/>
        <pt x="269" y="404" on="1"/>
        <pt x="238" y="404" on="0"/>
        <pt x="186" y="356" on="0"/>
        <pt x="186" y="318" on="1"/>
        <pt x="186" y="266" on="0"/>
        <pt x="235" y="220" on="0"/>
      </contour>
    </TTGlyph>
    <TTGlyph name="U" xMin="74" yMin="-7" xMax="495" yMax="701">
      <contour>
        <pt x="385" y="230" on="1"/>
        <pt x="385" y="701" on="1"/>
        <pt x="495" y="701" on="1"/>
        <pt x="495" y="186" on="1"/>
        <pt x="495" y="133" on="0"/>
        <pt x="458" y="55" on="0"/>
        <pt x="395" y="13" on="0"/>
        <pt x="325" y="-7" on="0"/>
        <pt x="245" y="-7" on="0"/>
        <pt x="174" y="13" on="0"/>
        <pt x="111" y="55" on="0"/>
        <pt x="74" y="133" on="0"/>
        <pt x="74" y="186" on="1"/>
        <pt x="74" y="701" on="1"/>
        <pt x="184" y="701" on="1"/>
        <pt x="184" y="230" on="1"/>
        <pt x="184" y="162" on="0"/>
        <pt x="225" y="101" on="0"/>
        <pt x="284" y="101" on="1"/>
        <pt x="344" y="101" on="0"/>
        <pt x="385" y="162" on="0"/>
      </contour>
    </TTGlyph>
    <TTGlyph name="Uacute" xMin="74" yMin="-7" xMax="495" yMax="873">
      <contour>
        <pt x="385" y="230" on="1"/>
        <pt x="385" y="701" on="1"/>
        <pt x="495" y="701" on="1"/>
        <pt x="495" y="186" on="1"/>
        <pt x="495" y="133" on="0"/>
        <pt x="458" y="55" on="0"/>
        <pt x="395" y="13" on="0"/>
        <pt x="325" y="-7" on="0"/>
        <pt x="245" y="-7" on="0"/>
        <pt x="174" y="13" on="0"/>
        <pt x="111" y="55" on="0"/>
        <pt x="74" y="133" on="0"/>
        <pt x="74" y="186" on="1"/>
        <pt x="74" y="701" on="1"/>
        <pt x="184" y="701" on="1"/>
        <pt x="184" y="230" on="1"/>
        <pt x="184" y="162" on="0"/>
        <pt x="225" y="101" on="0"/>
        <pt x="284" y="101" on="1"/>
        <pt x="344" y="101" on="0"/>
        <pt x="385" y="162" on="0"/>
      </contour>
      <contour>
        <pt x="321" y="731" on="1"/>
        <pt x="248" y="731" on="1"/>
        <pt x="294" y="839" on="1"/>
        <pt x="304" y="862" on="0"/>
        <pt x="327" y="870" on="1"/>
        <pt x="338" y="873" on="0"/>
        <pt x="346" y="873" on="1"/>
        <pt x="355" y="873" on="0"/>
        <pt x="361" y="869" on="1"/>
        <pt x="381" y="859" on="0"/>
        <pt x="385" y="840" on="1"/>
        <pt x="386" y="836" on="0"/>
        <pt x="386" y="833" on="1"/>
        <pt x="386" y="815" on="0"/>
        <pt x="370" y="794" on="1"/>
      </contour>
    </TTGlyph>
    <TTGlyph name="Ubreve" xMin="74" yMin="-7" xMax="495" yMax="842">
      <contour>
        <pt x="385" y="230" on="1"/>
        <pt x="385" y="701" on="1"/>
        <pt x="495" y="701" on="1"/>
        <pt x="495" y="186" on="1"/>
        <pt x="495" y="133" on="0"/>
        <pt x="458" y="55" on="0"/>
        <pt x="395" y="13" on="0"/>
        <pt x="325" y="-7" on="0"/>
        <pt x="245" y="-7" on="0"/>
        <pt x="174" y="13" on="0"/>
        <pt x="111" y="55" on="0"/>
        <pt x="74" y="133" on="0"/>
        <pt x="74" y="186" on="1"/>
        <pt x="74" y="701" on="1"/>
        <pt x="184" y="701" on="1"/>
        <pt x="184" y="230" on="1"/>
        <pt x="184" y="162" on="0"/>
        <pt x="225" y="101" on="0"/>
        <pt x="284" y="101" on="1"/>
        <pt x="344" y="101" on="0"/>
        <pt x="385" y="162" on="0"/>
      </contour>
      <contour>
        <pt x="397" y="842" on="1"/>
        <pt x="397" y="837" on="1"/>
        <pt x="397" y="790" on="0"/>
        <pt x="330" y="724" on="0"/>
        <pt x="238" y="724" on="0"/>
        <pt x="171" y="790" on="0"/>
        <pt x="171" y="837" on="1"/>
        <pt x="171" y="842" on="1"/>
        <pt x="254" y="842" on="1"/>
        <pt x="254" y="837" on="1"/>
        <pt x="254" y="802" on="0"/>
        <pt x="284" y="802" on="1"/>
        <pt x="298" y="802" on="0"/>
        <pt x="315" y="821" on="0"/>
        <pt x="315" y="837" on="1"/>
        <pt x="315" y="842" on="1"/>
      </contour>
    </TTGlyph>
    <TTGlyph name="Ucircumflex" xMin="74" yMin="-7" xMax="495" yMax="911">
      <contour>
        <pt x="385" y="230" on="1"/>
        <pt x="385" y="701" on="1"/>
        <pt x="495" y="701" on="1"/>
        <pt x="495" y="186" on="1"/>
        <pt x="495" y="133" on="0"/>
        <pt x="458" y="55" on="0"/>
        <pt x="395" y="13" on="0"/>
        <pt x="325" y="-7" on="0"/>
        <pt x="245" y="-7" on="0"/>
        <pt x="174" y="13" on="0"/>
        <pt x="111" y="55" on="0"/>
        <pt x="74" y="133" on="0"/>
        <pt x="74" y="186" on="1"/>
        <pt x="74" y="701" on="1"/>
        <pt x="184" y="701" on="1"/>
        <pt x="184" y="230" on="1"/>
        <pt x="184" y="162" on="0"/>
        <pt x="225" y="101" on="0"/>
        <pt x="284" y="101" on="1"/>
        <pt x="344" y="101" on="0"/>
        <pt x="385" y="162" on="0"/>
      </contour>
      <contour>
        <pt x="429" y="770" on="1"/>
        <pt x="362" y="731" on="1"/>
        <pt x="286" y="814" on="1"/>
        <pt x="205" y="731" on="1"/>
        <pt x="139" y="770" on="1"/>
        <pt x="287" y="911" on="1"/>
      </contour>
    </TTGlyph>
    <TTGlyph name="Udieresis" xMin="74" yMin="-7" xMax="495" yMax="821">
      <contour>
        <pt x="385" y="230" on="1"/>
        <pt x="385" y="701" on="1"/>
        <pt x="495" y="701" on="1"/>
        <pt x="495" y="186" on="1"/>
        <pt x="495" y="133" on="0"/>
        <pt x="458" y="55" on="0"/>
        <pt x="395" y="13" on="0"/>
        <pt x="325" y="-7" on="0"/>
        <pt x="245" y="-7" on="0"/>
        <pt x="174" y="13" on="0"/>
        <pt x="111" y="55" on="0"/>
        <pt x="74" y="133" on="0"/>
        <pt x="74" y="186" on="1"/>
        <pt x="74" y="701" on="1"/>
        <pt x="184" y="701" on="1"/>
        <pt x="184" y="230" on="1"/>
        <pt x="184" y="162" on="0"/>
        <pt x="225" y="101" on="0"/>
        <pt x="284" y="101" on="1"/>
        <pt x="344" y="101" on="0"/>
        <pt x="385" y="162" on="0"/>
      </contour>
      <contour>
        <pt x="261" y="775" on="1"/>
        <pt x="261" y="757" on="0"/>
        <pt x="235" y="731" on="0"/>
        <pt x="216" y="731" on="1"/>
        <pt x="198" y="731" on="0"/>
        <pt x="172" y="757" on="0"/>
        <pt x="172" y="775" on="1"/>
        <pt x="172" y="794" on="0"/>
        <pt x="198" y="820" on="0"/>
        <pt x="216" y="820" on="1"/>
        <pt x="235" y="820" on="0"/>
        <pt x="261" y="794" on="0"/>
      </contour>
      <contour>
        <pt x="368" y="731" on="0"/>
        <pt x="330" y="731" on="0"/>
        <pt x="304" y="757" on="0"/>
        <pt x="304" y="795" on="0"/>
        <pt x="330" y="821" on="0"/>
        <pt x="368" y="821" on="0"/>
        <pt x="394" y="795" on="0"/>
        <pt x="394" y="757" on="0"/>
      </contour>
    </TTGlyph>
    <TTGlyph name="Ugrave" xMin="74" yMin="-7" xMax="495" yMax="874">
      <contour>
        <pt x="385" y="230" on="1"/>
        <pt x="385" y="701" on="1"/>
        <pt x="495" y="701" on="1"/>
        <pt x="495" y="186" on="1"/>
        <pt x="495" y="133" on="0"/>
        <pt x="458" y="55" on="0"/>
        <pt x="395" y="13" on="0"/>
        <pt x="325" y="-7" on="0"/>
        <pt x="245" y="-7" on="0"/>
        <pt x="174" y="13" on="0"/>
        <pt x="111" y="55" on="0"/>
        <pt x="74" y="133" on="0"/>
        <pt x="74" y="186" on="1"/>
        <pt x="74" y="701" on="1"/>
        <pt x="184" y="701" on="1"/>
        <pt x="184" y="230" on="1"/>
        <pt x="184" y="162" on="0"/>
        <pt x="225" y="101" on="0"/>
        <pt x="284" y="101" on="1"/>
        <pt x="344" y="101" on="0"/>
        <pt x="385" y="162" on="0"/>
      </contour>
      <contour>
        <pt x="322" y="732" on="1"/>
        <pt x="249" y="732" on="1"/>
        <pt x="200" y="795" on="1"/>
        <pt x="184" y="816" on="0"/>
        <pt x="184" y="834" on="1"/>
        <pt x="184" y="837" on="0"/>
        <pt x="185" y="840" on="1"/>
        <pt x="189" y="860" on="0"/>
        <pt x="209" y="870" on="1"/>
        <pt x="215" y="874" on="0"/>
        <pt x="224" y="874" on="1"/>
        <pt x="232" y="874" on="0"/>
        <pt x="243" y="870" on="1"/>
        <pt x="266" y="863" on="0"/>
        <pt x="276" y="840" on="1"/>
      </contour>
    </TTGlyph>
    <TTGlyph name="Uhungarumlaut" xMin="74" yMin="-7" xMax="495" yMax="876">
      <contour>
        <pt x="385" y="230" on="1"/>
        <pt x="385" y="701" on="1"/>
        <pt x="495" y="701" on="1"/>
        <pt x="495" y="186" on="1"/>
        <pt x="495" y="133" on="0"/>
        <pt x="458" y="55" on="0"/>
        <pt x="395" y="13" on="0"/>
        <pt x="325" y="-7" on="0"/>
        <pt x="245" y="-7" on="0"/>
        <pt x="174" y="13" on="0"/>
        <pt x="111" y="55" on="0"/>
        <pt x="74" y="133" on="0"/>
        <pt x="74" y="186" on="1"/>
        <pt x="74" y="701" on="1"/>
        <pt x="184" y="701" on="1"/>
        <pt x="184" y="230" on="1"/>
        <pt x="184" y="162" on="0"/>
        <pt x="225" y="101" on="0"/>
        <pt x="284" y="101" on="1"/>
        <pt x="344" y="101" on="0"/>
        <pt x="385" y="162" on="0"/>
      </contour>
      <contour>
        <pt x="390" y="734" on="1"/>
        <pt x="317" y="734" on="1"/>
        <pt x="363" y="842" on="1"/>
        <pt x="373" y="865" on="0"/>
        <pt x="396" y="872" on="1"/>
        <pt x="407" y="876" on="0"/>
        <pt x="415" y="876" on="1"/>
        <pt x="424" y="876" on="0"/>
        <pt x="430" y="872" on="1"/>
        <pt x="450" y="862" on="0"/>
        <pt x="454" y="842" on="1"/>
        <pt x="455" y="839" on="0"/>
        <pt x="455" y="836" on="1"/>
        <pt x="455" y="818" on="0"/>
        <pt x="439" y="797" on="1"/>
      </contour>
      <contour>
        <pt x="249" y="734" on="1"/>
        <pt x="176" y="734" on="1"/>
        <pt x="222" y="842" on="1"/>
        <pt x="232" y="865" on="0"/>
        <pt x="255" y="872" on="1"/>
        <pt x="266" y="876" on="0"/>
        <pt x="274" y="876" on="1"/>
        <pt x="283" y="876" on="0"/>
        <pt x="289" y="872" on="1"/>
        <pt x="309" y="862" on="0"/>
        <pt x="313" y="842" on="1"/>
        <pt x="314" y="839" on="0"/>
        <pt x="314" y="836" on="1"/>
        <pt x="314" y="818" on="0"/>
        <pt x="298" y="797" on="1"/>
      </contour>
    </TTGlyph>
    <TTGlyph name="Umacron" xMin="74" yMin="-7" xMax="495" yMax="821">
      <contour>
        <pt x="385" y="230" on="1"/>
        <pt x="385" y="701" on="1"/>
        <pt x="495" y="701" on="1"/>
        <pt x="495" y="186" on="1"/>
        <pt x="495" y="133" on="0"/>
        <pt x="458" y="55" on="0"/>
        <pt x="395" y="13" on="0"/>
        <pt x="325" y="-7" on="0"/>
        <pt x="245" y="-7" on="0"/>
        <pt x="174" y="13" on="0"/>
        <pt x="111" y="55" on="0"/>
        <pt x="74" y="133" on="0"/>
        <pt x="74" y="186" on="1"/>
        <pt x="74" y="701" on="1"/>
        <pt x="184" y="701" on="1"/>
        <pt x="184" y="230" on="1"/>
        <pt x="184" y="162" on="0"/>
        <pt x="225" y="101" on="0"/>
        <pt x="284" y="101" on="1"/>
        <pt x="344" y="101" on="0"/>
        <pt x="385" y="162" on="0"/>
      </contour>
      <contour>
        <pt x="391" y="730" on="1"/>
        <pt x="174" y="730" on="1"/>
        <pt x="174" y="821" on="1"/>
        <pt x="391" y="821" on="1"/>
      </contour>
    </TTGlyph>
    <TTGlyph name="Uogonek" xMin="74" yMin="-213" xMax="495" yMax="701">
      <contour>
        <pt x="315" y="-110" on="1"/>
        <pt x="364" y="-163" on="1"/>
        <pt x="346" y="-191" on="0"/>
        <pt x="295" y="-213" on="0"/>
        <pt x="254" y="-213" on="1"/>
        <pt x="238" y="-213" on="0"/>
        <pt x="199" y="-197" on="0"/>
        <pt x="182" y="-174" on="1"/>
        <pt x="167" y="-152" on="0"/>
        <pt x="167" y="-124" on="1"/>
        <pt x="167" y="-120" on="0"/>
        <pt x="167" y="-117" on="1"/>
        <pt x="170" y="-58" on="0"/>
        <pt x="251" y="-5" on="1"/>
        <pt x="175" y="3" on="0"/>
        <pt x="74" y="95" on="0"/>
        <pt x="74" y="186" on="1"/>
        <pt x="74" y="701" on="1"/>
        <pt x="184" y="701" on="1"/>
        <pt x="184" y="230" on="1"/>
        <pt x="184" y="162" on="0"/>
        <pt x="225" y="101" on="0"/>
        <pt x="284" y="101" on="1"/>
        <pt x="344" y="101" on="0"/>
        <pt x="385" y="162" on="0"/>
        <pt x="385" y="230" on="1"/>
        <pt x="385" y="701" on="1"/>
        <pt x="495" y="701" on="1"/>
        <pt x="495" y="186" on="1"/>
        <pt x="495" y="97" on="0"/>
        <pt x="398" y="4" on="0"/>
        <pt x="324" y="-4" on="1"/>
        <pt x="239" y="-76" on="0"/>
        <pt x="239" y="-116" on="1"/>
        <pt x="239" y="-119" on="0"/>
        <pt x="239" y="-121" on="1"/>
        <pt x="243" y="-145" on="0"/>
        <pt x="272" y="-145" on="1"/>
        <pt x="281" y="-145" on="0"/>
        <pt x="306" y="-128" on="0"/>
      </contour>
    </TTGlyph>
    <TTGlyph name="Upsilon" xMin="60" yMin="-19" xMax="504" yMax="700">
      <contour>
        <pt x="354" y="-19" on="1"/>
        <pt x="319" y="65" on="1"/>
        <pt x="352" y="69" on="0"/>
        <pt x="394" y="111" on="0"/>
        <pt x="394" y="164" on="1"/>
        <pt x="394" y="220" on="1"/>
        <pt x="344" y="195" on="0"/>
        <pt x="289" y="195" on="1"/>
        <pt x="186" y="195" on="0"/>
        <pt x="60" y="313" on="0"/>
        <pt x="60" y="413" on="1"/>
        <pt x="60" y="700" on="1"/>
        <pt x="170" y="700" on="1"/>
        <pt x="170" y="423" on="1"/>
        <pt x="170" y="303" on="0"/>
        <pt x="289" y="303" on="1"/>
        <pt x="301" y="303" on="0"/>
        <pt x="322" y="305" on="0"/>
        <pt x="339" y="309" on="0"/>
        <pt x="353" y="313" on="0"/>
        <pt x="366" y="320" on="0"/>
        <pt x="374" y="324" on="0"/>
        <pt x="383" y="332" on="0"/>
        <pt x="387" y="336" on="0"/>
        <pt x="390" y="340" on="1"/>
        <pt x="394" y="343" on="1"/>
        <pt x="394" y="700" on="1"/>
        <pt x="504" y="700" on="1"/>
        <pt x="504" y="156" on="1"/>
        <pt x="504" y="77" on="0"/>
        <pt x="436" y="-11" on="0"/>
      </contour>
    </TTGlyph>
    <TTGlyph name="Upsilon_alt" xMin="4" yMin="0" xMax="476" yMax="700">
      <contour>
        <pt x="295" y="0" on="1"/>
        <pt x="184" y="0" on="1"/>
        <pt x="184" y="315" on="1"/>
        <pt x="4" y="700" on="1"/>
        <pt x="120" y="700" on="1"/>
        <pt x="239" y="433" on="1"/>
        <pt x="359" y="700" on="1"/>
        <pt x="476" y="700" on="1"/>
        <pt x="295" y="315" on="1"/>
      </contour>
    </TTGlyph>
    <TTGlyph name="Upsilondieresis" xMin="78" yMin="-19" xMax="522" yMax="821">
      <contour>
        <pt x="372" y="-19" on="1"/>
        <pt x="337" y="65" on="1"/>
        <pt x="370" y="69" on="0"/>
        <pt x="412" y="111" on="0"/>
        <pt x="412" y="164" on="1"/>
        <pt x="412" y="220" on="1"/>
        <pt x="362" y="195" on="0"/>
        <pt x="307" y="195" on="1"/>
        <pt x="204" y="195" on="0"/>
        <pt x="78" y="313" on="0"/>
        <pt x="78" y="413" on="1"/>
        <pt x="78" y="700" on="1"/>
        <pt x="188" y="700" on="1"/>
        <pt x="188" y="423" on="1"/>
        <pt x="188" y="303" on="0"/>
        <pt x="307" y="303" on="1"/>
        <pt x="319" y="303" on="0"/>
        <pt x="340" y="305" on="0"/>
        <pt x="357" y="309" on="0"/>
        <pt x="371" y="313" on="0"/>
        <pt x="384" y="320" on="0"/>
        <pt x="392" y="324" on="0"/>
        <pt x="401" y="332" on="0"/>
        <pt x="405" y="336" on="0"/>
        <pt x="408" y="340" on="1"/>
        <pt x="412" y="343" on="1"/>
        <pt x="412" y="700" on="1"/>
        <pt x="522" y="700" on="1"/>
        <pt x="522" y="156" on="1"/>
        <pt x="522" y="77" on="0"/>
        <pt x="454" y="-11" on="0"/>
      </contour>
      <contour>
        <pt x="279" y="775" on="1"/>
        <pt x="279" y="757" on="0"/>
        <pt x="253" y="731" on="0"/>
        <pt x="234" y="731" on="1"/>
        <pt x="216" y="731" on="0"/>
        <pt x="190" y="757" on="0"/>
        <pt x="190" y="775" on="1"/>
        <pt x="190" y="794" on="0"/>
        <pt x="216" y="820" on="0"/>
        <pt x="234" y="820" on="1"/>
        <pt x="253" y="820" on="0"/>
        <pt x="279" y="794" on="0"/>
      </contour>
      <contour>
        <pt x="386" y="731" on="0"/>
        <pt x="348" y="731" on="0"/>
        <pt x="322" y="757" on="0"/>
        <pt x="322" y="795" on="0"/>
        <pt x="348" y="821" on="0"/>
        <pt x="386" y="821" on="0"/>
        <pt x="412" y="795" on="0"/>
        <pt x="412" y="757" on="0"/>
      </contour>
    </TTGlyph>
    <TTGlyph name="Upsilondieresis_alt" xMin="7" yMin="0" xMax="479" yMax="819">
      <contour>
        <pt x="215" y="773" on="1"/>
        <pt x="215" y="755" on="0"/>
        <pt x="189" y="729" on="0"/>
        <pt x="170" y="729" on="1"/>
        <pt x="152" y="729" on="0"/>
        <pt x="126" y="755" on="0"/>
        <pt x="126" y="773" on="1"/>
        <pt x="126" y="792" on="0"/>
        <pt x="152" y="818" on="0"/>
        <pt x="170" y="818" on="1"/>
        <pt x="189" y="818" on="0"/>
        <pt x="215" y="792" on="0"/>
      </contour>
      <contour>
        <pt x="322" y="729" on="0"/>
        <pt x="284" y="729" on="0"/>
        <pt x="258" y="755" on="0"/>
        <pt x="258" y="793" on="0"/>
        <pt x="284" y="819" on="0"/>
        <pt x="322" y="819" on="0"/>
        <pt x="348" y="793" on="0"/>
        <pt x="348" y="755" on="0"/>
      </contour>
      <contour>
        <pt x="298" y="0" on="1"/>
        <pt x="187" y="0" on="1"/>
        <pt x="187" y="315" on="1"/>
        <pt x="7" y="700" on="1"/>
        <pt x="123" y="700" on="1"/>
        <pt x="242" y="433" on="1"/>
        <pt x="362" y="700" on="1"/>
        <pt x="479" y="700" on="1"/>
        <pt x="298" y="315" on="1"/>
      </contour>
    </TTGlyph>
    <TTGlyph name="Upsilontonos" xMin="78" yMin="-19" xMax="681" yMax="710">
      <contour>
        <pt x="151" y="568" on="1"/>
        <pt x="78" y="568" on="1"/>
        <pt x="124" y="676" on="1"/>
        <pt x="134" y="699" on="0"/>
        <pt x="157" y="706" on="1"/>
        <pt x="168" y="710" on="0"/>
        <pt x="176" y="710" on="1"/>
        <pt x="185" y="710" on="0"/>
        <pt x="191" y="706" on="1"/>
        <pt x="211" y="696" on="0"/>
        <pt x="215" y="676" on="1"/>
        <pt x="216" y="673" on="0"/>
        <pt x="216" y="670" on="1"/>
        <pt x="216" y="652" on="0"/>
        <pt x="200" y="631" on="1"/>
      </contour>
      <contour>
        <pt x="531" y="-19" on="1"/>
        <pt x="496" y="65" on="1"/>
        <pt x="529" y="69" on="0"/>
        <pt x="571" y="111" on="0"/>
        <pt x="571" y="164" on="1"/>
        <pt x="571" y="220" on="1"/>
        <pt x="521" y="195" on="0"/>
        <pt x="466" y="195" on="1"/>
        <pt x="363" y="195" on="0"/>
        <pt x="237" y="313" on="0"/>
        <pt x="237" y="413" on="1"/>
        <pt x="237" y="700" on="1"/>
        <pt x="347" y="700" on="1"/>
        <pt x="347" y="423" on="1"/>
        <pt x="347" y="303" on="0"/>
        <pt x="466" y="303" on="1"/>
        <pt x="478" y="303" on="0"/>
        <pt x="499" y="305" on="0"/>
        <pt x="516" y="309" on="0"/>
        <pt x="530" y="313" on="0"/>
        <pt x="543" y="320" on="0"/>
        <pt x="551" y="324" on="0"/>
        <pt x="560" y="332" on="0"/>
        <pt x="564" y="336" on="0"/>
        <pt x="568" y="340" on="1"/>
        <pt x="571" y="343" on="1"/>
        <pt x="571" y="700" on="1"/>
        <pt x="681" y="700" on="1"/>
        <pt x="681" y="156" on="1"/>
        <pt x="681" y="77" on="0"/>
        <pt x="613" y="-11" on="0"/>
      </contour>
    </TTGlyph>
    <TTGlyph name="Upsilontonos_alt" xMin="78" yMin="0" xMax="720" yMax="710">
      <contour>
        <pt x="151" y="568" on="1"/>
        <pt x="78" y="568" on="1"/>
        <pt x="124" y="676" on="1"/>
        <pt x="134" y="699" on="0"/>
        <pt x="157" y="706" on="1"/>
        <pt x="168" y="710" on="0"/>
        <pt x="176" y="710" on="1"/>
        <pt x="185" y="710" on="0"/>
        <pt x="191" y="706" on="1"/>
        <pt x="211" y="696" on="0"/>
        <pt x="215" y="676" on="1"/>
        <pt x="216" y="673" on="0"/>
        <pt x="216" y="670" on="1"/>
        <pt x="216" y="652" on="0"/>
        <pt x="200" y="631" on="1"/>
      </contour>
      <contour>
        <pt x="539" y="0" on="1"/>
        <pt x="428" y="0" on="1"/>
        <pt x="428" y="315" on="1"/>
        <pt x="248" y="700" on="1"/>
        <pt x="364" y="700" on="1"/>
        <pt x="483" y="433" on="1"/>
        <pt x="603" y="700" on="1"/>
        <pt x="720" y="700" on="1"/>
        <pt x="539" y="315" on="1"/>
      </contour>
    </TTGlyph>
    <TTGlyph name="Uring" xMin="74" yMin="-7" xMax="495" yMax="877">
      <contour>
        <pt x="385" y="230" on="1"/>
        <pt x="385" y="701" on="1"/>
        <pt x="495" y="701" on="1"/>
        <pt x="495" y="186" on="1"/>
        <pt x="495" y="133" on="0"/>
        <pt x="458" y="55" on="0"/>
        <pt x="395" y="13" on="0"/>
        <pt x="325" y="-7" on="0"/>
        <pt x="245" y="-7" on="0"/>
        <pt x="174" y="13" on="0"/>
        <pt x="111" y="55" on="0"/>
        <pt x="74" y="133" on="0"/>
        <pt x="74" y="186" on="1"/>
        <pt x="74" y="701" on="1"/>
        <pt x="184" y="701" on="1"/>
        <pt x="184" y="230" on="1"/>
        <pt x="184" y="162" on="0"/>
        <pt x="225" y="101" on="0"/>
        <pt x="284" y="101" on="1"/>
        <pt x="344" y="101" on="0"/>
        <pt x="385" y="162" on="0"/>
      </contour>
      <contour>
        <pt x="271" y="740" on="0"/>
        <pt x="297" y="740" on="0"/>
        <pt x="313" y="757" on="0"/>
        <pt x="313" y="783" on="0"/>
        <pt x="297" y="799" on="0"/>
        <pt x="271" y="799" on="0"/>
        <pt x="254" y="783" on="0"/>
        <pt x="254" y="757" on="0"/>
      </contour>
      <contour>
        <pt x="328" y="663" on="0"/>
        <pt x="240" y="663" on="0"/>
        <pt x="177" y="726" on="0"/>
        <pt x="177" y="814" on="0"/>
        <pt x="240" y="877" on="0"/>
        <pt x="328" y="877" on="0"/>
        <pt x="391" y="814" on="0"/>
        <pt x="391" y="726" on="0"/>
      </contour>
    </TTGlyph>
    <TTGlyph name="Utilde" xMin="74" yMin="-7" xMax="495" yMax="854">
      <contour>
        <pt x="385" y="230" on="1"/>
        <pt x="385" y="701" on="1"/>
        <pt x="495" y="701" on="1"/>
        <pt x="495" y="186" on="1"/>
        <pt x="495" y="133" on="0"/>
        <pt x="458" y="55" on="0"/>
        <pt x="395" y="13" on="0"/>
        <pt x="325" y="-7" on="0"/>
        <pt x="245" y="-7" on="0"/>
        <pt x="174" y="13" on="0"/>
        <pt x="111" y="55" on="0"/>
        <pt x="74" y="133" on="0"/>
        <pt x="74" y="186" on="1"/>
        <pt x="74" y="701" on="1"/>
        <pt x="184" y="701" on="1"/>
        <pt x="184" y="230" on="1"/>
        <pt x="184" y="162" on="0"/>
        <pt x="225" y="101" on="0"/>
        <pt x="284" y="101" on="1"/>
        <pt x="344" y="101" on="0"/>
        <pt x="385" y="162" on="0"/>
      </contour>
      <contour>
        <pt x="429" y="848" on="1"/>
        <pt x="471" y="783" on="1"/>
        <pt x="437" y="743" on="0"/>
        <pt x="403" y="734" on="1"/>
        <pt x="388" y="730" on="0"/>
        <pt x="375" y="730" on="1"/>
        <pt x="357" y="730" on="0"/>
        <pt x="340" y="737" on="1"/>
        <pt x="311" y="749" on="0"/>
        <pt x="282" y="762" on="1"/>
        <pt x="260" y="772" on="0"/>
        <pt x="235" y="772" on="1"/>
        <pt x="228" y="772" on="0"/>
        <pt x="222" y="772" on="1"/>
        <pt x="189" y="768" on="0"/>
        <pt x="159" y="736" on="1"/>
        <pt x="120" y="801" on="1"/>
        <pt x="155" y="840" on="0"/>
        <pt x="190" y="850" on="1"/>
        <pt x="206" y="854" on="0"/>
        <pt x="220" y="854" on="1"/>
        <pt x="238" y="854" on="0"/>
        <pt x="254" y="848" on="1"/>
        <pt x="283" y="836" on="0"/>
        <pt x="312" y="824" on="1"/>
        <pt x="334" y="813" on="0"/>
        <pt x="359" y="813" on="1"/>
        <pt x="365" y="813" on="0"/>
        <pt x="370" y="814" on="1"/>
        <pt x="401" y="817" on="0"/>
      </contour>
    </TTGlyph>
    <TTGlyph name="V" xMin="78" yMin="0" xMax="556" yMax="700">
      <contour>
        <pt x="382" y="0" on="1"/>
        <pt x="253" y="0" on="1"/>
        <pt x="78" y="700" on="1"/>
        <pt x="202" y="700" on="1"/>
        <pt x="317" y="216" on="1"/>
        <pt x="429" y="700" on="1"/>
        <pt x="556" y="700" on="1"/>
      </contour>
    </TTGlyph>
    <TTGlyph name="W" xMin="78" yMin="0" xMax="774" yMax="700">
      <contour>
        <pt x="640" y="0" on="1"/>
        <pt x="516" y="0" on="1"/>
        <pt x="427" y="353" on="1"/>
        <pt x="340" y="0" on="1"/>
        <pt x="212" y="0" on="1"/>
        <pt x="78" y="700" on="1"/>
        <pt x="199" y="700" on="1"/>
        <pt x="281" y="252" on="1"/>
        <pt x="388" y="700" on="1"/>
        <pt x="466" y="700" on="1"/>
        <pt x="573" y="252" on="1"/>
        <pt x="648" y="700" on="1"/>
        <pt x="774" y="700" on="1"/>
      </contour>
    </TTGlyph>
    <TTGlyph name="X" xMin="78" yMin="0" xMax="655" yMax="700">
      <contour>
        <pt x="655" y="0" on="1"/>
        <pt x="514" y="0" on="1"/>
        <pt x="362" y="244" on="1"/>
        <pt x="215" y="0" on="1"/>
        <pt x="78" y="0" on="1"/>
        <pt x="296" y="350" on="1"/>
        <pt x="90" y="700" on="1"/>
        <pt x="220" y="700" on="1"/>
        <pt x="367" y="468" on="1"/>
        <pt x="507" y="700" on="1"/>
        <pt x="638" y="700" on="1"/>
        <pt x="433" y="359" on="1"/>
      </contour>
    </TTGlyph>
    <TTGlyph name="Xi" xMin="78" yMin="0" xMax="587" yMax="701">
      <contour>
        <pt x="469" y="308" on="1"/>
        <pt x="205" y="308" on="1"/>
        <pt x="205" y="413" on="1"/>
        <pt x="469" y="413" on="1"/>
      </contour>
      <contour>
        <pt x="527" y="590" on="1"/>
        <pt x="244" y="590" on="1"/>
        <pt x="171" y="590" on="0"/>
        <pt x="155" y="545" on="1"/>
        <pt x="78" y="595" on="1"/>
        <pt x="94" y="651" on="0"/>
        <pt x="164" y="701" on="0"/>
        <pt x="223" y="701" on="1"/>
        <pt x="548" y="701" on="1"/>
      </contour>
      <contour>
        <pt x="442" y="0" on="1"/>
        <pt x="117" y="0" on="1"/>
        <pt x="148" y="101" on="1"/>
        <pt x="402" y="101" on="1"/>
        <pt x="442" y="101" on="0"/>
        <pt x="484" y="124" on="0"/>
        <pt x="495" y="157" on="1"/>
        <pt x="587" y="106" on="1"/>
        <pt x="571" y="50" on="0"/>
        <pt x="501" y="0" on="0"/>
      </contour>
    </TTGlyph>
    <TTGlyph name="Y" xMin="48" yMin="-19" xMax="492" yMax="700">
      <contour>
        <pt x="342" y="-19" on="1"/>
        <pt x="307" y="65" on="1"/>
        <pt x="340" y="69" on="0"/>
        <pt x="382" y="111" on="0"/>
        <pt x="382" y="164" on="1"/>
        <pt x="382" y="220" on="1"/>
        <pt x="332" y="195" on="0"/>
        <pt x="277" y="195" on="1"/>
        <pt x="174" y="195" on="0"/>
        <pt x="48" y="313" on="0"/>
        <pt x="48" y="413" on="1"/>
        <pt x="48" y="700" on="1"/>
        <pt x="158" y="700" on="1"/>
        <pt x="158" y="423" on="1"/>
        <pt x="158" y="303" on="0"/>
        <pt x="277" y="303" on="1"/>
        <pt x="289" y="303" on="0"/>
        <pt x="310" y="305" on="0"/>
        <pt x="327" y="309" on="0"/>
        <pt x="341" y="313" on="0"/>
        <pt x="354" y="320" on="0"/>
        <pt x="362" y="324" on="0"/>
        <pt x="371" y="332" on="0"/>
        <pt x="375" y="336" on="0"/>
        <pt x="378" y="340" on="1"/>
        <pt x="382" y="343" on="1"/>
        <pt x="382" y="700" on="1"/>
        <pt x="492" y="700" on="1"/>
        <pt x="492" y="156" on="1"/>
        <pt x="492" y="77" on="0"/>
        <pt x="424" y="-11" on="0"/>
      </contour>
    </TTGlyph>
    <TTGlyph name="Y_alt" xMin="-1" yMin="0" xMax="471" yMax="700">
      <contour>
        <pt x="290" y="0" on="1"/>
        <pt x="179" y="0" on="1"/>
        <pt x="179" y="315" on="1"/>
        <pt x="-1" y="700" on="1"/>
        <pt x="115" y="700" on="1"/>
        <pt x="234" y="433" on="1"/>
        <pt x="354" y="700" on="1"/>
        <pt x="471" y="700" on="1"/>
        <pt x="290" y="315" on="1"/>
      </contour>
    </TTGlyph>
    <TTGlyph name="Yacute" xMin="48" yMin="-19" xMax="492" yMax="873">
      <contour>
        <pt x="342" y="-19" on="1"/>
        <pt x="307" y="65" on="1"/>
        <pt x="340" y="69" on="0"/>
        <pt x="382" y="111" on="0"/>
        <pt x="382" y="164" on="1"/>
        <pt x="382" y="220" on="1"/>
        <pt x="332" y="195" on="0"/>
        <pt x="277" y="195" on="1"/>
        <pt x="174" y="195" on="0"/>
        <pt x="48" y="313" on="0"/>
        <pt x="48" y="413" on="1"/>
        <pt x="48" y="700" on="1"/>
        <pt x="158" y="700" on="1"/>
        <pt x="158" y="423" on="1"/>
        <pt x="158" y="303" on="0"/>
        <pt x="277" y="303" on="1"/>
        <pt x="289" y="303" on="0"/>
        <pt x="310" y="305" on="0"/>
        <pt x="327" y="309" on="0"/>
        <pt x="341" y="313" on="0"/>
        <pt x="354" y="320" on="0"/>
        <pt x="362" y="324" on="0"/>
        <pt x="371" y="332" on="0"/>
        <pt x="375" y="336" on="0"/>
        <pt x="378" y="340" on="1"/>
        <pt x="382" y="343" on="1"/>
        <pt x="382" y="700" on="1"/>
        <pt x="492" y="700" on="1"/>
        <pt x="492" y="156" on="1"/>
        <pt x="492" y="77" on="0"/>
        <pt x="424" y="-11" on="0"/>
      </contour>
      <contour>
        <pt x="307" y="731" on="1"/>
        <pt x="234" y="731" on="1"/>
        <pt x="280" y="839" on="1"/>
        <pt x="290" y="862" on="0"/>
        <pt x="313" y="870" on="1"/>
        <pt x="324" y="873" on="0"/>
        <pt x="332" y="873" on="1"/>
        <pt x="341" y="873" on="0"/>
        <pt x="347" y="869" on="1"/>
        <pt x="367" y="859" on="0"/>
        <pt x="371" y="840" on="1"/>
        <pt x="372" y="836" on="0"/>
        <pt x="372" y="833" on="1"/>
        <pt x="372" y="815" on="0"/>
        <pt x="356" y="794" on="1"/>
      </contour>
    </TTGlyph>
    <TTGlyph name="Yacute_alt" xMin="0" yMin="0" xMax="472" yMax="873">
      <contour>
        <pt x="273" y="731" on="1"/>
        <pt x="200" y="731" on="1"/>
        <pt x="246" y="839" on="1"/>
        <pt x="256" y="862" on="0"/>
        <pt x="279" y="870" on="1"/>
        <pt x="290" y="873" on="0"/>
        <pt x="298" y="873" on="1"/>
        <pt x="307" y="873" on="0"/>
        <pt x="313" y="869" on="1"/>
        <pt x="333" y="859" on="0"/>
        <pt x="337" y="840" on="1"/>
        <pt x="338" y="836" on="0"/>
        <pt x="338" y="833" on="1"/>
        <pt x="338" y="815" on="0"/>
        <pt x="322" y="794" on="1"/>
      </contour>
      <contour>
        <pt x="291" y="0" on="1"/>
        <pt x="180" y="0" on="1"/>
        <pt x="180" y="315" on="1"/>
        <pt x="0" y="700" on="1"/>
        <pt x="116" y="700" on="1"/>
        <pt x="235" y="433" on="1"/>
        <pt x="355" y="700" on="1"/>
        <pt x="472" y="700" on="1"/>
        <pt x="291" y="315" on="1"/>
      </contour>
    </TTGlyph>
    <TTGlyph name="Ydieresis" xMin="48" yMin="-19" xMax="492" yMax="821">
      <contour>
        <pt x="342" y="-19" on="1"/>
        <pt x="307" y="65" on="1"/>
        <pt x="340" y="69" on="0"/>
        <pt x="382" y="111" on="0"/>
        <pt x="382" y="164" on="1"/>
        <pt x="382" y="220" on="1"/>
        <pt x="332" y="195" on="0"/>
        <pt x="277" y="195" on="1"/>
        <pt x="174" y="195" on="0"/>
        <pt x="48" y="313" on="0"/>
        <pt x="48" y="413" on="1"/>
        <pt x="48" y="700" on="1"/>
        <pt x="158" y="700" on="1"/>
        <pt x="158" y="423" on="1"/>
        <pt x="158" y="303" on="0"/>
        <pt x="277" y="303" on="1"/>
        <pt x="289" y="303" on="0"/>
        <pt x="310" y="305" on="0"/>
        <pt x="327" y="309" on="0"/>
        <pt x="341" y="313" on="0"/>
        <pt x="354" y="320" on="0"/>
        <pt x="362" y="324" on="0"/>
        <pt x="371" y="332" on="0"/>
        <pt x="375" y="336" on="0"/>
        <pt x="378" y="340" on="1"/>
        <pt x="382" y="343" on="1"/>
        <pt x="382" y="700" on="1"/>
        <pt x="492" y="700" on="1"/>
        <pt x="492" y="156" on="1"/>
        <pt x="492" y="77" on="0"/>
        <pt x="424" y="-11" on="0"/>
      </contour>
      <contour>
        <pt x="248" y="775" on="1"/>
        <pt x="248" y="757" on="0"/>
        <pt x="222" y="731" on="0"/>
        <pt x="203" y="731" on="1"/>
        <pt x="185" y="731" on="0"/>
        <pt x="159" y="757" on="0"/>
        <pt x="159" y="775" on="1"/>
        <pt x="159" y="794" on="0"/>
        <pt x="185" y="820" on="0"/>
        <pt x="203" y="820" on="1"/>
        <pt x="222" y="820" on="0"/>
        <pt x="248" y="794" on="0"/>
      </contour>
      <contour>
        <pt x="355" y="731" on="0"/>
        <pt x="317" y="731" on="0"/>
        <pt x="291" y="757" on="0"/>
        <pt x="291" y="795" on="0"/>
        <pt x="317" y="821" on="0"/>
        <pt x="355" y="821" on="0"/>
        <pt x="381" y="795" on="0"/>
        <pt x="381" y="757" on="0"/>
      </contour>
    </TTGlyph>
    <TTGlyph name="Ydieresis_alt" xMin="-11" yMin="0" xMax="461" yMax="821">
      <contour>
        <pt x="280" y="0" on="1"/>
        <pt x="169" y="0" on="1"/>
        <pt x="169" y="315" on="1"/>
        <pt x="-11" y="700" on="1"/>
        <pt x="105" y="700" on="1"/>
        <pt x="224" y="433" on="1"/>
        <pt x="344" y="700" on="1"/>
        <pt x="461" y="700" on="1"/>
        <pt x="280" y="315" on="1"/>
      </contour>
      <contour>
        <pt x="201" y="775" on="1"/>
        <pt x="201" y="757" on="0"/>
        <pt x="175" y="731" on="0"/>
        <pt x="156" y="731" on="1"/>
        <pt x="138" y="731" on="0"/>
        <pt x="112" y="757" on="0"/>
        <pt x="112" y="775" on="1"/>
        <pt x="112" y="794" on="0"/>
        <pt x="138" y="820" on="0"/>
        <pt x="156" y="820" on="1"/>
        <pt x="175" y="820" on="0"/>
        <pt x="201" y="794" on="0"/>
      </contour>
      <contour>
        <pt x="308" y="731" on="0"/>
        <pt x="270" y="731" on="0"/>
        <pt x="244" y="757" on="0"/>
        <pt x="244" y="795" on="0"/>
        <pt x="270" y="821" on="0"/>
        <pt x="308" y="821" on="0"/>
        <pt x="334" y="795" on="0"/>
        <pt x="334" y="757" on="0"/>
      </contour>
    </TTGlyph>
    <TTGlyph name="Z" xMin="31" yMin="0" xMax="518" yMax="700">
      <contour>
        <pt x="518" y="0" on="1"/>
        <pt x="31" y="0" on="1"/>
        <pt x="31" y="101" on="1"/>
        <pt x="373" y="590" on="1"/>
        <pt x="44" y="590" on="1"/>
        <pt x="44" y="700" on="1"/>
        <pt x="512" y="700" on="1"/>
        <pt x="512" y="590" on="1"/>
        <pt x="168" y="104" on="1"/>
        <pt x="518" y="104" on="1"/>
      </contour>
    </TTGlyph>
    <TTGlyph name="Zacute" xMin="31" yMin="0" xMax="518" yMax="927">
      <contour>
        <pt x="518" y="0" on="1"/>
        <pt x="31" y="0" on="1"/>
        <pt x="31" y="101" on="1"/>
        <pt x="373" y="590" on="1"/>
        <pt x="44" y="590" on="1"/>
        <pt x="44" y="700" on="1"/>
        <pt x="512" y="700" on="1"/>
        <pt x="512" y="590" on="1"/>
        <pt x="168" y="104" on="1"/>
        <pt x="518" y="104" on="1"/>
      </contour>
      <contour>
        <pt x="277" y="785" on="1"/>
        <pt x="204" y="785" on="1"/>
        <pt x="250" y="893" on="1"/>
        <pt x="260" y="916" on="0"/>
        <pt x="283" y="924" on="1"/>
        <pt x="294" y="927" on="0"/>
        <pt x="302" y="927" on="1"/>
        <pt x="311" y="927" on="0"/>
        <pt x="317" y="923" on="1"/>
        <pt x="337" y="913" on="0"/>
        <pt x="341" y="894" on="1"/>
        <pt x="342" y="890" on="0"/>
        <pt x="342" y="887" on="1"/>
        <pt x="342" y="869" on="0"/>
        <pt x="326" y="848" on="1"/>
      </contour>
    </TTGlyph>
    <TTGlyph name="Zcaron" xMin="31" yMin="0" xMax="518" yMax="962">
      <contour>
        <pt x="518" y="0" on="1"/>
        <pt x="31" y="0" on="1"/>
        <pt x="31" y="101" on="1"/>
        <pt x="373" y="590" on="1"/>
        <pt x="44" y="590" on="1"/>
        <pt x="44" y="700" on="1"/>
        <pt x="512" y="700" on="1"/>
        <pt x="512" y="590" on="1"/>
        <pt x="168" y="104" on="1"/>
        <pt x="518" y="104" on="1"/>
      </contour>
      <contour>
        <pt x="443" y="923" on="1"/>
        <pt x="301" y="782" on="1"/>
        <pt x="153" y="923" on="1"/>
        <pt x="219" y="962" on="1"/>
        <pt x="300" y="879" on="1"/>
        <pt x="376" y="962" on="1"/>
      </contour>
    </TTGlyph>
    <TTGlyph name="Zdotaccent" xMin="31" yMin="0" xMax="518" yMax="844">
      <contour>
        <pt x="518" y="0" on="1"/>
        <pt x="31" y="0" on="1"/>
        <pt x="31" y="101" on="1"/>
        <pt x="373" y="590" on="1"/>
        <pt x="44" y="590" on="1"/>
        <pt x="44" y="700" on="1"/>
        <pt x="512" y="700" on="1"/>
        <pt x="512" y="590" on="1"/>
        <pt x="168" y="104" on="1"/>
        <pt x="518" y="104" on="1"/>
      </contour>
      <contour>
        <pt x="288" y="726" on="1"/>
        <pt x="264" y="726" on="0"/>
        <pt x="228" y="762" on="0"/>
        <pt x="228" y="786" on="1"/>
        <pt x="228" y="809" on="0"/>
        <pt x="264" y="844" on="0"/>
        <pt x="288" y="844" on="1"/>
        <pt x="311" y="844" on="0"/>
        <pt x="346" y="809" on="0"/>
        <pt x="346" y="786" on="1"/>
        <pt x="346" y="762" on="0"/>
        <pt x="311" y="726" on="0"/>
      </contour>
    </TTGlyph>
    <TTGlyph name="Zeta" xMin="78" yMin="0" xMax="565" yMax="700">
      <contour>
        <pt x="565" y="0" on="1"/>
        <pt x="78" y="0" on="1"/>
        <pt x="78" y="101" on="1"/>
        <pt x="420" y="590" on="1"/>
        <pt x="91" y="590" on="1"/>
        <pt x="91" y="700" on="1"/>
        <pt x="559" y="700" on="1"/>
        <pt x="559" y="590" on="1"/>
        <pt x="215" y="104" on="1"/>
        <pt x="565" y="104" on="1"/>
      </contour>
    </TTGlyph>
    <TTGlyph name="_196" xMin="78" yMin="0" xMax="583" yMax="700">
      <contour>
        <pt x="583" y="0" on="1"/>
        <pt x="78" y="0" on="1"/>
        <pt x="269" y="700" on="1"/>
        <pt x="379" y="700" on="1"/>
      </contour>
      <contour>
        <pt x="434" y="101" on="1"/>
        <pt x="329" y="482" on="1"/>
        <pt x="227" y="101" on="1"/>
      </contour>
    </TTGlyph>
    <TTGlyph name="a" xMin="37" yMin="-10" xMax="422" yMax="509">
      <contour>
        <pt x="422" y="298" on="1"/>
        <pt x="422" y="0" on="1"/>
        <pt x="318" y="-10" on="0"/>
        <pt x="256" y="-10" on="1"/>
        <pt x="228" y="-10" on="0"/>
        <pt x="209" y="-8" on="1"/>
        <pt x="45" y="10" on="0"/>
        <pt x="37" y="155" on="1"/>
        <pt x="37" y="162" on="0"/>
        <pt x="37" y="169" on="1"/>
        <pt x="37" y="252" on="1"/>
        <pt x="37" y="351" on="0"/>
        <pt x="106" y="385" on="1"/>
        <pt x="135" y="401" on="0"/>
        <pt x="172" y="401" on="1"/>
        <pt x="178" y="401" on="0"/>
        <pt x="183" y="400" on="1"/>
        <pt x="227" y="398" on="0"/>
        <pt x="291" y="381" on="0"/>
        <pt x="312" y="369" on="1"/>
        <pt x="312" y="433" on="0"/>
        <pt x="205" y="433" on="1"/>
        <pt x="214" y="509" on="1"/>
        <pt x="252" y="509" on="0"/>
        <pt x="313" y="500" on="0"/>
        <pt x="355" y="479" on="0"/>
        <pt x="387" y="457" on="0"/>
        <pt x="405" y="421" on="0"/>
        <pt x="417" y="394" on="0"/>
        <pt x="421" y="348" on="0"/>
        <pt x="422" y="322" on="0"/>
      </contour>
      <contour>
        <pt x="312" y="97" on="1"/>
        <pt x="312" y="252" on="1"/>
        <pt x="296" y="263" on="0"/>
        <pt x="245" y="282" on="0"/>
        <pt x="216" y="287" on="1"/>
        <pt x="208" y="288" on="0"/>
        <pt x="200" y="288" on="1"/>
        <pt x="182" y="288" on="0"/>
        <pt x="168" y="280" on="1"/>
        <pt x="148" y="268" on="0"/>
        <pt x="148" y="238" on="1"/>
        <pt x="148" y="183" on="1"/>
        <pt x="148" y="91" on="0"/>
        <pt x="254" y="91" on="1"/>
        <pt x="280" y="91" on="0"/>
      </contour>
    </TTGlyph>
    <TTGlyph name="aacute" xMin="78" yMin="-10" xMax="463" yMax="680">
      <contour>
        <pt x="463" y="298" on="1"/>
        <pt x="463" y="0" on="1"/>
        <pt x="359" y="-10" on="0"/>
        <pt x="297" y="-10" on="1"/>
        <pt x="269" y="-10" on="0"/>
        <pt x="250" y="-8" on="1"/>
        <pt x="86" y="10" on="0"/>
        <pt x="78" y="155" on="1"/>
        <pt x="78" y="162" on="0"/>
        <pt x="78" y="169" on="1"/>
        <pt x="78" y="252" on="1"/>
        <pt x="78" y="351" on="0"/>
        <pt x="147" y="385" on="1"/>
        <pt x="176" y="401" on="0"/>
        <pt x="213" y="401" on="1"/>
        <pt x="219" y="401" on="0"/>
        <pt x="224" y="400" on="1"/>
        <pt x="268" y="398" on="0"/>
        <pt x="332" y="381" on="0"/>
        <pt x="353" y="369" on="1"/>
        <pt x="353" y="433" on="0"/>
        <pt x="246" y="433" on="1"/>
        <pt x="255" y="509" on="1"/>
        <pt x="293" y="509" on="0"/>
        <pt x="354" y="500" on="0"/>
        <pt x="396" y="479" on="0"/>
        <pt x="428" y="457" on="0"/>
        <pt x="446" y="421" on="0"/>
        <pt x="458" y="394" on="0"/>
        <pt x="462" y="348" on="0"/>
        <pt x="463" y="322" on="0"/>
      </contour>
      <contour>
        <pt x="353" y="97" on="1"/>
        <pt x="353" y="252" on="1"/>
        <pt x="337" y="263" on="0"/>
        <pt x="286" y="282" on="0"/>
        <pt x="258" y="287" on="1"/>
        <pt x="249" y="288" on="0"/>
        <pt x="241" y="288" on="1"/>
        <pt x="223" y="288" on="0"/>
        <pt x="209" y="280" on="1"/>
        <pt x="189" y="268" on="0"/>
        <pt x="189" y="238" on="1"/>
        <pt x="189" y="183" on="1"/>
        <pt x="189" y="91" on="0"/>
        <pt x="295" y="91" on="1"/>
        <pt x="321" y="91" on="0"/>
      </contour>
      <contour>
        <pt x="331" y="538" on="1"/>
        <pt x="258" y="538" on="1"/>
        <pt x="304" y="646" on="1"/>
        <pt x="314" y="669" on="0"/>
        <pt x="337" y="676" on="1"/>
        <pt x="348" y="680" on="0"/>
        <pt x="356" y="680" on="1"/>
        <pt x="365" y="680" on="0"/>
        <pt x="371" y="676" on="1"/>
        <pt x="391" y="666" on="0"/>
        <pt x="395" y="646" on="1"/>
        <pt x="396" y="643" on="0"/>
        <pt x="396" y="640" on="1"/>
        <pt x="396" y="622" on="0"/>
        <pt x="380" y="601" on="1"/>
      </contour>
    </TTGlyph>
    <TTGlyph name="abreve" xMin="78" yMin="-10" xMax="463" yMax="656">
      <contour>
        <pt x="463" y="298" on="1"/>
        <pt x="463" y="0" on="1"/>
        <pt x="359" y="-10" on="0"/>
        <pt x="297" y="-10" on="1"/>
        <pt x="269" y="-10" on="0"/>
        <pt x="250" y="-8" on="1"/>
        <pt x="86" y="10" on="0"/>
        <pt x="78" y="155" on="1"/>
        <pt x="78" y="162" on="0"/>
        <pt x="78" y="169" on="1"/>
        <pt x="78" y="252" on="1"/>
        <pt x="78" y="351" on="0"/>
        <pt x="147" y="385" on="1"/>
        <pt x="176" y="401" on="0"/>
        <pt x="213" y="401" on="1"/>
        <pt x="219" y="401" on="0"/>
        <pt x="224" y="400" on="1"/>
        <pt x="268" y="398" on="0"/>
        <pt x="332" y="381" on="0"/>
        <pt x="353" y="369" on="1"/>
        <pt x="353" y="433" on="0"/>
        <pt x="246" y="433" on="1"/>
        <pt x="255" y="509" on="1"/>
        <pt x="293" y="509" on="0"/>
        <pt x="354" y="500" on="0"/>
        <pt x="396" y="479" on="0"/>
        <pt x="428" y="457" on="0"/>
        <pt x="446" y="421" on="0"/>
        <pt x="458" y="394" on="0"/>
        <pt x="462" y="348" on="0"/>
        <pt x="463" y="322" on="0"/>
      </contour>
      <contour>
        <pt x="353" y="97" on="1"/>
        <pt x="353" y="252" on="1"/>
        <pt x="337" y="263" on="0"/>
        <pt x="286" y="282" on="0"/>
        <pt x="258" y="287" on="1"/>
        <pt x="249" y="288" on="0"/>
        <pt x="241" y="288" on="1"/>
        <pt x="223" y="288" on="0"/>
        <pt x="209" y="280" on="1"/>
        <pt x="189" y="268" on="0"/>
        <pt x="189" y="238" on="1"/>
        <pt x="189" y="183" on="1"/>
        <pt x="189" y="91" on="0"/>
        <pt x="295" y="91" on="1"/>
        <pt x="321" y="91" on="0"/>
      </contour>
      <contour>
        <pt x="422" y="656" on="1"/>
        <pt x="422" y="651" on="1"/>
        <pt x="422" y="604" on="0"/>
        <pt x="356" y="538" on="0"/>
        <pt x="262" y="538" on="0"/>
        <pt x="196" y="604" on="0"/>
        <pt x="196" y="651" on="1"/>
        <pt x="196" y="656" on="1"/>
        <pt x="279" y="656" on="1"/>
        <pt x="279" y="651" on="1"/>
        <pt x="279" y="616" on="0"/>
        <pt x="309" y="616" on="1"/>
        <pt x="323" y="616" on="0"/>
        <pt x="340" y="635" on="0"/>
        <pt x="340" y="651" on="1"/>
        <pt x="340" y="656" on="1"/>
      </contour>
    </TTGlyph>
    <TTGlyph name="acircumflex" xMin="78" yMin="-10" xMax="463" yMax="718">
      <contour>
        <pt x="463" y="298" on="1"/>
        <pt x="463" y="0" on="1"/>
        <pt x="359" y="-10" on="0"/>
        <pt x="297" y="-10" on="1"/>
        <pt x="269" y="-10" on="0"/>
        <pt x="250" y="-8" on="1"/>
        <pt x="86" y="10" on="0"/>
        <pt x="78" y="155" on="1"/>
        <pt x="78" y="162" on="0"/>
        <pt x="78" y="169" on="1"/>
        <pt x="78" y="252" on="1"/>
        <pt x="78" y="351" on="0"/>
        <pt x="147" y="385" on="1"/>
        <pt x="176" y="401" on="0"/>
        <pt x="213" y="401" on="1"/>
        <pt x="219" y="401" on="0"/>
        <pt x="224" y="400" on="1"/>
        <pt x="268" y="398" on="0"/>
        <pt x="332" y="381" on="0"/>
        <pt x="353" y="369" on="1"/>
        <pt x="353" y="433" on="0"/>
        <pt x="246" y="433" on="1"/>
        <pt x="255" y="509" on="1"/>
        <pt x="293" y="509" on="0"/>
        <pt x="354" y="500" on="0"/>
        <pt x="396" y="479" on="0"/>
        <pt x="428" y="457" on="0"/>
        <pt x="446" y="421" on="0"/>
        <pt x="458" y="394" on="0"/>
        <pt x="462" y="348" on="0"/>
        <pt x="463" y="322" on="0"/>
      </contour>
      <contour>
        <pt x="353" y="97" on="1"/>
        <pt x="353" y="252" on="1"/>
        <pt x="337" y="263" on="0"/>
        <pt x="286" y="282" on="0"/>
        <pt x="258" y="287" on="1"/>
        <pt x="249" y="288" on="0"/>
        <pt x="241" y="288" on="1"/>
        <pt x="223" y="288" on="0"/>
        <pt x="209" y="280" on="1"/>
        <pt x="189" y="268" on="0"/>
        <pt x="189" y="238" on="1"/>
        <pt x="189" y="183" on="1"/>
        <pt x="189" y="91" on="0"/>
        <pt x="295" y="91" on="1"/>
        <pt x="321" y="91" on="0"/>
      </contour>
      <contour>
        <pt x="426" y="577" on="1"/>
        <pt x="359" y="538" on="1"/>
        <pt x="283" y="621" on="1"/>
        <pt x="202" y="538" on="1"/>
        <pt x="136" y="577" on="1"/>
        <pt x="284" y="718" on="1"/>
      </contour>
    </TTGlyph>
    <TTGlyph name="acute" xMin="46" yMin="588" xMax="184" yMax="730">
      <contour>
        <pt x="119" y="588" on="1"/>
        <pt x="46" y="588" on="1"/>
        <pt x="92" y="696" on="1"/>
        <pt x="102" y="719" on="0"/>
        <pt x="125" y="726" on="1"/>
        <pt x="136" y="730" on="0"/>
        <pt x="144" y="730" on="1"/>
        <pt x="153" y="730" on="0"/>
        <pt x="159" y="726" on="1"/>
        <pt x="179" y="716" on="0"/>
        <pt x="183" y="696" on="1"/>
        <pt x="184" y="693" on="0"/>
        <pt x="184" y="690" on="1"/>
        <pt x="184" y="672" on="0"/>
        <pt x="168" y="651" on="1"/>
      </contour>
    </TTGlyph>
    <TTGlyph name="adieresis" xMin="78" yMin="-10" xMax="463" yMax="629">
      <contour>
        <pt x="463" y="298" on="1"/>
        <pt x="463" y="0" on="1"/>
        <pt x="359" y="-10" on="0"/>
        <pt x="297" y="-10" on="1"/>
        <pt x="269" y="-10" on="0"/>
        <pt x="250" y="-8" on="1"/>
        <pt x="86" y="10" on="0"/>
        <pt x="78" y="155" on="1"/>
        <pt x="78" y="162" on="0"/>
        <pt x="78" y="169" on="1"/>
        <pt x="78" y="252" on="1"/>
        <pt x="78" y="351" on="0"/>
        <pt x="147" y="385" on="1"/>
        <pt x="176" y="401" on="0"/>
        <pt x="213" y="401" on="1"/>
        <pt x="219" y="401" on="0"/>
        <pt x="224" y="400" on="1"/>
        <pt x="268" y="398" on="0"/>
        <pt x="332" y="381" on="0"/>
        <pt x="353" y="369" on="1"/>
        <pt x="353" y="433" on="0"/>
        <pt x="246" y="433" on="1"/>
        <pt x="255" y="509" on="1"/>
        <pt x="293" y="509" on="0"/>
        <pt x="354" y="500" on="0"/>
        <pt x="396" y="479" on="0"/>
        <pt x="428" y="457" on="0"/>
        <pt x="446" y="421" on="0"/>
        <pt x="458" y="394" on="0"/>
        <pt x="462" y="348" on="0"/>
        <pt x="463" y="322" on="0"/>
      </contour>
      <contour>
        <pt x="353" y="97" on="1"/>
        <pt x="353" y="252" on="1"/>
        <pt x="337" y="263" on="0"/>
        <pt x="286" y="282" on="0"/>
        <pt x="258" y="287" on="1"/>
        <pt x="249" y="288" on="0"/>
        <pt x="241" y="288" on="1"/>
        <pt x="223" y="288" on="0"/>
        <pt x="209" y="280" on="1"/>
        <pt x="189" y="268" on="0"/>
        <pt x="189" y="238" on="1"/>
        <pt x="189" y="183" on="1"/>
        <pt x="189" y="91" on="0"/>
        <pt x="295" y="91" on="1"/>
        <pt x="321" y="91" on="0"/>
      </contour>
      <contour>
        <pt x="259" y="583" on="1"/>
        <pt x="259" y="565" on="0"/>
        <pt x="233" y="539" on="0"/>
        <pt x="214" y="539" on="1"/>
        <pt x="196" y="539" on="0"/>
        <pt x="170" y="565" on="0"/>
        <pt x="170" y="583" on="1"/>
        <pt x="170" y="602" on="0"/>
        <pt x="196" y="628" on="0"/>
        <pt x="214" y="628" on="1"/>
        <pt x="233" y="628" on="0"/>
        <pt x="259" y="602" on="0"/>
      </contour>
      <contour>
        <pt x="366" y="539" on="0"/>
        <pt x="328" y="539" on="0"/>
        <pt x="302" y="565" on="0"/>
        <pt x="302" y="603" on="0"/>
        <pt x="328" y="629" on="0"/>
        <pt x="366" y="629" on="0"/>
        <pt x="392" y="603" on="0"/>
        <pt x="392" y="565" on="0"/>
      </contour>
    </TTGlyph>
    <TTGlyph name="ae" xMin="78" yMin="-12" xMax="713" yMax="510">
      <contour>
        <pt x="713" y="190" on="1"/>
        <pt x="464" y="177" on="1"/>
        <pt x="464" y="149" on="1"/>
        <pt x="464" y="98" on="0"/>
        <pt x="510" y="91" on="1"/>
        <pt x="517" y="90" on="0"/>
        <pt x="524" y="90" on="1"/>
        <pt x="569" y="90" on="0"/>
        <pt x="648" y="130" on="1"/>
        <pt x="688" y="35" on="1"/>
        <pt x="614" y="-10" on="0"/>
        <pt x="523" y="-12" on="1"/>
        <pt x="517" y="-12" on="0"/>
        <pt x="510" y="-12" on="1"/>
        <pt x="473" y="-12" on="0"/>
        <pt x="443" y="-2" on="1"/>
        <pt x="408" y="-5" on="0"/>
        <pt x="369" y="-9" on="0"/>
        <pt x="334" y="-10" on="1"/>
        <pt x="320" y="-10" on="0"/>
        <pt x="308" y="-10" on="1"/>
        <pt x="291" y="-10" on="0"/>
        <pt x="278" y="-10" on="1"/>
        <pt x="257" y="-8" on="0"/>
        <pt x="197" y="0" on="0"/>
        <pt x="159" y="17" on="0"/>
        <pt x="117" y="44" on="0"/>
        <pt x="94" y="82" on="0"/>
        <pt x="78" y="136" on="0"/>
        <pt x="78" y="169" on="1"/>
        <pt x="78" y="252" on="1"/>
        <pt x="78" y="351" on="0"/>
        <pt x="147" y="385" on="1"/>
        <pt x="176" y="401" on="0"/>
        <pt x="213" y="401" on="1"/>
        <pt x="219" y="401" on="0"/>
        <pt x="224" y="400" on="1"/>
        <pt x="268" y="398" on="0"/>
        <pt x="332" y="381" on="0"/>
        <pt x="353" y="369" on="1"/>
        <pt x="353" y="433" on="0"/>
        <pt x="246" y="433" on="1"/>
        <pt x="255" y="509" on="1"/>
        <pt x="359" y="509" on="0"/>
        <pt x="409" y="470" on="1"/>
        <pt x="458" y="510" on="0"/>
        <pt x="537" y="510" on="1"/>
        <pt x="620" y="510" on="0"/>
        <pt x="713" y="421" on="0"/>
        <pt x="713" y="342" on="1"/>
      </contour>
      <contour>
        <pt x="353" y="97" on="1"/>
        <pt x="353" y="252" on="1"/>
        <pt x="337" y="263" on="0"/>
        <pt x="286" y="282" on="0"/>
        <pt x="258" y="287" on="1"/>
        <pt x="249" y="288" on="0"/>
        <pt x="241" y="288" on="1"/>
        <pt x="223" y="288" on="0"/>
        <pt x="209" y="280" on="1"/>
        <pt x="189" y="268" on="0"/>
        <pt x="189" y="238" on="1"/>
        <pt x="189" y="183" on="1"/>
        <pt x="189" y="91" on="0"/>
        <pt x="295" y="91" on="1"/>
        <pt x="321" y="91" on="0"/>
      </contour>
      <contour>
        <pt x="602" y="287" on="1"/>
        <pt x="602" y="340" on="1"/>
        <pt x="602" y="370" on="0"/>
        <pt x="564" y="402" on="0"/>
        <pt x="536" y="402" on="1"/>
        <pt x="498" y="402" on="0"/>
        <pt x="464" y="362" on="0"/>
        <pt x="464" y="338" on="1"/>
        <pt x="464" y="278" on="1"/>
      </contour>
    </TTGlyph>
    <TTGlyph name="agrave" xMin="78" yMin="-10" xMax="463" yMax="682">
      <contour>
        <pt x="463" y="298" on="1"/>
        <pt x="463" y="0" on="1"/>
        <pt x="359" y="-10" on="0"/>
        <pt x="297" y="-10" on="1"/>
        <pt x="269" y="-10" on="0"/>
        <pt x="250" y="-8" on="1"/>
        <pt x="86" y="10" on="0"/>
        <pt x="78" y="155" on="1"/>
        <pt x="78" y="162" on="0"/>
        <pt x="78" y="169" on="1"/>
        <pt x="78" y="252" on="1"/>
        <pt x="78" y="351" on="0"/>
        <pt x="147" y="385" on="1"/>
        <pt x="176" y="401" on="0"/>
        <pt x="213" y="401" on="1"/>
        <pt x="219" y="401" on="0"/>
        <pt x="224" y="400" on="1"/>
        <pt x="268" y="398" on="0"/>
        <pt x="332" y="381" on="0"/>
        <pt x="353" y="369" on="1"/>
        <pt x="353" y="433" on="0"/>
        <pt x="246" y="433" on="1"/>
        <pt x="255" y="509" on="1"/>
        <pt x="293" y="509" on="0"/>
        <pt x="354" y="500" on="0"/>
        <pt x="396" y="479" on="0"/>
        <pt x="428" y="457" on="0"/>
        <pt x="446" y="421" on="0"/>
        <pt x="458" y="394" on="0"/>
        <pt x="462" y="348" on="0"/>
        <pt x="463" y="322" on="0"/>
      </contour>
      <contour>
        <pt x="353" y="97" on="1"/>
        <pt x="353" y="252" on="1"/>
        <pt x="337" y="263" on="0"/>
        <pt x="286" y="282" on="0"/>
        <pt x="258" y="287" on="1"/>
        <pt x="249" y="288" on="0"/>
        <pt x="241" y="288" on="1"/>
        <pt x="223" y="288" on="0"/>
        <pt x="209" y="280" on="1"/>
        <pt x="189" y="268" on="0"/>
        <pt x="189" y="238" on="1"/>
        <pt x="189" y="183" on="1"/>
        <pt x="189" y="91" on="0"/>
        <pt x="295" y="91" on="1"/>
        <pt x="321" y="91" on="0"/>
      </contour>
      <contour>
        <pt x="302" y="540" on="1"/>
        <pt x="229" y="540" on="1"/>
        <pt x="180" y="603" on="1"/>
        <pt x="164" y="624" on="0"/>
        <pt x="164" y="642" on="1"/>
        <pt x="164" y="645" on="0"/>
        <pt x="165" y="648" on="1"/>
        <pt x="169" y="668" on="0"/>
        <pt x="189" y="678" on="1"/>
        <pt x="195" y="682" on="0"/>
        <pt x="204" y="682" on="1"/>
        <pt x="212" y="682" on="0"/>
        <pt x="223" y="678" on="1"/>
        <pt x="246" y="671" on="0"/>
        <pt x="256" y="648" on="1"/>
      </contour>
    </TTGlyph>
</ttFont>
